<svg class="animated" id="freepik_stories-car-accesories" xmlns="http://www.w3.org/2000/svg" viewBox="0 0 500 500" version="1.1" xmlns:xlink="http://www.w3.org/1999/xlink" xmlns:svgjs="http://svgjs.com/svgjs"><style>svg#freepik_stories-car-accesories:not(.animated) .animable {opacity: 0;}svg#freepik_stories-car-accesories.animated #freepik--background-simple--inject-2 {animation: 1s 1 forwards cubic-bezier(.36,-0.01,.5,1.38) zoomOut;animation-delay: 0s;}svg#freepik_stories-car-accesories.animated #freepik--Battery--inject-2 {animation: 1s 1 forwards cubic-bezier(.36,-0.01,.5,1.38) slideRight;animation-delay: 0s;}svg#freepik_stories-car-accesories.animated #freepik--Radio--inject-2 {animation: 1s 1 forwards cubic-bezier(.36,-0.01,.5,1.38) lightSpeedRight;animation-delay: 0s;}svg#freepik_stories-car-accesories.animated #freepik--Speakers--inject-2 {animation: 1s 1 forwards cubic-bezier(.36,-0.01,.5,1.38) lightSpeedRight;animation-delay: 0s;}svg#freepik_stories-car-accesories.animated #freepik--Car--inject-2 {animation: 1s 1 forwards cubic-bezier(.36,-0.01,.5,1.38) lightSpeedLeft;animation-delay: 0s;}svg#freepik_stories-car-accesories.animated #freepik--Muffler--inject-2 {animation: 1s 1 forwards cubic-bezier(.36,-0.01,.5,1.38) slideDown;animation-delay: 0s;}svg#freepik_stories-car-accesories.animated #freepik--steering-wheel--inject-2 {animation: 1s 1 forwards cubic-bezier(.36,-0.01,.5,1.38) slideDown;animation-delay: 0s;}svg#freepik_stories-car-accesories.animated #freepik--Tire--inject-2 {animation: 1s 1 forwards cubic-bezier(.36,-0.01,.5,1.38) lightSpeedRight;animation-delay: 0s;}            @keyframes zoomOut {                0% {                    opacity: 0;                    transform: scale(1.5);                }                100% {                    opacity: 1;                    transform: scale(1);                }            }                    @keyframes slideRight {                0% {                    opacity: 0;                    transform: translateX(30px);                }                100% {                    opacity: 1;                    transform: translateX(0);                }            }                    @keyframes lightSpeedRight {              from {                transform: translate3d(50%, 0, 0) skewX(-20deg);                opacity: 0;              }              60% {                transform: skewX(10deg);                opacity: 1;              }              80% {                transform: skewX(-2deg);              }              to {                opacity: 1;                transform: translate3d(0, 0, 0);              }            }                    @keyframes lightSpeedLeft {              from {                transform: translate3d(-50%, 0, 0) skewX(20deg);                opacity: 0;              }              60% {                transform: skewX(-10deg);                opacity: 1;              }              80% {                transform: skewX(2deg);              }              to {                opacity: 1;                transform: translate3d(0, 0, 0);              }            }                    @keyframes slideDown {                0% {                    opacity: 0;                    transform: translateY(-30px);                }                100% {                    opacity: 1;                    transform: translateY(0);                }            }        </style><g id="freepik--background-simple--inject-2" style="transform-origin: 245.758px 257.766px 0px;" class="animable"><path d="M467.6,251.91c-4.93,41.8-24,90.41-62.14,112.73-57.59,33.75-52.77,85.64-165.19,108.2a231.3,231.3,0,0,1-49.85,4.71,194.65,194.65,0,0,1-24.46-2C94.51,465.12,46.43,415.46,28.79,355.5,5.58,276.66,51.93,225,82.65,193.94s53.23-128,163.57-151A223.75,223.75,0,0,1,297.45,38c39.26,1,82.08,13.86,111.71,40.76q3.33,3,6.5,6.28C456.84,127.33,474.34,194.92,467.6,251.91Z" style="fill: #C6FF00; transform-origin: 245.758px 257.766px 0px;" id="elfi5dep20bv8" class="animable"></path><g id="el0xxk0olqnsje"><path d="M467.6,251.91c-4.93,41.8-24,90.41-62.14,112.73-57.59,33.75-52.77,85.64-165.19,108.2a231.3,231.3,0,0,1-49.85,4.71,194.65,194.65,0,0,1-24.46-2C94.51,465.12,46.43,415.46,28.79,355.5,5.58,276.66,51.93,225,82.65,193.94s53.23-128,163.57-151A223.75,223.75,0,0,1,297.45,38c39.26,1,82.08,13.86,111.71,40.76q3.33,3,6.5,6.28C456.84,127.33,474.34,194.92,467.6,251.91Z" style="fill: rgb(255, 255, 255); opacity: 0.7; transform-origin: 245.758px 257.766px 0px;" class="animable" id="el9u8bpmtj23"></path></g></g><g id="freepik--Battery--inject-2" style="transform-origin: 407.545px 407.14px 0px;" class="animable"><rect x="380.49" y="373.99" width="69.26" height="9.7" style="fill: rgb(38, 50, 56); stroke: rgb(38, 50, 56); stroke-miterlimit: 10; transform-origin: 415.12px 378.84px 0px;" id="elsjrl3eu58wn" class="animable"></rect><rect x="364.85" y="369.47" width="9.16" height="11.95" style="fill: #C6FF00; stroke: rgb(38, 50, 56); stroke-miterlimit: 10; transform-origin: 369.43px 375.445px 0px;" id="el62w03savsc6" class="animable"></rect><rect x="406.66" y="369.47" width="9.16" height="11.95" style="fill: #C6FF00; stroke: rgb(38, 50, 56); stroke-miterlimit: 10; transform-origin: 411.24px 375.445px 0px;" id="elbsy9qz79gxg" class="animable"></rect><rect x="358.47" y="386.59" width="98.14" height="53.37" style="fill: rgb(255, 255, 255); stroke: rgb(38, 50, 56); stroke-miterlimit: 10; transform-origin: 407.54px 413.275px 0px;" id="elwl7ympw84z" class="animable"></rect><rect x="420.6" y="386.59" width="36.03" height="53.37" style="fill: rgb(255, 255, 255); stroke: rgb(38, 50, 56); stroke-miterlimit: 10; transform-origin: 438.615px 413.275px 0px;" id="elmzn5739jb27" class="animable"></rect><rect x="356.27" y="379.56" width="102.55" height="9.7" style="fill: rgb(38, 50, 56); stroke: rgb(38, 50, 56); stroke-miterlimit: 10; transform-origin: 407.545px 384.41px 0px;" id="el8bnlq4ilbem" class="animable"></rect><rect x="356.27" y="439.96" width="102.55" height="4.85" style="fill: rgb(38, 50, 56); stroke: rgb(38, 50, 56); stroke-miterlimit: 10; transform-origin: 407.545px 442.385px 0px;" id="elmmrm5hl6bu" class="animable"></rect><rect x="363.25" y="398.54" width="9.56" height="2.79" style="fill: rgb(38, 50, 56); stroke: rgb(38, 50, 56); stroke-miterlimit: 10; transform-origin: 368.03px 399.935px 0px;" id="ellrmuxygjrfj" class="animable"></rect><rect x="406.66" y="398.54" width="9.56" height="2.79" style="fill: rgb(38, 50, 56); stroke: rgb(38, 50, 56); stroke-miterlimit: 10; transform-origin: 411.44px 399.935px 0px;" id="elx1uf81pbf0f" class="animable"></rect><g id="el82pgpcli1rj"><rect x="406.66" y="398.54" width="9.56" height="2.79" style="fill: rgb(38, 50, 56); stroke: rgb(38, 50, 56); stroke-miterlimit: 10; transform-origin: 411.44px 399.935px 0px; transform: rotate(90deg);" class="animable" id="el3veyvinotve"></rect></g></g><g id="freepik--Radio--inject-2" style="transform-origin: 258.875px 417.73px 0px;" class="animable"><rect x="189.5" y="391.75" width="142.74" height="51.96" rx="3.55" style="fill: rgb(135, 135, 135); stroke: rgb(38, 50, 56); stroke-miterlimit: 10; transform-origin: 260.87px 417.73px 0px;" id="el0h8g0btmnebu" class="animable"></rect><path d="M310.84,391.76l-51.95,51.95H189.36a3.55,3.55,0,0,1-3.56-3.55V395.31a3.55,3.55,0,0,1,3.56-3.55Z" style="fill: rgb(38, 50, 56); stroke: rgb(38, 50, 56); stroke-miterlimit: 10; transform-origin: 248.32px 417.735px 0px;" id="elxuriaca5zfj" class="animable"></path><path d="M328.55,405.28v34.88a3.55,3.55,0,0,1-3.55,3.55H290.13Z" style="fill: rgb(38, 50, 56); stroke: rgb(38, 50, 56); stroke-miterlimit: 10; transform-origin: 309.34px 424.495px 0px;" id="el2sy9fv7dsd8" class="animable"></path><polygon points="323.87 397.38 323.87 438.53 251.45 438.53 249.48 435.29 205.36 435.29 203.39 438.53 190.48 438.53 190.48 397.38 203.01 397.38 205.36 401.26 249.48 401.26 251.83 397.38 323.87 397.38" style="fill: rgb(135, 135, 135); stroke: rgb(38, 50, 56); stroke-miterlimit: 10; transform-origin: 257.175px 417.955px 0px;" id="elblhwk09fove" class="animable"></polygon><rect x="208.23" y="410.55" width="39.25" height="15.16" style="fill: rgb(135, 135, 135); stroke: rgb(38, 50, 56); stroke-miterlimit: 10; transform-origin: 227.855px 418.13px 0px;" id="eldxa4cpnls7c" class="animable"></rect><polygon points="249.48 435.29 251.45 438.53 203.39 438.53 205.36 435.29 249.48 435.29" style="fill: rgb(38, 50, 56); stroke: rgb(38, 50, 56); stroke-miterlimit: 10; transform-origin: 227.42px 436.91px 0px;" id="elmdhjwzo9tcm" class="animable"></polygon><polygon points="205.36 401.26 203.01 397.38 251.83 397.38 249.48 401.26 205.36 401.26" style="fill: rgb(38, 50, 56); stroke: rgb(38, 50, 56); stroke-miterlimit: 10; transform-origin: 227.42px 399.32px 0px;" id="elebz36fa804" class="animable"></polygon><circle cx="227.42" cy="417.96" r="13.89" style="fill: #C6FF00; stroke: rgb(38, 50, 56); stroke-miterlimit: 10; transform-origin: 227.42px 417.96px 0px;" id="eluh3s0ywp43h" class="animable"></circle><g id="ele20ap6hcaw"><circle cx="227.42" cy="417.96" r="11.14" style="fill: rgb(38, 50, 56); stroke: rgb(38, 50, 56); stroke-miterlimit: 10; transform-origin: 227.42px 417.96px 0px; transform: rotate(-13.22deg);" class="animable" id="elg1ctajjydg"></circle></g><path d="M249.48,435.29H205.36l-2,3.24h48.06ZM203,397.38l2.35,3.88h44.12l2.35-3.88Z" style="fill: rgb(38, 50, 56); stroke: rgb(38, 50, 56); stroke-miterlimit: 10; transform-origin: 227.41px 417.955px 0px;" id="elrfj21y5la8" class="animable"></path><rect x="249.8" y="408.06" width="69.47" height="19.72" style="fill: rgb(135, 135, 135); stroke: rgb(38, 50, 56); stroke-miterlimit: 10; transform-origin: 284.535px 417.92px 0px;" id="elm5rknhxx1bq" class="animable"></rect><line x1="254.49" y1="408.53" x2="254.49" y2="412.76" style="fill: rgb(135, 135, 135); stroke: rgb(38, 50, 56); stroke-miterlimit: 10; transform-origin: 254.49px 410.645px 0px;" id="el5ahttitdm3k" class="animable"></line><line x1="262.24" y1="408.53" x2="262.24" y2="412.76" style="fill: rgb(135, 135, 135); stroke: rgb(38, 50, 56); stroke-miterlimit: 10; transform-origin: 262.24px 410.645px 0px;" id="el3faa6qxcklp" class="animable"></line><line x1="269.98" y1="408.53" x2="269.98" y2="412.76" style="fill: rgb(135, 135, 135); stroke: rgb(38, 50, 56); stroke-miterlimit: 10; transform-origin: 269.98px 410.645px 0px;" id="elaqzpax1fd5v" class="animable"></line><line x1="277.73" y1="408.53" x2="277.73" y2="412.76" style="fill: rgb(135, 135, 135); stroke: rgb(38, 50, 56); stroke-miterlimit: 10; transform-origin: 277.73px 410.645px 0px;" id="el3qxv99ct5dy" class="animable"></line><line x1="285.47" y1="408.53" x2="285.47" y2="412.76" style="fill: rgb(135, 135, 135); stroke: rgb(38, 50, 56); stroke-miterlimit: 10; transform-origin: 285.47px 410.645px 0px;" id="elx3dzikb32u" class="animable"></line><line x1="293.22" y1="408.53" x2="293.22" y2="412.76" style="fill: rgb(135, 135, 135); stroke: rgb(38, 50, 56); stroke-miterlimit: 10; transform-origin: 293.22px 410.645px 0px;" id="elvxld0e81euj" class="animable"></line><line x1="300.97" y1="408.53" x2="300.97" y2="412.76" style="fill: rgb(135, 135, 135); stroke: rgb(38, 50, 56); stroke-miterlimit: 10; transform-origin: 300.97px 410.645px 0px;" id="el291oq1zn69l" class="animable"></line><line x1="308.71" y1="408.53" x2="308.71" y2="412.76" style="fill: rgb(135, 135, 135); stroke: rgb(38, 50, 56); stroke-miterlimit: 10; transform-origin: 308.71px 410.645px 0px;" id="el7n74nsn77vf" class="animable"></line><line x1="316.46" y1="408.53" x2="316.46" y2="412.76" style="fill: rgb(135, 135, 135); stroke: rgb(38, 50, 56); stroke-miterlimit: 10; transform-origin: 316.46px 410.645px 0px;" id="elfquo46l9lms" class="animable"></line><line x1="254.49" y1="423.32" x2="254.49" y2="427.54" style="fill: rgb(135, 135, 135); stroke: rgb(38, 50, 56); stroke-miterlimit: 10; transform-origin: 254.49px 425.43px 0px;" id="el3sv4pgwdb65" class="animable"></line><line x1="262.24" y1="423.32" x2="262.24" y2="427.54" style="fill: rgb(135, 135, 135); stroke: rgb(38, 50, 56); stroke-miterlimit: 10; transform-origin: 262.24px 425.43px 0px;" id="el9jnd8mgas4u" class="animable"></line><line x1="269.98" y1="423.32" x2="269.98" y2="427.54" style="fill: rgb(135, 135, 135); stroke: rgb(38, 50, 56); stroke-miterlimit: 10; transform-origin: 269.98px 425.43px 0px;" id="elwgpusmase0g" class="animable"></line><line x1="277.73" y1="423.32" x2="277.73" y2="427.54" style="fill: rgb(135, 135, 135); stroke: rgb(38, 50, 56); stroke-miterlimit: 10; transform-origin: 277.73px 425.43px 0px;" id="elyc78c3s1af" class="animable"></line><line x1="285.47" y1="423.32" x2="285.47" y2="427.54" style="fill: rgb(135, 135, 135); stroke: rgb(38, 50, 56); stroke-miterlimit: 10; transform-origin: 285.47px 425.43px 0px;" id="elrty63d0elh" class="animable"></line><line x1="293.22" y1="423.32" x2="293.22" y2="427.54" style="fill: rgb(135, 135, 135); stroke: rgb(38, 50, 56); stroke-miterlimit: 10; transform-origin: 293.22px 425.43px 0px;" id="eljuoq61cnsin" class="animable"></line><line x1="300.97" y1="423.32" x2="300.97" y2="427.54" style="fill: rgb(135, 135, 135); stroke: rgb(38, 50, 56); stroke-miterlimit: 10; transform-origin: 300.97px 425.43px 0px;" id="el3rrfpdygmza" class="animable"></line><line x1="308.71" y1="423.32" x2="308.71" y2="427.54" style="fill: rgb(135, 135, 135); stroke: rgb(38, 50, 56); stroke-miterlimit: 10; transform-origin: 308.71px 425.43px 0px;" id="el1ckejo27krz" class="animable"></line><line x1="316.46" y1="423.32" x2="316.46" y2="427.54" style="fill: rgb(135, 135, 135); stroke: rgb(38, 50, 56); stroke-miterlimit: 10; transform-origin: 316.46px 425.43px 0px;" id="el7vdudu62493" class="animable"></line><polygon points="193.68 405.15 193.68 411.99 206.08 412.79 206.08 407.89 193.68 405.15" style="fill: #C6FF00; stroke: rgb(38, 50, 56); stroke-miterlimit: 10; transform-origin: 199.88px 408.97px 0px;" id="elx98kzyw6az8" class="animable"></polygon><polygon points="193.68 429.76 193.68 422.93 206.08 421.29 206.08 427.03 193.68 429.76" style="fill: #C6FF00; stroke: rgb(38, 50, 56); stroke-miterlimit: 10; transform-origin: 199.88px 425.525px 0px;" id="elhadtbpv2lec" class="animable"></polygon><polygon points="206.34 419.35 193.31 421.43 193.31 413.87 206.34 414.95 206.34 419.35" style="fill: #C6FF00; stroke: rgb(38, 50, 56); stroke-miterlimit: 10; transform-origin: 199.825px 417.65px 0px;" id="elcy0gqz75ph" class="animable"></polygon><circle cx="317.06" cy="401.6" r="1.86" style="fill: #C6FF00; stroke: rgb(38, 50, 56); stroke-miterlimit: 10; transform-origin: 317.06px 401.6px 0px;" id="elq68y74a5zl" class="animable"></circle><rect x="185.51" y="391.75" width="143.47" height="51.96" rx="3.55" style="fill: none; stroke: rgb(38, 50, 56); stroke-miterlimit: 10; transform-origin: 257.245px 417.73px 0px;" id="el6nh31srv0u4" class="animable"></rect></g><g id="freepik--Speakers--inject-2" style="transform-origin: 90.25px 412.85px 0px;" class="animable"><circle cx="63.99" cy="412.85" r="38.98" style="fill: #C6FF00; stroke: rgb(38, 50, 56); stroke-miterlimit: 10; transform-origin: 63.99px 412.85px 0px;" id="elwr1wiyn1wwb" class="animable"></circle><circle cx="62.28" cy="412.85" r="38.98" style="fill: #C6FF00; stroke: rgb(38, 50, 56); stroke-miterlimit: 10; transform-origin: 62.28px 412.85px 0px;" id="elrxj1qn3o99" class="animable"></circle><g id="elz7wrhrzk27r"><circle cx="62.28" cy="412.85" r="31.1" style="fill: rgb(38, 50, 56); stroke: rgb(38, 50, 56); stroke-miterlimit: 10; transform-origin: 62.28px 412.85px 0px; transform: rotate(-16deg);" class="animable" id="el0xrnxbj49r6r"></circle></g><circle cx="62.28" cy="412.85" r="7.01" style="fill: #C6FF00; stroke: rgb(38, 50, 56); stroke-miterlimit: 10; transform-origin: 62.28px 412.85px 0px;" id="elmke1fner0ro" class="animable"></circle><path d="M66.79,412.85a4.52,4.52,0,1,0-4.51,4.51A4.51,4.51,0,0,0,66.79,412.85Z" style="fill: rgb(255, 255, 255); stroke: rgb(38, 50, 56); stroke-miterlimit: 10; transform-origin: 62.2699px 412.84px 0px;" id="ele04iht7yu14" class="animable"></path><line x1="62.28" y1="408.33" x2="62.28" y2="417.36" style="fill: none; stroke: rgb(38, 50, 56); stroke-miterlimit: 10; transform-origin: 62.28px 412.845px 0px;" id="el190liid6l97" class="animable"></line><line x1="57.76" y1="412.85" x2="66.79" y2="412.85" style="fill: none; stroke: rgb(38, 50, 56); stroke-miterlimit: 10; transform-origin: 62.275px 412.85px 0px;" id="elne4kjy16pec" class="animable"></line><circle cx="118.22" cy="412.85" r="38.98" style="fill: #C6FF00; stroke: rgb(38, 50, 56); stroke-miterlimit: 10; transform-origin: 118.22px 412.85px 0px;" id="el21b0chu6k0e" class="animable"></circle><circle cx="116.51" cy="412.85" r="38.98" style="fill: #C6FF00; stroke: rgb(38, 50, 56); stroke-miterlimit: 10; transform-origin: 116.51px 412.85px 0px;" id="elfxr1mffws98" class="animable"></circle><g id="elf4zkfchubbo"><circle cx="116.51" cy="412.85" r="31.1" style="fill: rgb(38, 50, 56); stroke: rgb(38, 50, 56); stroke-miterlimit: 10; transform-origin: 116.51px 412.85px 0px; transform: rotate(-45deg);" class="animable" id="elqp2elscbw7"></circle></g><circle cx="116.51" cy="412.85" r="7.01" style="fill: #C6FF00; stroke: rgb(38, 50, 56); stroke-miterlimit: 10; transform-origin: 116.51px 412.85px 0px;" id="el46sf3umhhi5" class="animable"></circle><path d="M121,412.85a4.52,4.52,0,1,0-4.52,4.51A4.52,4.52,0,0,0,121,412.85Z" style="fill: rgb(255, 255, 255); stroke: rgb(38, 50, 56); stroke-miterlimit: 10; transform-origin: 116.48px 412.84px 0px;" id="elonu8f1jov2" class="animable"></path><line x1="116.51" y1="408.33" x2="116.51" y2="417.36" style="fill: none; stroke: rgb(38, 50, 56); stroke-miterlimit: 10; transform-origin: 116.51px 412.845px 0px;" id="el3gmote8erpc" class="animable"></line><line x1="112" y1="412.85" x2="121.03" y2="412.85" style="fill: none; stroke: rgb(38, 50, 56); stroke-miterlimit: 10; transform-origin: 116.515px 412.85px 0px;" id="el1mih62rahj2" class="animable"></line></g><g id="freepik--Car--inject-2" style="transform-origin: 256.997px 262.956px 0px;" class="animable"><g id="elnhavxucrr4"><ellipse cx="253.59" cy="325.73" rx="21.85" ry="173.68" style="fill: rgb(38, 50, 56); stroke: rgb(38, 50, 56); stroke-miterlimit: 10; transform-origin: 253.59px 325.73px 0px; transform: rotate(-88.15deg);" class="animable" id="eluvy2acwn9q"></ellipse></g><path d="M84.39,288.25s2.11,4.57,3.62,6.13,28.74,8.3,28.74,8.3L205,322l10.69-1.15,37.37,1.2s7.46-18.24-.68-36.21-48.86-25-60.37-21.34-38.47,15.44-57.84,9-34.82-19.09-41.28-17.41-9.54,12.08-9.54,16.57S84.39,288.25,84.39,288.25Z" style="fill: rgb(38, 50, 56); stroke: rgb(38, 50, 56); stroke-miterlimit: 10; transform-origin: 169.766px 288.994px 0px;" id="els6ygjnqghq" class="animable"></path><path d="M274.09,313.24c-.77-18.55-13.18-33.61-27.71-33.65H230.62l.28,6.64c-6.16,6.11-9.9,15.87-9.45,26.87s5,20.79,11.68,26.93l.28,6.73h15.75C263.7,346.79,274.86,331.79,274.09,313.24Z" style="fill: rgb(38, 50, 56); stroke: rgb(38, 50, 56); stroke-miterlimit: 10; transform-origin: 247.771px 313.175px 0px;" id="elb5e09sa28zl" class="animable"></path><g id="elrj9lpsxqtie"><ellipse cx="232.01" cy="313.17" rx="26.25" ry="33.66" style="fill: rgb(135, 135, 135); stroke: rgb(38, 50, 56); stroke-miterlimit: 10; transform-origin: 232.01px 313.17px 0px; transform: rotate(-6.32deg);" class="animable" id="el6qosbd51dmv"></ellipse></g><path d="M252.38,324.6h0c.25-.83.48-1.68.67-2.55h0q.28-1.32.48-2.67h0a35.59,35.59,0,0,0,.28-6.15A35,35,0,0,0,251,300.7l-.05-.1c-.36-.83-.76-1.64-1.19-2.42l-.08-.15c-.43-.77-.88-1.52-1.36-2.24l-.08-.12c-4.26-6.27-10.51-10.3-17.34-10.31-5.85,0-11,2.91-14.74,7.68h0c-.25.31-.49.64-.72,1h0c-.23.33-.46.67-.68,1h0c-.22.34-.43.69-.63,1v0c-.2.35-.39.7-.57,1.06l0,.06c-.18.35-.35.7-.52,1.07l0,.08c-.16.35-.31.71-.46,1.07,0,0,0,.08-.05.13-.14.35-.27.7-.4,1.06l-.06.17c-.12.34-.23.69-.34,1.05,0,.07-.05.14-.07.21-.1.34-.19.69-.29,1a2.68,2.68,0,0,1-.07.27c-.08.33-.16.67-.23,1,0,.1-.05.21-.07.31-.07.33-.13.66-.19,1l-.06.37c-.06.31-.1.64-.14,1l-.06.41c0,.31-.07.63-.1.95,0,.15,0,.3,0,.45,0,.31,0,.63-.06.94l0,.48c0,.33,0,.67,0,1,0,.15,0,.29,0,.43,0,.48,0,1,0,1.46s.06,1.17.12,1.75c0,.14,0,.28,0,.42.05.5.11,1,.18,1.49l0,.23c.19,1.22.44,2.41.74,3.58h0A30.73,30.73,0,0,0,219.49,335l.14.13c.46.44.93.85,1.42,1.25l.1.07a19.23,19.23,0,0,0,12,4.5,17.8,17.8,0,0,0,11.72-4.49h0A25.72,25.72,0,0,0,252.38,324.6Z" style="fill: rgb(255, 255, 255); stroke: rgb(38, 50, 56); stroke-miterlimit: 10; transform-origin: 232.115px 313.155px 0px;" id="el7dxoxd8bqrl" class="animable"></path><path d="M251.32,314.07a29.41,29.41,0,0,0-1.84-9.12l-8.66,5.43a13.33,13.33,0,0,1,.67,3.67c0,.19,0,.37,0,.55l9.84,1.6C251.35,315.5,251.35,314.79,251.32,314.07Z" style="fill: rgb(38, 50, 56); stroke: rgb(38, 50, 56); stroke-miterlimit: 10; transform-origin: 246.082px 310.575px 0px;" id="elozc2vwpgv6" class="animable"></path><path d="M236,304.12a9.05,9.05,0,0,1,2.45,2l6.1-9.38a18.85,18.85,0,0,0-7.34-5.07Z" style="fill: rgb(38, 50, 56); stroke: rgb(38, 50, 56); stroke-miterlimit: 10; transform-origin: 240.275px 298.895px 0px;" id="elhv9obwx0b6b" class="animable"></path><path d="M240.25,320.16a9.64,9.64,0,0,1-1.62,2.34l5,11.21a20.64,20.64,0,0,0,5.7-8Z" style="fill: rgb(38, 50, 56); stroke: rgb(38, 50, 56); stroke-miterlimit: 10; transform-origin: 243.98px 326.935px 0px;" id="ela3bqllgvz7" class="animable"></path><path d="M225.52,308.22l-8.83-6.14a26.79,26.79,0,0,0-2.11,10.18l9.87.28A12.15,12.15,0,0,1,225.52,308.22Z" style="fill: rgb(38, 50, 56); stroke: rgb(38, 50, 56); stroke-miterlimit: 10; transform-origin: 220.05px 307.31px 0px;" id="el1rofilpakav" class="animable"></path><path d="M228.52,304.48a7.22,7.22,0,0,1,2.36-1.08L229.44,291a15.49,15.49,0,0,0-8.28,4.43Z" style="fill: rgb(38, 50, 56); stroke: rgb(38, 50, 56); stroke-miterlimit: 10; transform-origin: 226.02px 297.74px 0px;" id="el7z6navcr8v5" class="animable"></path><path d="M234.34,324.81a7.3,7.3,0,0,1-.94.06,7,7,0,0,1-2.6-.51L226,335.09a15.5,15.5,0,0,0,7.95,2.26,14.19,14.19,0,0,0,2.27-.17Z" style="fill: rgb(38, 50, 56); stroke: rgb(38, 50, 56); stroke-miterlimit: 10; transform-origin: 231.11px 330.855px 0px;" id="ellsbvy1tqgpl" class="animable"></path><path d="M225.45,318.67l-9.77,2.18a26.45,26.45,0,0,0,4.77,9.39l6.26-9.25A11.73,11.73,0,0,1,225.45,318.67Z" style="fill: rgb(38, 50, 56); stroke: rgb(38, 50, 56); stroke-miterlimit: 10; transform-origin: 221.195px 324.455px 0px;" id="eluddj0cp669k" class="animable"></path><path d="M126.3,294.49c-.36-15.54-6.18-28.17-13-28.2H97.58l1.31,56.28h15.72C121.43,322.6,126.66,310,126.3,294.49Z" style="fill: rgb(38, 50, 56); stroke: rgb(38, 50, 56); stroke-miterlimit: 10; transform-origin: 111.949px 294.43px 0px;" id="elem11i483hs" class="animable"></path><path d="M110.58,294.49c.36,15.54-4.87,28.11-11.69,28.08s-12.64-12.65-13-28.2,4.87-28.11,11.69-28.08S110.22,279,110.58,294.49Z" style="fill: rgb(135, 135, 135); stroke: rgb(38, 50, 56); stroke-miterlimit: 10; transform-origin: 98.235px 294.43px 0px;" id="elq3qjer3njws" class="animable"></path><path d="M107.79,304h0c.12-.7.23-1.41.32-2.14h0c.09-.73.16-1.48.22-2.24h0c.12-1.66.17-3.38.13-5.15a49,49,0,0,0-1.34-10.5l0-.08c-.17-.7-.36-1.38-.56-2l0-.13c-.21-.64-.42-1.27-.65-1.87l0-.1c-2-5.26-4.93-8.63-8.14-8.65-2.74,0-5.17,2.44-6.91,6.44h0c-.12.27-.23.54-.34.81h0c-.11.28-.22.56-.32.85h0c-.1.29-.2.58-.29.87v0c-.09.29-.18.58-.27.89v0q-.14.44-.24.9l0,.07c-.08.29-.15.59-.22.9a.36.36,0,0,1,0,.1c-.07.29-.13.59-.19.89a.78.78,0,0,0,0,.14c-.06.29-.11.59-.17.88l0,.18c0,.29-.09.58-.13.87l0,.22c0,.28-.08.56-.11.84a2.51,2.51,0,0,0,0,.27c0,.27-.06.55-.08.82,0,.11,0,.21,0,.31l-.06.81,0,.34c0,.27,0,.53,0,.8s0,.25,0,.37c0,.27,0,.53,0,.8s0,.26,0,.39c0,.28,0,.56,0,.85,0,.12,0,.24,0,.36,0,.4,0,.81,0,1.21s0,1,0,1.48c0,.11,0,.23,0,.35l.09,1.24c0,.07,0,.13,0,.2.09,1,.21,2,.35,3h0a34.48,34.48,0,0,0,3.83,12.1l.06.12c.22.36.44.71.67,1l0,.06c1.65,2.37,3.59,3.76,5.64,3.77s3.94-1.38,5.49-3.76h0A27.18,27.18,0,0,0,107.79,304Z" style="fill: rgb(255, 255, 255); stroke: rgb(38, 50, 56); stroke-miterlimit: 10; transform-origin: 98.4568px 294.39px 0px;" id="elcu7sftm7p3" class="animable"></path><path d="M425.85,302.49c-.77-18.55-13.18-33.61-27.71-33.65H382.38c-14.54,0-25.7,15-24.93,33.52S370.63,336,385.17,336h15.75C415.46,336.05,426.62,321,425.85,302.49Z" style="fill: rgb(38, 50, 56); stroke: rgb(38, 50, 56); stroke-miterlimit: 10; transform-origin: 391.65px 302.42px 0px;" id="elhcko2wi49pd" class="animable"></path><path d="M131.34,186.72s-7,2.06-7.93,4.11-1.46,3.52-1.46,3.52l-21.13,30.81s-7.63-.58-10,5.87-1.46,15.26-1.46,15.26-5.58,13.79-5.87,24.06a108.92,108.92,0,0,0,.88,17.9s-1.47-18.78,2.93-24.65,13.5-1.46,17,9.1S112,302.92,112,302.92L205,322s-4.7-24.65,1.47-38.74,34.91-13.2,40.2,12.33,3.52,30.22,3.52,30.22,19.66,4.11,79.52,3.23,92.72-7.92,101.53-10.27c0,0,2-10.86,2.64-17.31a21,21,0,0,0-1.76-10.86s-.59-11.74-2.06-15.85-5.87-10.27-5.87-10.27-4.4-10.27-11.73-16.72-19.37-12.91-22.31-14.38-6.74-2.35-12.32-6.16-40.2-27.88-51.06-34.33-34.33-9.69-39-10.57-58.69-4.69-77.47-4.69S152.76,178.51,131.34,186.72Z" style="fill: #C6FF00; stroke: rgb(38, 50, 56); stroke-miterlimit: 10; transform-origin: 258.712px 253.397px 0px;" id="el2yz3dbg093l" class="animable"></path><g id="elxk68fzks8x"><path d="M433.87,301.46a21,21,0,0,0-1.76-10.86s-.19-3.76-.62-7.76c-36.72,10.83-102.41,11.56-120.73,9.94-21.05-1.85-58.39-6.94-60-13s-16.09-19.81-26-23.53c-8.49-3.18-107-16.82-135-20.66a47.24,47.24,0,0,0-.33,10.69s-5.58,13.79-5.87,24.06a108.92,108.92,0,0,0,.88,17.9s-1.47-18.78,2.93-24.65,13.5-1.46,17,9.1S112,302.92,112,302.92L205,322s-4.7-24.65,1.47-38.74,34.91-13.2,40.2,12.33,3.52,30.22,3.52,30.22,19.66,4.11,79.52,3.23,92.72-7.92,101.53-10.27C431.23,318.77,433.28,307.91,433.87,301.46Z" style="opacity: 0.15; transform-origin: 258.742px 282.377px 0px;" class="animable" id="ely8wxrsbarq"></path></g><path d="M195.6,196.11c-11.81-8.46-22-9.75-26.78-10.14-4.55,8.17-12,23.63-13.49,39.66,25,3.9,52.89,8.34,52.89,8.34s6.45,2.34,8.8,0a6.06,6.06,0,0,0,1.76-2.35C219.37,230.15,209.1,205.8,195.6,196.11Z" style="fill: rgb(255, 255, 255); stroke: rgb(38, 50, 56); stroke-miterlimit: 10; transform-origin: 187.067px 210.49px 0px;" id="elu59lxsx79pp" class="animable"></path><path d="M160.79,186a140.87,140.87,0,0,0-20.06,2.53c-6.75,1.47-9.1,1.76-10.27,2.94S117.84,207,113.73,217.24a3.4,3.4,0,0,0,3.23,2.64c1,0,13.28,1.86,28.58,4.23C148.1,215,153.24,199,160.79,186Z" style="fill: rgb(255, 255, 255); stroke: rgb(38, 50, 56); stroke-miterlimit: 10; transform-origin: 137.26px 205.055px 0px;" id="el1kfhedd296g" class="animable"></path><path d="M123.51,220.34s5-19.27,15.1-30.73" style="fill: none; stroke: rgb(38, 50, 56); stroke-miterlimit: 10; transform-origin: 131.06px 204.975px 0px;" id="elk6x1dd2xn4" class="animable"></path><path d="M155.6,239.48,147.25,238a2.14,2.14,0,0,0-1.43,2.69c.62,2.05,1.73,1.82,1.73,1.82l6.95,1.12a1.85,1.85,0,0,0,2-1.47C156.86,240.48,157.33,240.27,155.6,239.48Z" style="fill: none; stroke: rgb(38, 50, 56); stroke-miterlimit: 10; transform-origin: 151.282px 240.82px 0px;" id="el2q4qmltkanu" class="animable"></path><path d="M113.39,232.2,107,231a1.74,1.74,0,0,0-1.09,2.19c.47,1.66,1.32,1.48,1.32,1.48l5.31.91a1.41,1.41,0,0,0,1.53-1.2C114.36,233,114.72,232.85,113.39,232.2Z" style="fill: none; stroke: rgb(38, 50, 56); stroke-miterlimit: 10; transform-origin: 110.083px 233.293px 0px;" id="ellb5lwytd7jh" class="animable"></path><path d="M164.45,185s-11.9,22.13-14,40.5" style="fill: none; stroke: rgb(38, 50, 56); stroke-miterlimit: 10; transform-origin: 157.45px 205.25px 0px;" id="elggg4bagaih8" class="animable"></path><path d="M147.75,229.3s-5.43,9.18-5.64,12.31.42,40.71,1.46,47.6" style="fill: none; stroke: rgb(38, 50, 56); stroke-miterlimit: 10; transform-origin: 144.91px 259.255px 0px;" id="el5ay8usm2ka" class="animable"></path><path d="M206.83,208.84s-4.18,12.11-5.43,18.58" style="fill: none; stroke: rgb(38, 50, 56); stroke-miterlimit: 10; transform-origin: 204.115px 218.13px 0px;" id="el4yqlqy2jgzn" class="animable"></path><path d="M205.16,242.45s-4.6,15.24-4.8,26.72-.42,33-.42,33" style="fill: none; stroke: rgb(38, 50, 56); stroke-miterlimit: 10; transform-origin: 202.55px 272.31px 0px;" id="elln5lq994lg" class="animable"></path><path d="M113.09,221.36s-9.81,9-10.64,11.9.2,28,.2,28" style="fill: none; stroke: rgb(38, 50, 56); stroke-miterlimit: 10; transform-origin: 107.608px 241.31px 0px;" id="elv250tc83ld" class="animable"></path><path d="M115,289.63s1.46,4.18,4.59,5.22,79.13,15.66,79.13,15.66" style="fill: none; stroke: rgb(38, 50, 56); stroke-miterlimit: 10; transform-origin: 156.86px 300.07px 0px;" id="el6gzdjpz9zf6" class="animable"></path><path d="M335.11,302.88s58.19.8,79.81-5.87c0,0-2.13,14.41-6.14,17.35s-33.1,5.93-47.24,6.4c-16,.54-25.1-1.06-25.1-1.06Z" style="fill: rgb(38, 50, 56); stroke: rgb(38, 50, 56); stroke-miterlimit: 10; transform-origin: 375.015px 308.941px 0px;" id="elbs9po72ggfu" class="animable"></path><path d="M324.7,266.57l5.87,12s32.83.8,36.57,1.06,7.74,2.14,12,0,22.69-4.53,24.83-4.53,4.8,1.87,4.8,1.87-4.8-12-6.67-13.08a8,8,0,0,0-4.54-.81C396.77,263.1,357.8,260.17,324.7,266.57Z" style="fill: rgb(38, 50, 56); stroke: rgb(38, 50, 56); stroke-miterlimit: 10; transform-origin: 366.735px 271.535px 0px;" id="el5hvjfl3dxgs" class="animable"></path><path d="M262.82,242.6s-14-2.15-19.33-.27-2.69,9.13,6.44,15.84,16.65,13.15,26,14.23S301.48,277,302.28,274s-2.15-13.69-12.89-21.48S262.82,242.6,262.82,242.6Z" style="fill: rgb(255, 255, 255); stroke: rgb(38, 50, 56); stroke-miterlimit: 10; transform-origin: 271.581px 258.371px 0px;" id="el8ebfhwchk8k" class="animable"></path><path d="M375,227.29l-2.68.81-13,.37c-6.83.2-15.85.45-25.82.71-13.76.37-29.32.75-43.37,1-21.48.45-39.46.68-42.16.28a27.69,27.69,0,0,1-14.65-6.58,34.88,34.88,0,0,1-7.63-9.79C219.32,202.32,203,187.83,203,187.83c25.77-3,87.25-1.88,94.23-1.61a46.84,46.84,0,0,1,6.45.78c7.45,1.32,17.17,4.25,22.81,8.08,1,.68,2.61,1.75,4.63,3.1,4.72,3.15,11.72,7.79,18.75,12.45l12.26,8.11Z" style="fill: rgb(255, 255, 255); stroke: rgb(38, 50, 56); stroke-miterlimit: 10; transform-origin: 289px 208.229px 0px;" id="el3zzvi9c3a1w" class="animable"></path><path d="M326.44,195.08c1,.68,2.61,1.75,4.63,3.1l-40.86,32c-21.48.45-39.46.68-42.16.28a27.69,27.69,0,0,1-14.65-6.58L303.63,187C311.08,188.32,320.8,191.25,326.44,195.08Z" style="fill: rgb(38, 50, 56); stroke: rgb(38, 50, 56); stroke-miterlimit: 10; transform-origin: 282.235px 208.833px 0px;" id="elwbrxohzk8s" class="animable"></path><path d="M362.08,218.74l-2.68,9.73c-6.83.2-15.85.45-25.82.71l16.24-18.55Z" style="fill: rgb(38, 50, 56); stroke: rgb(38, 50, 56); stroke-miterlimit: 10; transform-origin: 347.83px 219.905px 0px;" id="elf3numjnx5yv" class="animable"></path><path d="M317.17,258.54c1.63,1.66,3.21,3.41,4.71,5.27" style="fill: none; stroke: rgb(38, 50, 56); stroke-miterlimit: 10; transform-origin: 319.525px 261.175px 0px;" id="elsx1d1fibcl" class="animable"></path><path d="M277.58,234.81s20.32,6,36.77,21" style="fill: none; stroke: rgb(38, 50, 56); stroke-miterlimit: 10; transform-origin: 295.965px 245.31px 0px;" id="elomceuyjadsg" class="animable"></path><path d="M407.73,263.33a47.68,47.68,0,0,1,4.62,12.83" style="fill: none; stroke: rgb(38, 50, 56); stroke-miterlimit: 10; transform-origin: 410.04px 269.745px 0px;" id="el97v688te2rl" class="animable"></path><path d="M376.65,235.89s18,7,28.79,23.56" style="fill: none; stroke: rgb(38, 50, 56); stroke-miterlimit: 10; transform-origin: 391.045px 247.67px 0px;" id="ele8s1zal53ck" class="animable"></path><path d="M293.69,308.1c0,3.12-3,5.64-6.71,5.64s-6.71-2.52-6.71-5.64,3-5.64,6.71-5.64S293.69,305,293.69,308.1Z" style="fill: rgb(255, 255, 255); stroke: rgb(38, 50, 56); stroke-miterlimit: 10; transform-origin: 286.98px 308.1px 0px;" id="ela71g6eysifg" class="animable"></path><path d="M432.69,298.94c-.57,2.69-2.38,4.58-4.05,4.22s-2.56-2.81-2-5.5,2.38-4.57,4-4.22S433.26,296.26,432.69,298.94Z" style="fill: rgb(255, 255, 255); stroke: rgb(38, 50, 56); stroke-miterlimit: 10; transform-origin: 429.662px 298.301px 0px;" id="el2klq3hyljgp" class="animable"></path><path d="M202.05,231s-5.57-9.39-9.09-10-18.49-1.17-21.72.89-2.34,8.8-1.17,10.56,5.87,2.64,10,2.35,17.9.88,17.9.88,8.21,5.87,11.15,5.28,6.75-7,4.1-10.57S206.46,227.8,202.05,231Z" style="fill: rgb(38, 50, 56); stroke: rgb(38, 50, 56); stroke-miterlimit: 10; transform-origin: 191.558px 230.721px 0px;" id="ellwau1xo4qom" class="animable"></path><line x1="202.05" y1="231.03" x2="211.74" y2="233.09" style="fill: none; stroke: rgb(38, 50, 56); stroke-miterlimit: 10; transform-origin: 206.895px 232.06px 0px;" id="elpjqi8i76yok" class="animable"></line><path d="M131.34,186.72s-7,2.06-7.93,4.11-1.46,3.52-1.46,3.52l-21.13,30.81s-7.63-.58-10,5.87-1.46,15.26-1.46,15.26-5.58,13.79-5.87,24.06a108.92,108.92,0,0,0,.88,17.9s-1.47-18.78,2.93-24.65,13.5-1.46,17,9.1S112,302.92,112,302.92L205,322s-4.7-24.65,1.47-38.74,34.91-13.2,40.2,12.33,3.52,30.22,3.52,30.22,19.66,4.11,79.52,3.23,92.72-7.92,101.53-10.27c0,0,2-10.86,2.64-17.31a21,21,0,0,0-1.76-10.86s-.59-11.74-2.06-15.85-5.87-10.27-5.87-10.27-4.4-10.27-11.73-16.72-19.37-12.91-22.31-14.38-6.74-2.35-12.32-6.16-40.2-27.88-51.06-34.33-34.33-9.69-39-10.57-58.69-4.69-77.47-4.69S152.76,178.51,131.34,186.72Z" style="fill: none; stroke: rgb(38, 50, 56); stroke-miterlimit: 10; transform-origin: 258.712px 253.397px 0px;" id="el9ua10j4i0kk" class="animable"></path><path d="M401.88,240.18s-5.9,2.15-4.29,4.3,10.47,7.78,14.49,14.76,4.84,10.47,6.71,10.47,5.95-3.48,5.39-5.23S420.67,246.89,401.88,240.18Z" style="fill: rgb(255, 255, 255); stroke: rgb(38, 50, 56); stroke-miterlimit: 10; transform-origin: 410.772px 254.945px 0px;" id="elx3jrdszzg9a" class="animable"></path><path d="M106.49,294a48.78,48.78,0,0,0-.84-8.13l-4,4.84A22.31,22.31,0,0,1,102,294c0,.17,0,.33,0,.49l4.51,1.43C106.5,295.25,106.5,294.61,106.49,294Z" style="fill: rgb(38, 50, 56); stroke: rgb(38, 50, 56); stroke-miterlimit: 10; transform-origin: 104.08px 290.895px 0px;" id="elb756qgoe1l" class="animable"></path><path d="M99.45,285.1a6.84,6.84,0,0,1,1.13,1.77l2.79-8.37A11.57,11.57,0,0,0,100,274Z" style="fill: rgb(38, 50, 56); stroke: rgb(38, 50, 56); stroke-miterlimit: 10; transform-origin: 101.41px 280.435px 0px;" id="elp9kngg7ikx" class="animable"></path><path d="M101.41,299.4a11.05,11.05,0,0,1-.74,2.09l2.3,10a22.89,22.89,0,0,0,2.61-7.14Z" style="fill: rgb(38, 50, 56); stroke: rgb(38, 50, 56); stroke-miterlimit: 10; transform-origin: 103.125px 305.445px 0px;" id="eln4npu81gamk" class="animable"></path><path d="M94.66,288.75l-4-5.48a44.77,44.77,0,0,0-1,9.08l4.52.25A20,20,0,0,1,94.66,288.75Z" style="fill: rgb(38, 50, 56); stroke: rgb(38, 50, 56); stroke-miterlimit: 10; transform-origin: 92.16px 287.935px 0px;" id="elhnxerw717sn" class="animable"></path><path d="M96,285.42a3,3,0,0,1,1.08-1l-.66-11.1c-1.43.49-2.73,1.89-3.8,3.95Z" style="fill: rgb(38, 50, 56); stroke: rgb(38, 50, 56); stroke-miterlimit: 10; transform-origin: 94.85px 279.37px 0px;" id="el8vtzfb7k787" class="animable"></path><path d="M98.7,303.54a1.54,1.54,0,0,1-.43.06,1.92,1.92,0,0,1-1.19-.46l-2.22,9.58a5,5,0,0,0,3.65,2,3.7,3.7,0,0,0,1-.16Z" style="fill: rgb(38, 50, 56); stroke: rgb(38, 50, 56); stroke-miterlimit: 10; transform-origin: 97.185px 308.93px 0px;" id="elnl2sf7ie38c" class="animable"></path><path d="M94.63,298.07,90.15,300a35.7,35.7,0,0,0,2.19,8.37l2.87-8.25A15,15,0,0,1,94.63,298.07Z" style="fill: rgb(38, 50, 56); stroke: rgb(38, 50, 56); stroke-miterlimit: 10; transform-origin: 92.68px 303.22px 0px;" id="el0amzvr4h5g1o" class="animable"></path></g><g id="freepik--Muffler--inject-2" style="transform-origin: 397.017px 104.065px 0px;" class="animable"><path d="M371.53,97.58l-18.74,9.81-23.94,3.46s-7.49,7.21,2.89,20.47,18.16,17.59,21.63,17.59,19-5.48,21.62-7.21,21.34-15.57,21.34-15.57S405,131.9,418,122.38s47-37.77,47-37.77,4.9-3.18,1.73-9.52-12.12-12.69-18.46-15-14.71.58-17,1.73-52.49,24.52-52.49,24.52S369.8,89.51,371.53,97.58Z" style="fill: rgb(255, 255, 255); stroke: rgb(38, 50, 56); stroke-miterlimit: 10; transform-origin: 397.017px 104.065px 0px;" id="eltprfsvdhwlk" class="animable"></path><path d="M414.85,118.14a9,9,0,0,1-1.42,4.66" style="fill: none; stroke: rgb(38, 50, 56); stroke-miterlimit: 10; transform-origin: 414.14px 120.47px 0px;" id="eleqrv97s9o1f" class="animable"></path><path d="M381.11,87s14.41.48,24.24,11.88c4.72,5.49,7.47,10.17,8.71,14.06" style="fill: none; stroke: rgb(38, 50, 56); stroke-miterlimit: 10; transform-origin: 397.585px 99.97px 0px;" id="el37y347efl0y" class="animable"></path><path d="M373.82,96.35l7.61-2.7s10.45.64,17.26,7.29,7.13,14.58,6.5,17.11l-7.13,6.18" style="fill: none; stroke: rgb(38, 50, 56); stroke-miterlimit: 10; transform-origin: 389.615px 108.94px 0px;" id="elmff1kms4e8d" class="animable"></path><path d="M357.66,108.55s12.71,8.13,16.95,11.88c3.06,2.7,2.7,12.51,2.7,12.51" style="fill: none; stroke: rgb(38, 50, 56); stroke-miterlimit: 10; transform-origin: 367.492px 120.745px 0px;" id="ellrfcnxa9h2" class="animable"></path><path d="M329.15,114.15h0a3.43,3.43,0,0,0-1.16,2.49,23.1,23.1,0,0,0,2.52,10.73c3.37,6.85,18.27,17.73,20.56,18.6s3.81-.54,4.46-4.13-2.65-13.44-5.87-16.43c-1.45-1.34-11.6-8.47-16.25-11.57A3.49,3.49,0,0,0,329.15,114.15Z" style="fill: rgb(38, 50, 56); stroke: rgb(38, 50, 56); stroke-miterlimit: 10; transform-origin: 341.801px 129.739px 0px;" id="elq0lep7mk6pc" class="animable"></path><path d="M353.72,126.82l19.74-4.48L401.1,106s2-1.74-2.41-5.08a36.83,36.83,0,0,0-6.28-4.13l-27.63,16.32,6.58,4.48-22.38,5A44.52,44.52,0,0,1,353.72,126.82Z" style="fill: rgb(38, 50, 56); transform-origin: 375.266px 111.805px 0px;" id="elnfmkqghqaua" class="animable"></path><path d="M466.7,75.09c-1.83-3.65-5.56-7.29-9.61-10.17a4.75,4.75,0,0,0-2,0c-1.84.53-55.8,28.17-55.8,28.17,7.63,5,13.68,16.84,13.68,16.84S465.59,74.44,466.7,75.09Z" style="fill: rgb(38, 50, 56); transform-origin: 432.995px 87.3718px 0px;" id="elorkuwzfhv5f" class="animable"></path></g><g id="freepik--steering-wheel--inject-2" style="transform-origin: 253.4px 97.82px 0px;" class="animable"><path d="M275.84,126.74c-3.81-1.47-4.7-6.74-4.7-6.74s1.47-9.09,6.74-12.91,9.39-4.1,11.73-4.1c1.08,0,2.7,1.41,4.15,3a48.46,48.46,0,0,0,.08-15.79c-12.08.39-21.93-5.42-42-6.22-16.71-.65-32.44,5.78-39.25,9a39.63,39.63,0,0,0-.29,4.89,41.58,41.58,0,0,0,.86,8.41,26.32,26.32,0,0,1,3.5-1.81c3.52-1.47,12,3.22,13.19,4.11s4.4,7.62,4.4,7.62-3.22,6.15-8.21,7.33a16.12,16.12,0,0,1-4.41.44,41.14,41.14,0,0,0,11.48,9.68l.85-1c2.63-3.22,7-8.5,7-8.5s17,.88,19.35.88,4.4,3.23,5.28,7.33c.41,1.91.82,3.42,1.14,4.51a41.92,41.92,0,0,0,14.82-8.95A20.21,20.21,0,0,1,275.84,126.74Z" style="fill: rgb(38, 50, 56); stroke: rgb(38, 50, 56); stroke-miterlimit: 10; transform-origin: 253.374px 110.402px 0px;" id="el0f0oa1vxydr5" class="animable"></path><path d="M253.4,45.82a52,52,0,1,0,52,52A52,52,0,0,0,253.4,45.82Zm28.17,82.06a41.17,41.17,0,0,1-68.46-21.61,41.58,41.58,0,0,1-.86-8.41,39.63,39.63,0,0,1,.29-4.89,41.16,41.16,0,1,1,69,34.91Z" style="fill: #C6FF00; stroke: rgb(38, 50, 56); stroke-miterlimit: 10; transform-origin: 253.4px 97.82px 0px;" id="elzpic5jztwv" class="animable"></path><path d="M288.15,99.77a17.68,17.68,0,0,0-1.54-10.06c-9.3-1.33-18.8-5.15-34.82-5.78-12.49-.49-24.42,3-32.5,6.12a16.72,16.72,0,0,0-3,4.15c-1.18,2.64.29,6.74.29,6.74l33.13.59Z" style="fill: rgb(255, 255, 255); stroke: rgb(38, 50, 56); stroke-miterlimit: 10; transform-origin: 252.077px 92.7068px 0px;" id="eldfw3q4kbhxs" class="animable"></path><path d="M234.49,87.75s-3.52,1.17-2.93,9.38,5.57,18.18,9.09,20.52,15.83,3.52,19.64.88,8.8-21.69,8.21-26.09-2.93-5-5.86-5.57a84.07,84.07,0,0,0-25.51-.3A5.61,5.61,0,0,0,234.49,87.75Z" style="fill: rgb(207, 207, 207); stroke: rgb(38, 50, 56); stroke-miterlimit: 10; transform-origin: 250.021px 102.888px 0px;" id="elu16oydsofj" class="animable"></path><path d="M284,93.9c0,2.11-2.16,3.81-4.84,3.81s-4.83-1.7-4.83-3.81,2.16-3.81,4.83-3.81S284,91.8,284,93.9Z" style="fill: rgb(255, 255, 255); stroke: rgb(38, 50, 56); stroke-miterlimit: 10; transform-origin: 279.165px 93.9px 0px;" id="elkimuy97f38m" class="animable"></path><path d="M228.29,93.56c.28,2.08-1.64,4.06-4.29,4.41s-5-1-5.3-3.13,1.65-4.07,4.29-4.42S228,91.47,228.29,93.56Z" style="fill: rgb(255, 255, 255); stroke: rgb(38, 50, 56); stroke-miterlimit: 10; transform-origin: 223.493px 94.1957px 0px;" id="el378tobi8o9g" class="animable"></path></g><g id="freepik--Tire--inject-2" style="transform-origin: 105.605px 100.085px 0px;" class="animable"><path d="M115.82,46.56H95.39v4a53.58,53.58,0,0,0,0,99.05v4h20.43a53.57,53.57,0,0,0,0-107.14Z" style="fill: rgb(38, 50, 56); stroke: rgb(38, 50, 56); stroke-miterlimit: 10; transform-origin: 115.824px 100.04px 0px;" id="elcrn8j7uw24" class="animable"></path><circle cx="95.39" cy="100.13" r="53.57" style="fill: rgb(135, 135, 135); stroke: rgb(38, 50, 56); stroke-miterlimit: 10; transform-origin: 95.39px 100.13px 0px;" id="eleyy7bj9epz8" class="animable"></circle><circle cx="95.39" cy="100.13" r="46.23" style="fill: #C6FF00; stroke: rgb(38, 50, 56); stroke-miterlimit: 10; transform-origin: 95.39px 100.13px 0px;" id="eleglkxaqxye7" class="animable"></circle><path d="M109.43,61.4,105,82.22a1.92,1.92,0,0,0,.81,2,1.87,1.87,0,0,0,1.09.34,2,2,0,0,0,1.12-.35L125.46,72A41.31,41.31,0,0,0,109.43,61.4Zm25,25.56-19,9.51a1.94,1.94,0,0,0,.32,3.6l20.43,6a40.29,40.29,0,0,0,.44-6A41.22,41.22,0,0,0,134.43,87Zm-23.71,26.52a2,2,0,0,0-2.76,1.77,1.82,1.82,0,0,0,.15.72l8,19.74A41.42,41.42,0,0,0,130,122.42Zm-16.21,7a2,2,0,0,0-1.6-1.46l-.29,0a1.94,1.94,0,0,0-1.69,1L80.51,138.53a41.23,41.23,0,0,0,19,2.57Zm-15.4-10.5a1.93,1.93,0,0,0-1.68-1,1.63,1.63,0,0,0-.31,0l-21,3.44A41.18,41.18,0,0,0,66,128.92L79,112.1A2,2,0,0,0,79.11,109.94Zm-2-18.57L61.27,77.08a40.94,40.94,0,0,0-6.75,18l21.28-.31a2,2,0,0,0,1.77-1.23,2,2,0,0,0,.14-.72A1.93,1.93,0,0,0,77.07,91.37ZM73.87,65,87.38,81.44a2,2,0,0,0,1.5.72,1.88,1.88,0,0,0,.57-.09,2,2,0,0,0,1.37-1.73l1.31-21.26A40.79,40.79,0,0,0,73.87,65Z" style="fill: rgb(38, 50, 56); stroke: rgb(38, 50, 56); stroke-miterlimit: 10; transform-origin: 95.57px 100.193px 0px;" id="eljy3ocfvswfc" class="animable"></path><circle cx="95.39" cy="100.13" r="6.8" style="fill: #C6FF00; stroke: rgb(38, 50, 56); stroke-miterlimit: 10; transform-origin: 95.39px 100.13px 0px;" id="elet7rd3zfmxe" class="animable"></circle><path d="M86.2,101.29a4,4,0,1,0-4,4A4,4,0,0,0,86.2,101.29Z" style="fill: rgb(38, 50, 56); stroke: rgb(38, 50, 56); stroke-miterlimit: 10; transform-origin: 82.2px 101.29px 0px;" id="elhfasmzchlw5" class="animable"></path><path d="M94.16,88.86a4,4,0,1,0-4,4A4,4,0,0,0,94.16,88.86Z" style="fill: rgb(38, 50, 56); stroke: rgb(38, 50, 56); stroke-miterlimit: 10; transform-origin: 90.16px 88.86px 0px;" id="el9s0r0bp991v" class="animable"></path><path d="M110,91.78a4,4,0,1,0-4,4A4,4,0,0,0,110,91.78Z" style="fill: rgb(38, 50, 56); stroke: rgb(38, 50, 56); stroke-miterlimit: 10; transform-origin: 106px 91.78px 0px;" id="elab4pso9kgso" class="animable"></path><path d="M110.55,106.54a4,4,0,1,0-4,4A4,4,0,0,0,110.55,106.54Z" style="fill: rgb(38, 50, 56); stroke: rgb(38, 50, 56); stroke-miterlimit: 10; transform-origin: 106.55px 106.54px 0px;" id="el9uxa7ithbyh" class="animable"></path><path d="M97.14,112.37a4,4,0,1,0-4,4A4,4,0,0,0,97.14,112.37Z" style="fill: rgb(38, 50, 56); stroke: rgb(38, 50, 56); stroke-miterlimit: 10; transform-origin: 93.14px 112.37px 0px;" id="elflg2zivosbp" class="animable"></path></g><defs>     <filter id="active" height="200%">         <feMorphology in="SourceAlpha" result="DILATED" operator="dilate" radius="2"></feMorphology>                <feFlood flood-color="#32DFEC" flood-opacity="1" result="PINK"></feFlood>        <feComposite in="PINK" in2="DILATED" operator="in" result="OUTLINE"></feComposite>        <feMerge>            <feMergeNode in="OUTLINE"></feMergeNode>            <feMergeNode in="SourceGraphic"></feMergeNode>        </feMerge>    </filter>    <filter id="hover" height="200%">        <feMorphology in="SourceAlpha" result="DILATED" operator="dilate" radius="2"></feMorphology>                <feFlood flood-color="#ff0000" flood-opacity="0.5" result="PINK"></feFlood>        <feComposite in="PINK" in2="DILATED" operator="in" result="OUTLINE"></feComposite>        <feMerge>            <feMergeNode in="OUTLINE"></feMergeNode>            <feMergeNode in="SourceGraphic"></feMergeNode>        </feMerge>            <feColorMatrix type="matrix" values="0   0   0   0   0                0   1   0   0   0                0   0   0   0   0                0   0   0   1   0 "></feColorMatrix>    </filter></defs></svg>