<svg class="animated" id="freepik_stories-starman" xmlns="http://www.w3.org/2000/svg" viewBox="0 0 500 500" version="1.1" xmlns:xlink="http://www.w3.org/1999/xlink" xmlns:svgjs="http://svgjs.com/svgjs"><style>svg#freepik_stories-starman:not(.animated) .animable {opacity: 0;}svg#freepik_stories-starman.animated #freepik--background-complete--inject-2 {animation: 1s 1 forwards cubic-bezier(.36,-0.01,.5,1.38) slideLeft;animation-delay: 0s;}svg#freepik_stories-starman.animated #freepik--Shadow--inject-2 {animation: 1s 1 forwards cubic-bezier(.36,-0.01,.5,1.38) zoomOut;animation-delay: 0s;}svg#freepik_stories-starman.animated #freepik--Starman--inject-2 {animation: 1s 1 forwards cubic-bezier(.36,-0.01,.5,1.38) zoomOut;animation-delay: 0s;}            @keyframes slideLeft {                0% {                    opacity: 0;                    transform: translateX(-30px);                }                100% {                    opacity: 1;                    transform: translateX(0);                }            }                    @keyframes zoomOut {                0% {                    opacity: 0;                    transform: scale(1.5);                }                100% {                    opacity: 1;                    transform: scale(1);                }            }        </style><g id="freepik--background-complete--inject-2" style="transform-origin: 250px 227.45px 0px;" class="animable"><rect y="382.4" width="500" height="0.25" style="fill: rgb(235, 235, 235); transform-origin: 250px 382.525px 0px;" id="elreul25y8pz" class="animable"></rect><rect x="52.46" y="391.92" width="33.12" height="0.25" style="fill: rgb(235, 235, 235); transform-origin: 69.02px 392.045px 0px;" id="el6ilgbvl10zt" class="animable"></rect><rect x="171.14" y="389.21" width="46.75" height="0.25" style="fill: rgb(235, 235, 235); transform-origin: 194.515px 389.335px 0px;" id="el939kvuxouc" class="animable"></rect><rect x="112.8" y="399.65" width="19.19" height="0.25" style="fill: rgb(235, 235, 235); transform-origin: 122.395px 399.775px 0px;" id="el0texbrtfchmn" class="animable"></rect><rect x="312.33" y="395.31" width="30.21" height="0.25" style="fill: rgb(235, 235, 235); transform-origin: 327.435px 395.435px 0px;" id="el70xcd54fjhu" class="animable"></rect><rect x="351.44" y="395.31" width="19.32" height="0.25" style="fill: rgb(235, 235, 235); transform-origin: 361.1px 395.435px 0px;" id="elvsmkz8n5l8j" class="animable"></rect><rect x="391.35" y="399.53" width="58.56" height="0.25" style="fill: rgb(235, 235, 235); transform-origin: 420.63px 399.655px 0px;" id="elg4nyc6bzmf6" class="animable"></rect><path d="M237,337.8H43.91a5.71,5.71,0,0,1-5.7-5.71V60.66A5.71,5.71,0,0,1,43.91,55H237a5.71,5.71,0,0,1,5.71,5.71V332.09A5.71,5.71,0,0,1,237,337.8ZM43.91,55.2a5.46,5.46,0,0,0-5.45,5.46V332.09a5.46,5.46,0,0,0,5.45,5.46H237a5.47,5.47,0,0,0,5.46-5.46V60.66A5.47,5.47,0,0,0,237,55.2Z" style="fill: rgb(235, 235, 235); transform-origin: 140.46px 196.4px 0px;" id="elgix6ycmyzin" class="animable"></path><path d="M453.31,337.8H260.21a5.72,5.72,0,0,1-5.71-5.71V60.66A5.72,5.72,0,0,1,260.21,55h193.1A5.71,5.71,0,0,1,459,60.66V332.09A5.71,5.71,0,0,1,453.31,337.8ZM260.21,55.2a5.47,5.47,0,0,0-5.46,5.46V332.09a5.47,5.47,0,0,0,5.46,5.46h193.1a5.47,5.47,0,0,0,5.46-5.46V60.66a5.47,5.47,0,0,0-5.46-5.46Z" style="fill: rgb(235, 235, 235); transform-origin: 356.75px 196.4px 0px;" id="el77jhynvtlcu" class="animable"></path><path d="M90.68,345.41l-.85,1.71a.66.66,0,0,1-.51.37l-1.89.28a.68.68,0,0,0-.38,1.16l1.37,1.34a.7.7,0,0,1,.2.6l-.33,1.89a.69.69,0,0,0,1,.72l1.69-.89a.66.66,0,0,1,.64,0l1.69.89a.68.68,0,0,0,1-.72L94,350.87a.67.67,0,0,1,.2-.6l1.36-1.34a.68.68,0,0,0-.37-1.16l-1.89-.28a.67.67,0,0,1-.52-.37l-.84-1.71A.69.69,0,0,0,90.68,345.41Z" style="fill: rgb(245, 245, 245); transform-origin: 91.3057px 349.284px 0px;" id="eljjni5q0kot" class="animable"></path><path d="M432.5,366.59l-.84,1.71a.69.69,0,0,1-.52.37l-1.89.28a.68.68,0,0,0-.38,1.16l1.37,1.34a.71.71,0,0,1,.2.6l-.33,1.89a.69.69,0,0,0,1,.72l1.7-.89a.64.64,0,0,1,.63,0l1.69.89a.68.68,0,0,0,1-.72l-.32-1.89a.68.68,0,0,1,.2-.6l1.36-1.34A.68.68,0,0,0,437,369l-1.89-.28a.67.67,0,0,1-.52-.37l-.84-1.71A.69.69,0,0,0,432.5,366.59Z" style="fill: rgb(240, 240, 240); transform-origin: 433.101px 370.481px 0px;" id="el699j1ckw6g" class="animable"></path><path d="M437,164.27,436.1,166a.68.68,0,0,1-.51.37l-1.89.27a.69.69,0,0,0-.38,1.17l1.37,1.33a.69.69,0,0,1,.19.61l-.32,1.88a.68.68,0,0,0,1,.72l1.69-.89a.72.72,0,0,1,.64,0l1.69.89a.68.68,0,0,0,1-.72l-.32-1.88a.69.69,0,0,1,.19-.61l1.37-1.33a.69.69,0,0,0-.38-1.17l-1.89-.27A.68.68,0,0,1,439,166l-.85-1.72A.68.68,0,0,0,437,164.27Z" style="fill: rgb(240, 240, 240); transform-origin: 437.57px 168.197px 0px;" id="ellcw9ojrhvv" class="animable"></path><path d="M427.11,105.13l-.51,1a.4.4,0,0,1-.31.22l-1.13.17a.4.4,0,0,0-.22.69l.82.8a.4.4,0,0,1,.11.36l-.19,1.13a.41.41,0,0,0,.59.43l1-.53a.37.37,0,0,1,.38,0l1,.53a.41.41,0,0,0,.6-.43l-.2-1.13a.4.4,0,0,1,.12-.36l.82-.8a.4.4,0,0,0-.23-.69l-1.13-.17a.42.42,0,0,1-.31-.22l-.5-1A.4.4,0,0,0,427.11,105.13Z" style="fill: rgb(240, 240, 240); transform-origin: 427.464px 107.447px 0px;" id="el3gp8nh4kn9x" class="animable"></path><path d="M379,343.2l-.5,1a.42.42,0,0,1-.31.22l-1.13.17a.4.4,0,0,0-.23.69l.82.8a.4.4,0,0,1,.12.36l-.2,1.13a.41.41,0,0,0,.6.43l1-.53a.37.37,0,0,1,.38,0l1,.53a.41.41,0,0,0,.59-.43l-.19-1.13a.4.4,0,0,1,.11-.36l.82-.8a.4.4,0,0,0-.22-.69l-1.13-.17a.4.4,0,0,1-.31-.22l-.51-1A.4.4,0,0,0,379,343.2Z" style="fill: rgb(245, 245, 245); transform-origin: 379.356px 345.517px 0px;" id="el6fhz28sxwdo" class="animable"></path><path d="M61.16,97.56l-.5,1a.42.42,0,0,1-.31.22L59.22,99a.4.4,0,0,0-.23.69l.82.8a.4.4,0,0,1,.12.36l-.2,1.13a.42.42,0,0,0,.6.43l1-.53a.37.37,0,0,1,.38,0l1,.53a.41.41,0,0,0,.59-.43l-.19-1.13a.4.4,0,0,1,.12-.36l.81-.8a.4.4,0,0,0-.22-.69l-1.13-.17a.4.4,0,0,1-.31-.22l-.51-1A.41.41,0,0,0,61.16,97.56Z" style="fill: rgb(245, 245, 245); transform-origin: 61.5156px 99.9161px 0px;" id="eluu8hqtjg95" class="animable"></path><path d="M89.17,213.29l-.5,1a.41.41,0,0,1-.31.23l-1.13.16a.41.41,0,0,0-.23.7l.82.8a.39.39,0,0,1,.12.36l-.2,1.12a.41.41,0,0,0,.6.43l1-.53a.42.42,0,0,1,.38,0l1,.53a.4.4,0,0,0,.59-.43l-.19-1.12a.39.39,0,0,1,.11-.36l.82-.8a.41.41,0,0,0-.22-.7l-1.13-.16a.39.39,0,0,1-.31-.23l-.51-1A.41.41,0,0,0,89.17,213.29Z" style="fill: rgb(240, 240, 240); transform-origin: 89.5257px 215.614px 0px;" id="el1ojqjc5t451" class="animable"></path><path d="M182.29,99.89a1.33,1.33,0,1,0,1.33-1.33A1.32,1.32,0,0,0,182.29,99.89Z" style="fill: rgb(240, 240, 240); transform-origin: 183.62px 99.89px 0px;" id="ellpbpzf73fdk" class="animable"></path><circle cx="188.55" cy="366.13" r="1.33" style="fill: rgb(245, 245, 245); transform-origin: 188.55px 366.13px 0px;" id="elul21xvdw6xf" class="animable"></circle><circle cx="116.73" cy="189.45" r="1.33" style="fill: rgb(240, 240, 240); transform-origin: 116.73px 189.45px 0px;" id="elr139gb048q" class="animable"></circle><path d="M407.53,180.17A119.68,119.68,0,0,1,237.88,308.41h0a119.85,119.85,0,0,1-54.51-52.79,118,118,0,0,1-9-22.71,120.39,120.39,0,0,1-2.74-12.15,117.55,117.55,0,0,1-1.51-12.93,119.68,119.68,0,0,1,236.51-32.25C407,177.1,407.27,178.62,407.53,180.17Z" style="fill: rgb(240, 240, 240); transform-origin: 289.581px 200.489px 0px;" id="elwvyv01kp0ja" class="animable"></path><path d="M406.64,175.57l-7.82-4,1.38,22.75L383,184.4l-15.66-19.56-31-3.77,6,5.22,16.27.06,12.2,10-20.6,8.38-30.33-10.26,23,15.82,14,3.5-6.34,9.4-5.95,28.49,5.48,8.65s-8.63,15-9.91,16-20.34,31-20.34,31l-5.91-40.72-12.66-27.32-25.05,13-28.74-8.43.69-35.9,8-10.27,11.94-2,41.6-3-3.09-6.43-28.86-10.13-14,3.5L255.26,169l-6.67,1.15,4.52-17.76,7.74-8.62L280,128.2,299,126.75,325.62,120s17.95-14.49,26.58-21.5A119.25,119.25,0,0,1,406.64,175.57Z" style="fill: rgb(224, 224, 224); transform-origin: 327.05px 192.915px 0px;" id="elx2uatm2tuw" class="animable"></path><path d="M367,291.76a119.73,119.73,0,0,1-129.12,16.65L257,309.62,276.39,315l41.43-7.13,31.55-14.1Z" style="fill: rgb(224, 224, 224); transform-origin: 302.44px 305.957px 0px;" id="el8mvi1tqbvnm" class="animable"></path><polygon points="217.83 113.55 207.62 121.06 217.97 127.71 221.88 150.44 264.17 122.07 262.7 113.5 245.81 115.64 217.83 113.55" style="fill: rgb(224, 224, 224); transform-origin: 235.895px 131.97px 0px;" id="eln6x6rw4bczp" class="animable"></polygon><path d="M211.2,141.85,210.87,161,197.8,177.4l-15,15.94-4.61,13.09-8.09,1.39a119.19,119.19,0,0,1,25.57-81.57Z" style="fill: rgb(224, 224, 224); transform-origin: 190.532px 167.035px 0px;" id="eljbp0zsvyzo" class="animable"></path><path d="M238.49,256.42l-8.88,15.63,3.93,10.15,1.09,6.32,3.5,9.89-5.21-.91-14.24-11.29L201.8,265.82l-14.6-9.25-3.86-1a118,118,0,0,1-9-22.71l5.21,2.57L193.68,227l14.73-2.53,8.39,10.9L227,243.94l15,1.21Z" style="fill: rgb(224, 224, 224); transform-origin: 208.17px 261.44px 0px;" id="elajpqo9tcoqw" class="animable"></path><g id="elvh38zxlk66c"><circle cx="112.21" cy="139.62" r="28.53" style="fill: rgb(245, 245, 245); transform-origin: 112.21px 139.62px 0px; transform: rotate(-9.22deg);" class="animable"></circle></g><path d="M110.37,115.39a6.46,6.46,0,0,0-4.51,3.18,16.19,16.19,0,0,1,4.79-1.61,16.63,16.63,0,0,1,5.06-.12A6.48,6.48,0,0,0,110.37,115.39Z" style="fill: rgb(240, 240, 240); transform-origin: 110.785px 116.93px 0px;" id="elez3w7jyhyne" class="animable"></path><path d="M133.74,127a6.45,6.45,0,0,0-4.55-3.13,16.27,16.27,0,0,1,3.17,3.94,16.54,16.54,0,0,1,1.87,4.7A6.51,6.51,0,0,0,133.74,127Z" style="fill: rgb(240, 240, 240); transform-origin: 131.907px 128.19px 0px;" id="eltb7qvc1wzi" class="animable"></path><path d="M127.91,147a6.47,6.47,0,0,0-2.2-5.06,16.24,16.24,0,0,1,.6,5,16.43,16.43,0,0,1-.9,5A6.46,6.46,0,0,0,127.91,147Z" style="fill: rgb(240, 240, 240); transform-origin: 126.662px 146.94px 0px;" id="eld7i5xvljn9r" class="animable"></path><path d="M102.94,156a6.5,6.5,0,0,0,5.16,2,16.49,16.49,0,0,1-4-3.07,16.81,16.81,0,0,1-2.94-4.12A6.46,6.46,0,0,0,102.94,156Z" style="fill: rgb(240, 240, 240); transform-origin: 104.611px 154.413px 0px;" id="elw0rdrm3hd6l" class="animable"></path><path d="M100.83,128.61a6.5,6.5,0,0,0-2.47,4.94,16.88,16.88,0,0,1,7.86-6.19A6.49,6.49,0,0,0,100.83,128.61Z" style="fill: rgb(240, 240, 240); transform-origin: 102.29px 130.382px 0px;" id="el2e3pk121tbb" class="animable"></path><path d="M115.27,131.78a6.47,6.47,0,0,0-2.47,4.93,16.37,16.37,0,0,1,3.46-3.68,16.54,16.54,0,0,1,4.4-2.5A6.45,6.45,0,0,0,115.27,131.78Z" style="fill: rgb(240, 240, 240); transform-origin: 116.73px 133.545px 0px;" id="elgmbrx8im4fw" class="animable"></path><path d="M87.93,144.06a6.48,6.48,0,0,0,3.36,4.38,16.42,16.42,0,0,1-1.8-4.72,16.85,16.85,0,0,1-.33-5.05A6.48,6.48,0,0,0,87.93,144.06Z" style="fill: rgb(240, 240, 240); transform-origin: 89.5344px 143.555px 0px;" id="elvmg1xuvcey8" class="animable"></path></g><g id="freepik--Shadow--inject-2" style="transform-origin: 250px 416.24px 0px;" class="animable"><ellipse id="freepik--path--inject-2" cx="250" cy="416.24" rx="193.89" ry="11.32" style="fill: rgb(245, 245, 245); transform-origin: 250px 416.24px 0px;" class="animable"></ellipse></g><g id="freepik--Starman--inject-2" style="transform-origin: 253.649px 255.497px 0px;" class="animable"><path d="M264.25,199.43c1.44.44,5.82-1.37,7.47-3.1s-2.06-7.87-4.82-6.74C263.2,191.09,261.71,198.65,264.25,199.43Z" style="fill: rgb(38, 50, 56); transform-origin: 267.557px 194.475px 0px;" id="elipfjlg7jd4" class="animable"></path><path d="M261.53,222.51l-.44,1-.42.87-.89,1.7c-.6,1.12-1.24,2.22-1.9,3.31a64.45,64.45,0,0,1-4.43,6.37,44.15,44.15,0,0,1-5.67,6A28.08,28.08,0,0,1,244,244.5a26.28,26.28,0,0,1-4.29,2.07A33.7,33.7,0,0,1,223,247.86a49,49,0,0,1-7.54-1.78c-1.21-.4-2.41-.82-3.59-1.3-.58-.24-1.17-.49-1.75-.76s-1.12-.53-1.79-.87l2.46-6.75,1.56.21,1.64.2c1.1.12,2.19.24,3.29.3a55.39,55.39,0,0,0,6.42.13,35.44,35.44,0,0,0,6-.72,26.2,26.2,0,0,0,2.68-.73,17.35,17.35,0,0,0,2.35-1,11.33,11.33,0,0,0,3.65-2.92,40.69,40.69,0,0,0,3.56-4.61c1.15-1.71,2.28-3.53,3.35-5.39.56-.92,1.08-1.87,1.61-2.81h0a2.11,2.11,0,0,1,2.65-1.05Z" style="fill: rgb(198, 255, 0); transform-origin: 234.93px 233.121px 0px;" id="elulpts1xn8tk" class="animable"></path><g id="elwk823e2smu"><path d="M261.53,222.51l-.44,1-.42.87-.89,1.7c-.6,1.12-1.24,2.22-1.9,3.31a64.45,64.45,0,0,1-4.43,6.37,44.15,44.15,0,0,1-5.67,6A28.08,28.08,0,0,1,244,244.5a26.28,26.28,0,0,1-4.29,2.07A33.7,33.7,0,0,1,223,247.86a49,49,0,0,1-7.54-1.78c-1.21-.4-2.41-.82-3.59-1.3-.58-.24-1.17-.49-1.75-.76s-1.12-.53-1.79-.87l2.46-6.75,1.56.21,1.64.2c1.1.12,2.19.24,3.29.3a55.39,55.39,0,0,0,6.42.13,35.44,35.44,0,0,0,6-.72,26.2,26.2,0,0,0,2.68-.73,17.35,17.35,0,0,0,2.35-1,11.33,11.33,0,0,0,3.65-2.92,40.69,40.69,0,0,0,3.56-4.61c1.15-1.71,2.28-3.53,3.35-5.39.56-.92,1.08-1.87,1.61-2.81h0a2.11,2.11,0,0,1,2.65-1.05Z" style="fill: rgb(255, 255, 255); opacity: 0.3; transform-origin: 234.93px 233.121px 0px;" class="animable"></path></g><g id="elwjbpwr2hv1s"><path d="M244.24,232.39A51.51,51.51,0,0,0,234.05,248a29.1,29.1,0,0,0,5.69-1.43A25.71,25.71,0,0,0,244,244.5a28.08,28.08,0,0,0,3.76-2.75,44.68,44.68,0,0,0,5.67-6c.6-.76,1.18-1.52,1.73-2.3C251.74,231.66,246.84,229.88,244.24,232.39Z" style="opacity: 0.1; transform-origin: 244.605px 239.574px 0px;" class="animable"></path></g><path d="M247.1,218.69c-3.7,6-10.09,19.22-11.94,41.15l31.72,10.05c1.48-4,4.41-23.11,14.06-41a3.86,3.86,0,0,0-1.45-5.2,43.14,43.14,0,0,0-6.62-3.16,139.33,139.33,0,0,0-13.48-4.28c-1.79-.41-3.57-.72-5.11-.94A7.22,7.22,0,0,0,247.1,218.69Z" style="fill: rgb(198, 255, 0); transform-origin: 258.289px 242.564px 0px;" id="elnb0ql9xoh3" class="animable"></path><g id="elhp6rrto1ly"><path d="M247.1,218.69c-3.7,6-10.09,19.22-11.94,41.15l31.72,10.05c1.48-4,4.41-23.11,14.06-41a3.86,3.86,0,0,0-1.45-5.2,43.14,43.14,0,0,0-6.62-3.16,139.33,139.33,0,0,0-13.48-4.28c-1.79-.41-3.57-.72-5.11-.94A7.22,7.22,0,0,0,247.1,218.69Z" style="fill: rgb(255, 255, 255); opacity: 0.3; transform-origin: 258.289px 242.564px 0px;" class="animable"></path></g><path d="M249.36,241.68l-.91-9.31a1,1,0,0,1,.33-.87l7.72-7.1a1,1,0,0,1,1.74.66l.91,9.32a1.06,1.06,0,0,1-.33.87l-7.72,7.1A1,1,0,0,1,249.36,241.68Z" style="fill: rgb(255, 255, 255); transform-origin: 253.799px 233.375px 0px;" id="elxrolo5lf9w" class="animable"></path><g id="elkmvs2vh2jz"><path d="M273.9,233.25c-1.15,2.41-1.11,8.2-.15,12.16.93-2.66,2-5.42,3.19-8.2Z" style="opacity: 0.1; transform-origin: 274.987px 239.33px 0px;" class="animable"></path></g><path d="M274.1,206.24c-2,3.58-4.92,10.34-3.06,13.74,0,0-1.73,2.26-7.54.2-4.13-1.47-4.33-4-4.33-4,4.58.34,5.47-2.86,5.67-6.06Z" style="fill: rgb(255, 195, 189); transform-origin: 266.635px 213.643px 0px;" id="elv8o1ctodwrn" class="animable"></path><g id="el3t44bvmaex"><path d="M270.33,207.84l-5.48,2.31a13.34,13.34,0,0,1-.3,2.22c1.7.28,4.5-.79,5.21-2.44A6,6,0,0,0,270.33,207.84Z" style="opacity: 0.2; transform-origin: 267.44px 210.127px 0px;" class="animable"></path></g><path d="M277.4,201.75c-2.53,4.81-3.77,7.75-7.41,9.17-5.47,2.12-10.56-2.89-9.52-8.36.94-4.92,4.92-12,10.65-11.75A7.42,7.42,0,0,1,277.4,201.75Z" style="fill: rgb(255, 195, 189); transform-origin: 269.312px 201.11px 0px;" id="el7u98qjdxyef" class="animable"></path><path d="M274.66,204.61c-.79-1.27-.16-6,1.1-8s8.13,0,7.75,3C283,203.51,276.07,206.87,274.66,204.61Z" style="fill: rgb(38, 50, 56); transform-origin: 278.918px 200.572px 0px;" id="eln19vsq05f8" class="animable"></path><path d="M276.85,196.49c-11-2.91-7.21-8.51-11.41-8.29s-2.63,2.47-2.63,2.47-3.84-2.27,1.34-4.14,3.39.3,6.57.6c3.46.33,7-2.1,8.3,1.07s1.87,5.29,3.79,5.67c3.53.7,1,8-1.81,5.79Z" style="fill: rgb(38, 50, 56); transform-origin: 272.989px 192.927px 0px;" id="elp43zdjxsh3" class="animable"></path><path d="M277.47,206.73a4.3,4.3,0,0,1-3.11,1.1c-1.51-.09-1.77-1.56-.94-2.73s2.43-2.27,3.75-1.6A1.93,1.93,0,0,1,277.47,206.73Z" style="fill: rgb(255, 195, 189); transform-origin: 275.581px 205.566px 0px;" id="el6q37z9mkubv" class="animable"></path><path d="M269.27,199.76c-.18.4-.54.63-.8.51s-.33-.54-.15-.94.54-.64.81-.52S269.46,199.35,269.27,199.76Z" style="fill: rgb(38, 50, 56); transform-origin: 268.8px 199.54px 0px;" id="elk4pz9aata9a" class="animable"></path><path d="M264.72,197.71c-.18.4-.54.63-.8.51s-.33-.54-.15-.94.54-.64.8-.52S264.9,197.3,264.72,197.71Z" style="fill: rgb(38, 50, 56); transform-origin: 264.245px 197.49px 0px;" id="elx1pfr0luycr" class="animable"></path><path d="M266.08,198.56a15.89,15.89,0,0,1-3.47,2.58,2.54,2.54,0,0,0,1.76,1.22Z" style="fill: rgb(237, 132, 126); transform-origin: 264.345px 200.46px 0px;" id="elxp1iv03d23" class="animable"></path><path d="M267.38,204.3A3.79,3.79,0,0,1,265,204a.13.13,0,0,1-.07-.17.14.14,0,0,1,.18-.06,3.5,3.5,0,0,0,3.16-.08.13.13,0,0,1,.14.22A3.19,3.19,0,0,1,267.38,204.3Z" style="fill: rgb(38, 50, 56); transform-origin: 266.695px 204.021px 0px;" id="el601ucxwhchv" class="animable"></path><path d="M271.46,198.92a.26.26,0,0,1-.3-.19,2.11,2.11,0,0,0-1.16-1.48.25.25,0,0,1-.15-.33.26.26,0,0,1,.33-.15,2.56,2.56,0,0,1,1.49,1.84.26.26,0,0,1-.2.31Z" style="fill: rgb(38, 50, 56); transform-origin: 270.754px 197.84px 0px;" id="eluxhfq70se6" class="animable"></path><path d="M263.59,195.26a.26.26,0,0,1-.25-.08.27.27,0,0,1,0-.37,2.6,2.6,0,0,1,2.3-.57.26.26,0,0,1-.15.5,2.06,2.06,0,0,0-1.81.47A.21.21,0,0,1,263.59,195.26Z" style="fill: rgb(38, 50, 56); transform-origin: 264.546px 194.719px 0px;" id="ely4vgadyr1b" class="animable"></path><g id="elf11gc7b66lu"><circle cx="269.89" cy="203.24" r="19.69" style="fill: rgb(38, 50, 56); opacity: 0.2; transform-origin: 269.89px 203.24px 0px; transform: rotate(-31.64deg);" class="animable"></circle></g><g id="elinil1sx1l8"><path d="M265.21,184.11,272,222.82a19,19,0,0,0,3.92-.83l-6.71-38.43A18.69,18.69,0,0,0,265.21,184.11Z" style="fill: rgb(255, 255, 255); opacity: 0.2; transform-origin: 270.565px 203.19px 0px;" class="animable"></path></g><g id="elpgb01iy38hn"><path d="M270.75,183.56l6.61,37.9a19.84,19.84,0,0,0,2-1,18.66,18.66,0,0,0,3.46-2.43l-5.8-33.17A19.7,19.7,0,0,0,270.75,183.56Z" style="fill: rgb(255, 255, 255); opacity: 0.2; transform-origin: 276.785px 202.51px 0px;" class="animable"></path></g><path d="M289.66,209.51a20.73,20.73,0,0,1-38.16,3.3,1.46,1.46,0,0,1,1.92-2l.22.1c12.75,5.7,26.77,5.7,31.33,0s-2.09-14.91-14.83-20.6a50.89,50.89,0,0,0-9-3.05,1.46,1.46,0,0,1-.27-2.75,20.73,20.73,0,0,1,28.77,24.95Z" style="fill: rgb(198, 255, 0); transform-origin: 270.973px 203.216px 0px;" id="elk5f4knlu68" class="animable"></path><g id="elpofv9mx0b8h"><path d="M289.66,209.51a20.73,20.73,0,0,1-38.16,3.3,1.46,1.46,0,0,1,1.92-2l.22.1c12.75,5.7,26.77,5.7,31.33,0s-2.09-14.91-14.83-20.6a50.89,50.89,0,0,0-9-3.05,1.46,1.46,0,0,1-.27-2.75,20.73,20.73,0,0,1,28.77,24.95Z" style="fill: rgb(255, 255, 255); opacity: 0.3; transform-origin: 270.973px 203.216px 0px;" class="animable"></path></g><g id="el6p40dxch6zk"><path d="M269.91,224.7a21.46,21.46,0,0,1-15.46-6.55.73.73,0,0,1,0-1,.72.72,0,0,1,1,0,20.09,20.09,0,0,0,18.87,5.61.72.72,0,0,1,.33,1.41A21.43,21.43,0,0,1,269.91,224.7Z" style="fill: rgb(38, 50, 56); opacity: 0.5; transform-origin: 264.731px 220.824px 0px;" class="animable"></path></g><path d="M267.29,272.09c-21.05-4-33.76-10.75-34.29-11l2.05-3.84c.12.07,12.71,6.68,33.07,10.6Z" style="fill: rgb(38, 50, 56); transform-origin: 250.56px 264.67px 0px;" id="eleovo58ws3w4" class="animable"></path><path d="M211.15,245.18l3.25-8.83s-11.08-5-13.85-.95S202.06,242.08,211.15,245.18Z" style="fill: rgb(198, 255, 0); transform-origin: 207.058px 239.499px 0px;" id="elgzo9tojaewt" class="animable"></path><g id="elnut5fp8cdas"><path d="M211.15,245.18l3.25-8.83s-11.08-5-13.85-.95S202.06,242.08,211.15,245.18Z" style="fill: rgb(255, 255, 255); opacity: 0.3; transform-origin: 207.058px 239.499px 0px;" class="animable"></path></g><path d="M209.72,236.37l4.28.85s-2.32-7.56-4.19-7.3S208,232.48,209.72,236.37Z" style="fill: rgb(198, 255, 0); transform-origin: 211.209px 233.567px 0px;" id="elkxdn4ku4aej" class="animable"></path><g id="elcptvecowdhq"><path d="M209.72,236.37l4.28.85s-2.32-7.56-4.19-7.3S208,232.48,209.72,236.37Z" style="fill: rgb(255, 255, 255); opacity: 0.3; transform-origin: 211.209px 233.567px 0px;" class="animable"></path></g><g id="el87eifzxcy5"><path d="M266.2,260.48A.4.4,0,0,1,266,260a.36.36,0,1,1,.67.19A.42.42,0,0,1,266.2,260.48Z" style="opacity: 0.2; transform-origin: 266.35px 260.066px 0px;" class="animable"></path></g><g id="eli7dk3lxc23g"><path d="M265.68,262.31a.4.4,0,0,1-.21-.53.41.41,0,0,1,.46-.34.41.41,0,0,1,.21.53A.42.42,0,0,1,265.68,262.31Z" style="opacity: 0.2; transform-origin: 265.804px 261.874px 0px;" class="animable"></path></g><g id="el21xg4328gye"><path d="M265.16,264.14a.46.46,0,0,1,.24-.87.46.46,0,0,1-.24.87Z" style="opacity: 0.2; transform-origin: 265.28px 263.705px 0px;" class="animable"></path></g><g id="elvkapuosvolo"><path d="M266.93,261.68a.41.41,0,0,1-.21-.53.4.4,0,0,1,.46-.34.41.41,0,0,1,.21.53A.42.42,0,0,1,266.93,261.68Z" style="opacity: 0.2; transform-origin: 267.055px 261.244px 0px;" class="animable"></path></g><g id="el3brllva1and"><path d="M266.41,263.5a.42.42,0,0,1-.22-.53c.07-.24.28-.39.46-.33a.42.42,0,0,1,.22.53C266.8,263.41,266.59,263.56,266.41,263.5Z" style="opacity: 0.2; transform-origin: 266.53px 263.07px 0px;" class="animable"></path></g><g id="eltd3ik84qy7"><path d="M265.89,265.33a.42.42,0,0,1-.22-.53c.07-.24.28-.39.46-.33a.4.4,0,0,1,.21.53C266.28,265.23,266.07,265.39,265.89,265.33Z" style="opacity: 0.2; transform-origin: 266.009px 264.9px 0px;" class="animable"></path></g><path d="M216,236.11l-.91-.15a4.71,4.71,0,0,1-1.42-.5h0a.82.82,0,0,0-1.16.39l-3.4,8.15a.82.82,0,0,0,.34,1l1.19.72a5.1,5.1,0,0,0,.92.42l2.11.67a.81.81,0,0,0,1-.61l2-9.12A.83.83,0,0,0,216,236.11Z" style="fill: rgb(38, 50, 56); transform-origin: 212.869px 241.095px 0px;" id="eldm43hnjjr9u" class="animable"></path><polygon points="427.43 269.49 119.91 225.35 91.47 243.85 87.3 272.87 420.08 320.64 427.43 269.49" id="elxifvbe9clsk" style="transform-origin: 257.365px 272.995px 0px;" class="animable"></polygon><g id="eladsxiig4mdm"><polygon points="427.43 269.49 119.91 225.35 91.47 243.85 87.3 272.87 420.08 320.64 427.43 269.49" style="fill: rgb(198, 255, 0); opacity: 0.6; transform-origin: 257.365px 272.995px 0px;" class="animable"></polygon></g><path d="M185.61,219.91c8.24-6,37.33-27.92,45.19-26.8l3.6.52c1.41.2-1.89,1.31-7.56,5.47-7.12,5.23-27.77,21.13-30.46,26.12C187.84,224,185.61,219.91,185.61,219.91Z" style="fill: rgb(38, 50, 56); transform-origin: 210.167px 209.144px 0px;" id="el4krjb9b2xdc" class="animable"></path><path d="M194.77,219.8c14.7-.56,19.32-.69,21.89,2.49s2.84,11.52,2.84,11.52l-26-9.46Z" style="fill: rgb(38, 50, 56); transform-origin: 206.5px 226.649px 0px;" id="elhwhngq80g7" class="animable"></path><path d="M318.36,233.65c-18.06-10.83-23.9-14.4-29.26-11.55-9.78,5.19-3.1,17.47-3.1,17.47l30.79,1.22Z" style="fill: rgb(38, 50, 56); transform-origin: 301.067px 230.975px 0px;" id="el0lofz3deth8" class="animable"></path><path d="M224.14,237.23h0a1.57,1.57,0,0,1-1.87-1.16l-4.81-20.67a1.56,1.56,0,0,1,1.16-1.87h0a1.57,1.57,0,0,1,1.87,1.16l4.81,20.67A1.55,1.55,0,0,1,224.14,237.23Z" style="fill: rgb(38, 50, 56); transform-origin: 221.381px 225.38px 0px;" id="eli60uffl76s" class="animable"></path><path d="M444.55,272.18c-4.24,6.13-5.82,28.79-10,36.95s-7,16.05-25.49,13.4h0a1.26,1.26,0,0,1-.84-2,33.41,33.41,0,1,0-58.65-8.41,1.27,1.27,0,0,1-1.37,1.67L158.75,286.6a1.25,1.25,0,0,1-.84-2,33.41,33.41,0,1,0-58.65-8.42,1.26,1.26,0,0,1-1.36,1.67l-11-1.57a14.18,14.18,0,0,1-2-.46l-14-4.36a13.09,13.09,0,0,1-8.79-9.24c-2.06-8-3.62-20.36,4.66-24.77,51.6-27.44,97.47-23.72,130.65-17.16,51.09,19.46,120.38,22.33,128.38,1.81,24.64,3.54,101.94,35.85,111.79,37.61S448.8,266.05,444.55,272.18Z" style="fill: rgb(198, 255, 0); transform-origin: 253.649px 269.321px 0px;" id="el1cu7emik4ul" class="animable"></path><g id="elf69qvydsdsj"><path d="M133.75,222.77c23.71-5.61,59.13.39,78.42,11.17C205.75,233.8,161.91,223.68,133.75,222.77Z" style="fill: rgb(255, 255, 255); opacity: 0.1; transform-origin: 172.96px 227.284px 0px;" class="animable"></path></g><g id="elj4ir80x51q"><path d="M322.74,233.45a20.31,20.31,0,0,1-7.08,4.23,1.15,1.15,0,0,0,.3,2.24c12.79,1.58,38.8,4.37,56.69,4.66a1.45,1.45,0,1,0,.27-2.88c-18.65-3.12-44.52-7.76-49.05-8.57A1.28,1.28,0,0,0,322.74,233.45Z" style="fill: rgb(255, 255, 255); opacity: 0.1; transform-origin: 344.605px 238.852px 0px;" class="animable"></path></g><g id="el5m9d86r8vhd"><circle cx="130.78" cy="265.11" r="27.5" style="fill: rgb(38, 50, 56); transform-origin: 130.78px 265.11px 0px; transform: rotate(-65.41deg);" class="animable"></circle></g><g id="elq74ryw576tn"><circle cx="381.06" cy="301.04" r="27.5" style="fill: rgb(38, 50, 56); transform-origin: 381.06px 301.04px 0px; transform: rotate(-65.41deg);" class="animable"></circle></g><g id="elzkc6e9tx52p"><circle cx="130.78" cy="265.11" r="22.5" style="fill: rgb(198, 255, 0); opacity: 0.2; transform-origin: 130.78px 265.11px 0px; transform: rotate(-20.26deg);" class="animable"></circle></g><path d="M155.3,263.5l-12.91-.3a3.29,3.29,0,0,1-2.47-5.38L148,248l-1-1.34-9.34,8.92a3.3,3.3,0,0,1-5.56-2.06l-1.27-12.66-1.65-.24-.3,12.91a3.29,3.29,0,0,1-5.38,2.47l-9.85-8.05-1.33,1,8.91,9.34a3.29,3.29,0,0,1-2,5.55l-12.66,1.27-.24,1.65,12.91.3a3.29,3.29,0,0,1,2.47,5.38l-8,9.85,1,1.33,9.34-8.91a3.3,3.3,0,0,1,5.56,2.06l1.27,12.66,1.65.23.3-12.9a3.29,3.29,0,0,1,5.38-2.48l9.85,8.06,1.33-1L140.35,272a3.3,3.3,0,0,1,2.05-5.56l12.66-1.26Z" style="fill: rgb(38, 50, 56); transform-origin: 130.815px 265.14px 0px;" id="el3lxsnzw240k" class="animable"></path><g id="eluczfuzfpkvm"><path d="M135.65,265.81a4.92,4.92,0,1,1-4.17-5.57A4.92,4.92,0,0,1,135.65,265.81Z" style="fill: rgb(255, 255, 255); opacity: 0.9; transform-origin: 130.78px 265.11px 0px;" class="animable"></path></g><g id="elncuhmvglwqd"><circle cx="381.06" cy="301.04" r="22.5" style="fill: rgb(198, 255, 0); opacity: 0.2; transform-origin: 381.06px 301.04px 0px; transform: rotate(-23.19deg);" class="animable"></circle></g><path d="M405.58,299.42l-12.9-.3a3.29,3.29,0,0,1-2.48-5.38l8.06-9.85-1-1.33-9.34,8.91a3.29,3.29,0,0,1-5.55-2.05l-1.27-12.66-1.65-.24-.3,12.91a3.29,3.29,0,0,1-5.38,2.47l-9.85-8-1.34,1,8.92,9.34a3.3,3.3,0,0,1-2.06,5.56L356.78,301l-.24,1.65,12.91.3a3.3,3.3,0,0,1,2.48,5.38l-8.06,9.85,1,1.33,9.34-8.91a3.29,3.29,0,0,1,5.55,2.05L381,325.32l1.65.24.3-12.91a3.29,3.29,0,0,1,5.38-2.47l9.85,8.06,1.34-1-8.92-9.34a3.3,3.3,0,0,1,2.06-5.56l12.66-1.27Z" style="fill: rgb(38, 50, 56); transform-origin: 381.06px 301.04px 0px;" id="eli3qs8qky8vm" class="animable"></path><g id="el4g3dmq4gv9d"><path d="M385.94,301.74a4.93,4.93,0,1,1-4.18-5.57A4.92,4.92,0,0,1,385.94,301.74Z" style="fill: rgb(255, 255, 255); opacity: 0.9; transform-origin: 381.059px 301.05px 0px;" class="animable"></path></g><g id="elj7d2ybmtmu"><path d="M114,219.85q-4.56,1-9.23,2.31a178.19,178.19,0,0,0-18.2,6.15q-6.49,2.56-13.14,5.79c8.13,1.94,25.09-1.39,33.46-3.89C114.33,228,114.26,222,114,219.85Z" style="fill: rgb(255, 255, 255); opacity: 0.5; transform-origin: 93.7552px 227.266px 0px;" class="animable"></path></g><g id="el9hedwjy01iw"><path d="M294.37,300.73h-.07L181,284.47a.51.51,0,0,1-.43-.48c0-.33-.68-33.37,17.69-58.74a.5.5,0,1,1,.81.59c-17.05,23.55-17.52,53.79-17.5,57.7l112.63,16.17c14.11-12.33,37.82-51.24,36.81-54-2-2.4,1.57-13.48,2-14.74a.5.5,0,0,1,.95.32c-1.5,4.54-3.41,12.3-2.14,13.82,2.47,3-24.13,44.33-37.12,55.54A.5.5,0,0,1,294.37,300.73Z" style="fill: rgb(38, 50, 56); opacity: 0.4; transform-origin: 257.277px 262.888px 0px;" class="animable"></path></g><path d="M210.6,223.62l-7.45.52a3.73,3.73,0,0,1-4-3.63l0-1.57a3.73,3.73,0,0,1,4.17-3.8l7.49.88a3.83,3.83,0,0,1,3.38,3.8h0A3.83,3.83,0,0,1,210.6,223.62Z" style="fill: rgb(198, 255, 0); transform-origin: 206.669px 219.632px 0px;" id="eldt07ye4wjat" class="animable"></path><g id="el16fx1neak1k"><path d="M68.73,250.62a53.3,53.3,0,0,0,8.91,1.86c1.71.16,3.31,2,3.72,4.28s1,5.15,1.44,7.53c.57,2.83-.91,5.15-3.07,4.82-3.52-.53-8.34-1.59-10.48-3.55a2.66,2.66,0,0,1-.8-2.08,32.41,32.41,0,0,0-1.15-10.55C66.89,251.54,67.65,250.31,68.73,250.62Z" style="fill: rgb(38, 50, 56); opacity: 0.3; transform-origin: 75.055px 259.857px 0px;" class="animable"></path></g><g id="elbuelf9h84sf"><path d="M435.93,281.74a17.6,17.6,0,0,0,4.94,1.53c1.09-5,2.3-9.26,3.85-11.32h0a50.13,50.13,0,0,0-9.09,3.9A3.33,3.33,0,0,0,435.93,281.74Z" style="fill: rgb(255, 255, 255); opacity: 0.5; transform-origin: 439.357px 277.61px 0px;" class="animable"></path></g><path d="M280.35,224.69l.49.46.57.7,1.07,1.42c.68,1,1.36,1.92,2,2.91s1.25,2,1.84,3,1.14,2.08,1.69,3.15a52.44,52.44,0,0,1,2.83,6.76c.2.59.38,1.2.55,1.82l.27.92.06.24.08.33.16.66a19.5,19.5,0,0,1,.41,4.72,34.06,34.06,0,0,1-1.25,7.67,57.51,57.51,0,0,1-2.3,6.71c-.87,2.14-1.86,4.2-2.9,6.21a67.31,67.31,0,0,1-3.46,5.91l-6.52-3c1-4,2-8.18,2.8-12.16.36-2,.71-4,.88-5.89.1-1,.15-1.87.19-2.76a19.05,19.05,0,0,0-.09-2.45,7.27,7.27,0,0,0-.39-1.71l-.05-.13,0-.06-.07-.15-.28-.61c-.18-.4-.36-.81-.59-1.22-.81-1.63-1.74-3.29-2.77-4.94-.51-.82-1-1.65-1.58-2.46s-1.08-1.65-1.65-2.46-1.13-1.63-1.7-2.43l-1.65-2.3Z" style="fill: rgb(198, 255, 0); transform-origin: 280.686px 251.485px 0px;" id="elbx03hy3tvlt" class="animable"></path><g id="elofwxlijwvd"><path d="M280.35,224.69l.49.46.57.7,1.07,1.42c.68,1,1.36,1.92,2,2.91s1.25,2,1.84,3,1.14,2.08,1.69,3.15a52.44,52.44,0,0,1,2.83,6.76c.2.59.38,1.2.55,1.82l.27.92.06.24.08.33.16.66a19.5,19.5,0,0,1,.41,4.72,34.06,34.06,0,0,1-1.25,7.67,57.51,57.51,0,0,1-2.3,6.71c-.87,2.14-1.86,4.2-2.9,6.21a67.31,67.31,0,0,1-3.46,5.91l-6.52-3c1-4,2-8.18,2.8-12.16.36-2,.71-4,.88-5.89.1-1,.15-1.87.19-2.76a19.05,19.05,0,0,0-.09-2.45,7.27,7.27,0,0,0-.39-1.71l-.05-.13,0-.06-.07-.15-.28-.61c-.18-.4-.36-.81-.59-1.22-.81-1.63-1.74-3.29-2.77-4.94-.51-.82-1-1.65-1.58-2.46s-1.08-1.65-1.65-2.46-1.13-1.63-1.7-2.43l-1.65-2.3Z" style="fill: rgb(255, 255, 255); opacity: 0.3; transform-origin: 280.686px 251.485px 0px;" class="animable"></path></g><path d="M285.26,274.55l-8.53-4s-5.86,10.63-2.08,13.73S281.42,283.37,285.26,274.55Z" style="fill: rgb(198, 255, 0); transform-origin: 279.32px 277.934px 0px;" id="elnpj8gu7897" class="animable"></path><g id="elz8j13uhkb1l"><path d="M285.26,274.55l-8.53-4s-5.86,10.63-2.08,13.73S281.42,283.37,285.26,274.55Z" style="fill: rgb(255, 255, 255); opacity: 0.3; transform-origin: 279.32px 277.934px 0px;" class="animable"></path></g><path d="M276.74,275l.83-4.29s-7.56,2.37-7.28,4.24S272.86,276.78,276.74,275Z" style="fill: rgb(198, 255, 0); transform-origin: 273.926px 273.527px 0px;" id="el3xld7c7ikpc" class="animable"></path><g id="elbbos22rdhjk"><path d="M276.74,275l.83-4.29s-7.56,2.37-7.28,4.24S272.86,276.78,276.74,275Z" style="fill: rgb(255, 255, 255); opacity: 0.3; transform-origin: 273.926px 273.527px 0px;" class="animable"></path></g><path d="M277.07,268.06l-.22.9a4.38,4.38,0,0,1-.61,1.38h0a.81.81,0,0,0,.31,1.18l7.85,4a.81.81,0,0,0,1-.25l.81-1.14a4,4,0,0,0,.48-.89l.84-2a.81.81,0,0,0-.53-1.09l-8.94-2.65A.82.82,0,0,0,277.07,268.06Z" style="fill: rgb(38, 50, 56); transform-origin: 281.846px 271.536px 0px;" id="elsshatjcxcxp" class="animable"></path></g><defs>     <filter id="active" height="200%">         <feMorphology in="SourceAlpha" result="DILATED" operator="dilate" radius="2"></feMorphology>                <feFlood flood-color="#32DFEC" flood-opacity="1" result="PINK"></feFlood>        <feComposite in="PINK" in2="DILATED" operator="in" result="OUTLINE"></feComposite>        <feMerge>            <feMergeNode in="OUTLINE"></feMergeNode>            <feMergeNode in="SourceGraphic"></feMergeNode>        </feMerge>    </filter>    <filter id="hover" height="200%">        <feMorphology in="SourceAlpha" result="DILATED" operator="dilate" radius="2"></feMorphology>                <feFlood flood-color="#ff0000" flood-opacity="0.5" result="PINK"></feFlood>        <feComposite in="PINK" in2="DILATED" operator="in" result="OUTLINE"></feComposite>        <feMerge>            <feMergeNode in="OUTLINE"></feMergeNode>            <feMergeNode in="SourceGraphic"></feMergeNode>        </feMerge>            <feColorMatrix type="matrix" values="0   0   0   0   0                0   1   0   0   0                0   0   0   0   0                0   0   0   1   0 "></feColorMatrix>    </filter></defs></svg>