<svg class="animated" id="freepik_stories-starman" xmlns="http://www.w3.org/2000/svg" xmlns:xlink="http://www.w3.org/1999/xlink" viewBox="0 0 500 500" version="1.1" xmlns:svgjs="http://svgjs.com/svgjs"><style>svg#freepik_stories-starman:not(.animated) .animable {opacity: 0;}svg#freepik_stories-starman.animated #freepik--background-simple--inject-2 {animation: 1s 1 forwards cubic-bezier(.36,-0.01,.5,1.38) fadeIn;animation-delay: 0s;}svg#freepik_stories-starman.animated #freepik--Stars--inject-2 {animation: 1s 1 forwards cubic-bezier(.36,-0.01,.5,1.38) zoomOut;animation-delay: 0s;}svg#freepik_stories-starman.animated #freepik--earth-globe--inject-2 {animation: 1s 1 forwards cubic-bezier(.36,-0.01,.5,1.38) zoomIn;animation-delay: 0s;}svg#freepik_stories-starman.animated #freepik--Car--inject-2 {animation: 1s 1 forwards cubic-bezier(.36,-0.01,.5,1.38) slideUp;animation-delay: 0s;}            @keyframes fadeIn {                0% {                    opacity: 0;                }                100% {                    opacity: 1;                }            }                    @keyframes zoomOut {                0% {                    opacity: 0;                    transform: scale(1.5);                }                100% {                    opacity: 1;                    transform: scale(1);                }            }                    @keyframes zoomIn {                0% {                    opacity: 0;                    transform: scale(0.5);                }                100% {                    opacity: 1;                    transform: scale(1);                }            }                    @keyframes slideUp {                0% {                    opacity: 0;                    transform: translateY(30px);                }                100% {                    opacity: 1;                    transform: inherit;                }            }        </style><g id="freepik--background-simple--inject-2" style="transform-origin: 249.997px 249.995px 0px;" class="animable"><path d="M321.17,97.46a226.34,226.34,0,0,0-41.75-17.33c-70-21-138.19.64-178.5,51.83C59,185.15,45.59,261.19,64.64,327.73,73.29,357.94,93,384.3,122.4,401.52c55.28,32.4,127.93,31,183.65,16.5,65.54-17.08,129.38-77.17,137.1-143.7C450.9,207.48,392.2,140.17,332.55,104c-2.34-1.43-4.71-2.81-7.11-4.16C324,99,322.6,98.23,321.17,97.46Z" style="fill: rgb(38, 50, 56); transform-origin: 249.997px 249.995px 0px;" id="elzm2i0gyfmla" class="animable"></path><g id="el68h72qwl3ic"><path d="M321.17,97.46a226.34,226.34,0,0,0-41.75-17.33c-70-21-138.19.64-178.5,51.83C59,185.15,45.59,261.19,64.64,327.73,73.29,357.94,93,384.3,122.4,401.52c55.28,32.4,127.93,31,183.65,16.5,65.54-17.08,129.38-77.17,137.1-143.7C450.9,207.48,392.2,140.17,332.55,104c-2.34-1.43-4.71-2.81-7.11-4.16C324,99,322.6,98.23,321.17,97.46Z" style="fill: rgb(255, 255, 255); opacity: 0.2; transform-origin: 249.997px 249.995px 0px;" class="animable"></path></g></g><g id="freepik--Stars--inject-2" style="transform-origin: 247.342px 260.1px 0px;" class="animable"><path d="M375,198.32a3,3,0,1,1-2.37-3.55A3,3,0,0,1,375,198.32Z" style="fill: rgb(198, 255, 0); transform-origin: 372.061px 197.716px 0px;" id="elsyaqxybkx9f" class="animable"></path><path d="M265.6,141a3,3,0,1,1-2.37-3.55A3,3,0,0,1,265.6,141Z" style="fill: rgb(198, 255, 0); transform-origin: 262.661px 140.396px 0px;" id="elw1mcqwk8id" class="animable"></path><path d="M198,108.4a3,3,0,1,1-2.37-3.56A3,3,0,0,1,198,108.4Z" style="fill: rgb(198, 255, 0); transform-origin: 195.063px 107.786px 0px;" id="elvki5k9nppr" class="animable"></path><path d="M155.75,169.6a3,3,0,1,1-2.37-3.56A3,3,0,0,1,155.75,169.6Z" style="fill: rgb(198, 255, 0); transform-origin: 152.813px 168.986px 0px;" id="elen2huiwlh1" class="animable"></path><path d="M93.37,208.39A3,3,0,1,1,91,204.84,3,3,0,0,1,93.37,208.39Z" style="fill: rgb(198, 255, 0); transform-origin: 90.4312px 207.786px 0px;" id="elph9wpem9kcf" class="animable"></path><path d="M331.86,151.76a3,3,0,1,1-2.37-3.56A3,3,0,0,1,331.86,151.76Z" style="fill: rgb(198, 255, 0); transform-origin: 328.923px 151.146px 0px;" id="elfwq138zht1f" class="animable"></path><path d="M352.85,153a1.51,1.51,0,1,1-1.19-1.78A1.51,1.51,0,0,1,352.85,153Z" style="fill: rgb(198, 255, 0); transform-origin: 351.37px 152.702px 0px;" id="el8smk4ykcak5" class="animable"></path><path d="M365.67,230.91a1.51,1.51,0,1,1-1.19-1.77A1.52,1.52,0,0,1,365.67,230.91Z" style="fill: rgb(198, 255, 0); transform-origin: 364.187px 230.621px 0px;" id="el6m2kkctpeun" class="animable"></path><path d="M409.81,240.78A1.5,1.5,0,0,1,408,242a1.51,1.51,0,1,1,1.77-1.18Z" style="fill: rgb(198, 255, 0); transform-origin: 408.295px 240.522px 0px;" id="elhs370cueiib" class="animable"></path><path d="M298,140.69a1.51,1.51,0,1,1-1.19-1.78A1.5,1.5,0,0,1,298,140.69Z" style="fill: rgb(198, 255, 0); transform-origin: 296.521px 140.392px 0px;" id="elgcshlseurwb" class="animable"></path><path d="M301.46,160.48a1.51,1.51,0,0,1-3-.59,1.51,1.51,0,1,1,3,.59Z" style="fill: rgb(198, 255, 0); transform-origin: 299.96px 160.185px 0px;" id="el30recfdjaiu" class="animable"></path><path d="M282.13,130.74a1.49,1.49,0,0,1-1.77,1.18,1.51,1.51,0,1,1,1.77-1.18Z" style="fill: rgb(198, 255, 0); transform-origin: 280.65px 130.44px 0px;" id="eldgiwbj1t0a4" class="animable"></path><path d="M221.81,136.57a1.51,1.51,0,1,1-1.19-1.78A1.51,1.51,0,0,1,221.81,136.57Z" style="fill: rgb(198, 255, 0); transform-origin: 220.33px 136.272px 0px;" id="elgn8akfq5xy9" class="animable"></path><path d="M114.25,146.92a1.51,1.51,0,1,1-1.18-1.77A1.51,1.51,0,0,1,114.25,146.92Z" style="fill: rgb(198, 255, 0); transform-origin: 112.768px 146.63px 0px;" id="elpae4hd6guyn" class="animable"></path><path d="M267.16,99.22A1.51,1.51,0,1,1,266,97.44,1.52,1.52,0,0,1,267.16,99.22Z" style="fill: rgb(198, 255, 0); transform-origin: 265.68px 98.9159px 0px;" id="elibfsupj758m" class="animable"></path><path d="M198.74,130.65a1.52,1.52,0,1,1-1.19-1.78A1.52,1.52,0,0,1,198.74,130.65Z" style="fill: rgb(198, 255, 0); transform-origin: 197.248px 130.36px 0px;" id="el418gwi8e43i" class="animable"></path><path d="M138.28,193.84a1.51,1.51,0,1,1-1.19-1.78A1.52,1.52,0,0,1,138.28,193.84Z" style="fill: rgb(198, 255, 0); transform-origin: 136.799px 193.542px 0px;" id="eloqcnom7t4nl" class="animable"></path><path d="M134.63,155.54a1.51,1.51,0,1,1-1.19-1.78A1.51,1.51,0,0,1,134.63,155.54Z" style="fill: rgb(198, 255, 0); transform-origin: 133.15px 155.242px 0px;" id="elo5y9q6d2gf" class="animable"></path><path d="M156.29,183.88a1.51,1.51,0,1,1-1.19-1.78A1.52,1.52,0,0,1,156.29,183.88Z" style="fill: rgb(198, 255, 0); transform-origin: 154.809px 183.582px 0px;" id="el0j12md2jam9i" class="animable"></path><path d="M156.15,133.19a1.51,1.51,0,1,1-1.18-1.77A1.49,1.49,0,0,1,156.15,133.19Z" style="fill: rgb(198, 255, 0); transform-origin: 154.67px 132.9px 0px;" id="elvdh7pkrq91o" class="animable"></path><path d="M391.23,180.71a1.51,1.51,0,1,1-1.18-1.78A1.5,1.5,0,0,1,391.23,180.71Z" style="fill: rgb(198, 255, 0); transform-origin: 389.751px 180.41px 0px;" id="el3j3pfxon592" class="animable"></path><path d="M115.41,209.61a1.51,1.51,0,1,1-1.19-1.77A1.52,1.52,0,0,1,115.41,209.61Z" style="fill: rgb(198, 255, 0); transform-origin: 113.927px 209.321px 0px;" id="elk7zfuw2xgm" class="animable"></path><path d="M119.71,186.76a1.51,1.51,0,1,1-1.19-1.77A1.52,1.52,0,0,1,119.71,186.76Z" style="fill: rgb(198, 255, 0); transform-origin: 118.227px 186.471px 0px;" id="el7832gyrpqmk" class="animable"></path><path d="M123.59,221.11a1.51,1.51,0,1,1-1.19-1.78A1.51,1.51,0,0,1,123.59,221.11Z" style="fill: rgb(198, 255, 0); transform-origin: 122.11px 220.812px 0px;" id="elhfpy5s3qh7" class="animable"></path><path d="M403.5,190.67a1.51,1.51,0,1,1-1.19-1.77A1.52,1.52,0,0,1,403.5,190.67Z" style="fill: rgb(198, 255, 0); transform-origin: 402.017px 190.381px 0px;" id="elrle07fsxlb9" class="animable"></path><path d="M125.2,256.25a1.51,1.51,0,1,1-1.18-1.78A1.5,1.5,0,0,1,125.2,256.25Z" style="fill: rgb(198, 255, 0); transform-origin: 123.721px 255.95px 0px;" id="el6hj9sube1h" class="animable"></path><path d="M145.66,314.57a3,3,0,1,1-4.18-.9A3,3,0,0,1,145.66,314.57Z" style="fill: rgb(198, 255, 0); transform-origin: 143.127px 316.178px 0px;" id="el6brgclaynpj" class="animable"></path><path d="M116.22,269.56a1.51,1.51,0,1,1-2.09-.45A1.5,1.5,0,0,1,116.22,269.56Z" style="fill: rgb(198, 255, 0); transform-origin: 114.951px 270.376px 0px;" id="el616urcok5bq" class="animable"></path><path d="M120.18,320.24a1.51,1.51,0,1,1-2.09-.45A1.52,1.52,0,0,1,120.18,320.24Z" style="fill: rgb(198, 255, 0); transform-origin: 118.911px 321.06px 0px;" id="elcjov8eblwlg" class="animable"></path><path d="M110.8,296.8a1.51,1.51,0,1,1-2.09-.45A1.52,1.52,0,0,1,110.8,296.8Z" style="fill: rgb(198, 255, 0); transform-origin: 109.531px 297.62px 0px;" id="elhc9flverbqi" class="animable"></path><path d="M128.82,285.16a1.51,1.51,0,1,1-2.09-.45A1.52,1.52,0,0,1,128.82,285.16Z" style="fill: rgb(198, 255, 0); transform-origin: 127.551px 285.98px 0px;" id="el84eejp6japk" class="animable"></path><path d="M124.67,299.35a1.51,1.51,0,1,1-2.08-.45A1.5,1.5,0,0,1,124.67,299.35Z" style="fill: rgb(198, 255, 0); transform-origin: 123.403px 300.17px 0px;" id="el80qy2a59i2i" class="animable"></path><path d="M138.58,323.1a1.51,1.51,0,1,1-2.09-.45A1.52,1.52,0,0,1,138.58,323.1Z" style="fill: rgb(198, 255, 0); transform-origin: 137.311px 323.92px 0px;" id="elb9oc5vbctvt" class="animable"></path><path d="M150.31,323.44a1.51,1.51,0,1,1-2.09-.45A1.52,1.52,0,0,1,150.31,323.44Z" style="fill: rgb(198, 255, 0); transform-origin: 149.041px 324.26px 0px;" id="eli8lo09oon2p" class="animable"></path><path d="M167.43,371.92a3,3,0,1,1,4.09-1.23A3,3,0,0,1,167.43,371.92Z" style="fill: rgb(198, 255, 0); transform-origin: 168.868px 369.287px 0px;" id="elbq14gij0kua" class="animable"></path><path d="M91.86,273.18a1.51,1.51,0,1,1,2-.61A1.51,1.51,0,0,1,91.86,273.18Z" style="fill: rgb(198, 255, 0); transform-origin: 92.5421px 271.833px 0px;" id="el0nqfrrfabx7h" class="animable"></path><path d="M187,354.66a1.51,1.51,0,1,1,2.05-.61A1.51,1.51,0,0,1,187,354.66Z" style="fill: rgb(198, 255, 0); transform-origin: 187.721px 353.333px 0px;" id="elu6al6f96yek" class="animable"></path><path d="M83.45,246.71a1.52,1.52,0,1,1,2-.62A1.52,1.52,0,0,1,83.45,246.71Z" style="fill: rgb(198, 255, 0); transform-origin: 84.1237px 245.348px 0px;" id="el8ywllbkw11c" class="animable"></path><path d="M73.29,265.6a1.51,1.51,0,1,1,2-.62A1.51,1.51,0,0,1,73.29,265.6Z" style="fill: rgb(198, 255, 0); transform-origin: 73.9678px 264.251px 0px;" id="elud5trf01kz" class="animable"></path><path d="M70.07,251.17a1.51,1.51,0,1,1,2.05-.61A1.5,1.5,0,0,1,70.07,251.17Z" style="fill: rgb(198, 255, 0); transform-origin: 70.791px 249.845px 0px;" id="elk4puygygipp" class="animable"></path><path d="M154.15,348.23a1.51,1.51,0,1,1,2-.61A1.51,1.51,0,0,1,154.15,348.23Z" style="fill: rgb(198, 255, 0); transform-origin: 154.832px 346.883px 0px;" id="el2h93106av7s" class="animable"></path><path d="M169.51,361a1.51,1.51,0,1,1,2-.61A1.51,1.51,0,0,1,169.51,361Z" style="fill: rgb(198, 255, 0); transform-origin: 170.192px 359.653px 0px;" id="eljotn482bnlh" class="animable"></path><path d="M159.07,366.4a1.51,1.51,0,1,1,2.05-.61A1.5,1.5,0,0,1,159.07,366.4Z" style="fill: rgb(198, 255, 0); transform-origin: 159.791px 365.075px 0px;" id="elb1mxyj95orn" class="animable"></path><path d="M251.17,392.87a3,3,0,1,1,1.9-3.82A3,3,0,0,1,251.17,392.87Z" style="fill: rgb(198, 255, 0); transform-origin: 250.231px 390.021px 0px;" id="elc2qvolgvkl" class="animable"></path><path d="M85.37,314.69a3,3,0,1,1,1.91-3.83A3,3,0,0,1,85.37,314.69Z" style="fill: rgb(198, 255, 0); transform-origin: 84.443px 311.837px 0px;" id="el4ih7m3yl40s" class="animable"></path><path d="M318.58,391.15a1.51,1.51,0,1,1,.95-1.92A1.52,1.52,0,0,1,318.58,391.15Z" style="fill: rgb(198, 255, 0); transform-origin: 318.1px 389.718px 0px;" id="elsdsmhkgoyi8" class="animable"></path><path d="M343.16,392.09a1.51,1.51,0,1,1,.95-1.91A1.5,1.5,0,0,1,343.16,392.09Z" style="fill: rgb(198, 255, 0); transform-origin: 342.679px 390.659px 0px;" id="elzxrldamuyan" class="animable"></path><path d="M117.24,363.93a1.51,1.51,0,1,1,1-1.91A1.51,1.51,0,0,1,117.24,363.93Z" style="fill: rgb(198, 255, 0); transform-origin: 116.803px 362.485px 0px;" id="elomo0qlao2ni" class="animable"></path><path d="M293.53,379.14a1.51,1.51,0,1,1,1-1.91A1.5,1.5,0,0,1,293.53,379.14Z" style="fill: rgb(198, 255, 0); transform-origin: 293.094px 377.695px 0px;" id="el0fdfe2utkvh9" class="animable"></path><path d="M300.34,399.49a1.51,1.51,0,1,1,1-1.92A1.52,1.52,0,0,1,300.34,399.49Z" style="fill: rgb(198, 255, 0); transform-origin: 299.905px 398.044px 0px;" id="elotbp2izdxxd" class="animable"></path><path d="M245.54,422.73a1.51,1.51,0,1,1,1-1.92A1.52,1.52,0,0,1,245.54,422.73Z" style="fill: rgb(198, 255, 0); transform-origin: 245.105px 421.284px 0px;" id="elftrhg4om9m" class="animable"></path><path d="M287.62,392a1.51,1.51,0,1,1,1-1.92A1.52,1.52,0,0,1,287.62,392Z" style="fill: rgb(198, 255, 0); transform-origin: 287.185px 390.554px 0px;" id="el9p7jpdhgk5a" class="animable"></path><path d="M244.66,383.9a1.51,1.51,0,1,1,1-1.91A1.51,1.51,0,0,1,244.66,383.9Z" style="fill: rgb(198, 255, 0); transform-origin: 244.223px 382.455px 0px;" id="elur0lsl38ex8" class="animable"></path><path d="M241.42,395.18a1.51,1.51,0,1,1,1-1.91A1.51,1.51,0,0,1,241.42,395.18Z" style="fill: rgb(198, 255, 0); transform-origin: 240.983px 393.735px 0px;" id="elsos4580i3rd" class="animable"></path><path d="M340.58,306.94a3,3,0,1,1,.74,4.2A3,3,0,0,1,340.58,306.94Z" style="fill: rgb(198, 255, 0); transform-origin: 343.028px 308.674px 0px;" id="el45611rhrzyf" class="animable"></path><path d="M358.73,347.86a3,3,0,1,1,.74,4.2A3,3,0,0,1,358.73,347.86Z" style="fill: rgb(198, 255, 0); transform-origin: 361.178px 349.594px 0px;" id="eltb3j2s5mkb" class="animable"></path><path d="M387.57,255.48a3,3,0,1,1,.74,4.21A3,3,0,0,1,387.57,255.48Z" style="fill: rgb(198, 255, 0); transform-origin: 390.014px 257.221px 0px;" id="elo4s1sd1d6vh" class="animable"></path><path d="M354.31,253.6a3,3,0,1,1,.74,4.21A3,3,0,0,1,354.31,253.6Z" style="fill: rgb(198, 255, 0); transform-origin: 356.754px 255.341px 0px;" id="elnnxyr2yzwcr" class="animable"></path><path d="M310,351.15a1.51,1.51,0,1,1,.37,2.1A1.51,1.51,0,0,1,310,351.15Z" style="fill: rgb(198, 255, 0); transform-origin: 311.238px 352.014px 0px;" id="el2wleineh3wu" class="animable"></path><path d="M337.24,345.92a1.51,1.51,0,1,1,.37,2.11A1.51,1.51,0,0,1,337.24,345.92Z" style="fill: rgb(198, 255, 0); transform-origin: 338.473px 346.791px 0px;" id="elhmue3x8coqh" class="animable"></path><path d="M352.91,369.4a1.51,1.51,0,1,1,.37,2.1A1.51,1.51,0,0,1,352.91,369.4Z" style="fill: rgb(198, 255, 0); transform-origin: 354.148px 370.264px 0px;" id="el9oxu0plcntu" class="animable"></path><path d="M192.88,400.94a1.51,1.51,0,1,1,.37,2.1A1.51,1.51,0,0,1,192.88,400.94Z" style="fill: rgb(198, 255, 0); transform-origin: 194.118px 401.804px 0px;" id="elkea0cz70toe" class="animable"></path><path d="M334.38,332.11a1.51,1.51,0,1,1,.37,2.1A1.5,1.5,0,0,1,334.38,332.11Z" style="fill: rgb(198, 255, 0); transform-origin: 335.616px 332.974px 0px;" id="eld7c2gl4i2mh" class="animable"></path><path d="M420.51,271.13a1.51,1.51,0,1,1,.37,2.1A1.51,1.51,0,0,1,420.51,271.13Z" style="fill: rgb(198, 255, 0); transform-origin: 421.748px 271.994px 0px;" id="el269xl8py2ss" class="animable"></path><path d="M378.22,315.35a1.51,1.51,0,1,1,.37,2.11A1.51,1.51,0,0,1,378.22,315.35Z" style="fill: rgb(198, 255, 0); transform-origin: 379.453px 316.221px 0px;" id="elftw7zyua46v" class="animable"></path><path d="M393.23,347.1a1.51,1.51,0,1,1,.37,2.1A1.51,1.51,0,0,1,393.23,347.1Z" style="fill: rgb(198, 255, 0); transform-origin: 394.468px 347.964px 0px;" id="eliwcouwjuq97" class="animable"></path><path d="M422.66,305.45a1.51,1.51,0,1,1,.37,2.11A1.52,1.52,0,0,1,422.66,305.45Z" style="fill: rgb(198, 255, 0); transform-origin: 423.895px 306.321px 0px;" id="el8tyjxqgs9h4" class="animable"></path><path d="M377.56,297a1.51,1.51,0,1,1,.37,2.1A1.51,1.51,0,0,1,377.56,297Z" style="fill: rgb(198, 255, 0); transform-origin: 378.798px 297.864px 0px;" id="elkd0m5y162dq" class="animable"></path><path d="M317.44,130.54a1.51,1.51,0,0,1-3-.59,1.51,1.51,0,1,1,3,.59Z" style="fill: rgb(198, 255, 0); transform-origin: 315.94px 130.245px 0px;" id="elhr7r3oienak" class="animable"></path><path d="M334.72,185.3a1.52,1.52,0,1,1-1.19-1.78A1.52,1.52,0,0,1,334.72,185.3Z" style="fill: rgb(198, 255, 0); transform-origin: 333.228px 185.01px 0px;" id="elhefkmtjru7n" class="animable"></path><path d="M352.61,174.39a1.51,1.51,0,1,1-1.19-1.78A1.52,1.52,0,0,1,352.61,174.39Z" style="fill: rgb(198, 255, 0); transform-origin: 351.129px 174.092px 0px;" id="el74pcogg5t0g" class="animable"></path><path d="M401.31,215a1.51,1.51,0,1,1-1.19-1.78A1.52,1.52,0,0,1,401.31,215Z" style="fill: rgb(198, 255, 0); transform-origin: 399.829px 214.702px 0px;" id="elsi3rlduzhx" class="animable"></path><path d="M235.37,118.46a1.51,1.51,0,1,1-1.19-1.78A1.51,1.51,0,0,1,235.37,118.46Z" style="fill: rgb(198, 255, 0); transform-origin: 233.89px 118.162px 0px;" id="eluv4fw3plh4" class="animable"></path><path d="M187.21,155.54a1.51,1.51,0,1,1-1.19-1.78A1.51,1.51,0,0,1,187.21,155.54Z" style="fill: rgb(198, 255, 0); transform-origin: 185.73px 155.242px 0px;" id="elhbyliuk5jjt" class="animable"></path><g id="elwqdvog70h2d"><g style="opacity: 0.5; transform-origin: 247.342px 260.1px 0px;" class="animable"><path d="M375,198.32a3,3,0,1,1-2.37-3.55A3,3,0,0,1,375,198.32Z" style="fill: rgb(255, 255, 255); transform-origin: 372.061px 197.716px 0px;" id="el8clyns24zj8" class="animable"></path><path d="M265.6,141a3,3,0,1,1-2.37-3.55A3,3,0,0,1,265.6,141Z" style="fill: rgb(255, 255, 255); transform-origin: 262.661px 140.396px 0px;" id="elbweqnc6la5" class="animable"></path><path d="M198,108.4a3,3,0,1,1-2.37-3.56A3,3,0,0,1,198,108.4Z" style="fill: rgb(255, 255, 255); transform-origin: 195.063px 107.786px 0px;" id="elcjjmdt7tvfn" class="animable"></path><path d="M155.75,169.6a3,3,0,1,1-2.37-3.56A3,3,0,0,1,155.75,169.6Z" style="fill: rgb(255, 255, 255); transform-origin: 152.813px 168.986px 0px;" id="elv9c6erbbze" class="animable"></path><path d="M93.37,208.39A3,3,0,1,1,91,204.84,3,3,0,0,1,93.37,208.39Z" style="fill: rgb(255, 255, 255); transform-origin: 90.4312px 207.786px 0px;" id="elsbeqlm0o2vo" class="animable"></path><path d="M331.86,151.76a3,3,0,1,1-2.37-3.56A3,3,0,0,1,331.86,151.76Z" style="fill: rgb(255, 255, 255); transform-origin: 328.923px 151.146px 0px;" id="elccl7ciwcdtg" class="animable"></path><path d="M352.85,153a1.51,1.51,0,1,1-1.19-1.78A1.51,1.51,0,0,1,352.85,153Z" style="fill: rgb(255, 255, 255); transform-origin: 351.37px 152.702px 0px;" id="el1pu7cbr4rdw" class="animable"></path><path d="M365.67,230.91a1.51,1.51,0,1,1-1.19-1.77A1.52,1.52,0,0,1,365.67,230.91Z" style="fill: rgb(255, 255, 255); transform-origin: 364.187px 230.621px 0px;" id="elc8tcm3yf89u" class="animable"></path><path d="M409.81,240.78A1.5,1.5,0,0,1,408,242a1.51,1.51,0,1,1,1.77-1.18Z" style="fill: rgb(255, 255, 255); transform-origin: 408.295px 240.522px 0px;" id="el1hs2q4d8d8d" class="animable"></path><path d="M298,140.69a1.51,1.51,0,1,1-1.19-1.78A1.5,1.5,0,0,1,298,140.69Z" style="fill: rgb(255, 255, 255); transform-origin: 296.521px 140.392px 0px;" id="elij01sqma2xc" class="animable"></path><path d="M301.46,160.48a1.51,1.51,0,0,1-3-.59,1.51,1.51,0,1,1,3,.59Z" style="fill: rgb(255, 255, 255); transform-origin: 299.96px 160.185px 0px;" id="el1y1zs2k57vz" class="animable"></path><path d="M282.13,130.74a1.49,1.49,0,0,1-1.77,1.18,1.51,1.51,0,1,1,1.77-1.18Z" style="fill: rgb(255, 255, 255); transform-origin: 280.65px 130.44px 0px;" id="elemv33vsof1e" class="animable"></path><path d="M221.81,136.57a1.51,1.51,0,1,1-1.19-1.78A1.51,1.51,0,0,1,221.81,136.57Z" style="fill: rgb(255, 255, 255); transform-origin: 220.33px 136.272px 0px;" id="el7ud7m7quw17" class="animable"></path><path d="M114.25,146.92a1.51,1.51,0,1,1-1.18-1.77A1.51,1.51,0,0,1,114.25,146.92Z" style="fill: rgb(255, 255, 255); transform-origin: 112.768px 146.63px 0px;" id="elxf6xmks83x" class="animable"></path><path d="M267.16,99.22A1.51,1.51,0,1,1,266,97.44,1.52,1.52,0,0,1,267.16,99.22Z" style="fill: rgb(255, 255, 255); transform-origin: 265.68px 98.9159px 0px;" id="elbrwcaylfuaa" class="animable"></path><path d="M198.74,130.65a1.52,1.52,0,1,1-1.19-1.78A1.52,1.52,0,0,1,198.74,130.65Z" style="fill: rgb(255, 255, 255); transform-origin: 197.248px 130.36px 0px;" id="elpyeewnye1a9" class="animable"></path><path d="M138.28,193.84a1.51,1.51,0,1,1-1.19-1.78A1.52,1.52,0,0,1,138.28,193.84Z" style="fill: rgb(255, 255, 255); transform-origin: 136.799px 193.542px 0px;" id="elxhi9wwlfjxm" class="animable"></path><path d="M134.63,155.54a1.51,1.51,0,1,1-1.19-1.78A1.51,1.51,0,0,1,134.63,155.54Z" style="fill: rgb(255, 255, 255); transform-origin: 133.15px 155.242px 0px;" id="elt0qp8ie62b" class="animable"></path><path d="M156.29,183.88a1.51,1.51,0,1,1-1.19-1.78A1.52,1.52,0,0,1,156.29,183.88Z" style="fill: rgb(255, 255, 255); transform-origin: 154.809px 183.582px 0px;" id="elu0w0b7w0yya" class="animable"></path><path d="M156.15,133.19a1.51,1.51,0,1,1-1.18-1.77A1.49,1.49,0,0,1,156.15,133.19Z" style="fill: rgb(255, 255, 255); transform-origin: 154.67px 132.9px 0px;" id="elike4j17dpf9" class="animable"></path><path d="M391.23,180.71a1.51,1.51,0,1,1-1.18-1.78A1.5,1.5,0,0,1,391.23,180.71Z" style="fill: rgb(255, 255, 255); transform-origin: 389.751px 180.41px 0px;" id="elzayt5hfp9f" class="animable"></path><path d="M115.41,209.61a1.51,1.51,0,1,1-1.19-1.77A1.52,1.52,0,0,1,115.41,209.61Z" style="fill: rgb(255, 255, 255); transform-origin: 113.927px 209.321px 0px;" id="elxyk9kw09kr8" class="animable"></path><path d="M119.71,186.76a1.51,1.51,0,1,1-1.19-1.77A1.52,1.52,0,0,1,119.71,186.76Z" style="fill: rgb(255, 255, 255); transform-origin: 118.227px 186.471px 0px;" id="eld6ywjib3kma" class="animable"></path><path d="M123.59,221.11a1.51,1.51,0,1,1-1.19-1.78A1.51,1.51,0,0,1,123.59,221.11Z" style="fill: rgb(255, 255, 255); transform-origin: 122.11px 220.812px 0px;" id="el1nzrwiu9csi" class="animable"></path><path d="M403.5,190.67a1.51,1.51,0,1,1-1.19-1.77A1.52,1.52,0,0,1,403.5,190.67Z" style="fill: rgb(255, 255, 255); transform-origin: 402.017px 190.381px 0px;" id="el91vk84tbrvm" class="animable"></path><path d="M125.2,256.25a1.51,1.51,0,1,1-1.18-1.78A1.5,1.5,0,0,1,125.2,256.25Z" style="fill: rgb(255, 255, 255); transform-origin: 123.721px 255.95px 0px;" id="el5t7xzw09ztw" class="animable"></path><path d="M145.66,314.57a3,3,0,1,1-4.18-.9A3,3,0,0,1,145.66,314.57Z" style="fill: rgb(255, 255, 255); transform-origin: 143.127px 316.178px 0px;" id="eljtv9xes77x" class="animable"></path><path d="M116.22,269.56a1.51,1.51,0,1,1-2.09-.45A1.5,1.5,0,0,1,116.22,269.56Z" style="fill: rgb(255, 255, 255); transform-origin: 114.951px 270.376px 0px;" id="el9mvqblaur4w" class="animable"></path><path d="M120.18,320.24a1.51,1.51,0,1,1-2.09-.45A1.52,1.52,0,0,1,120.18,320.24Z" style="fill: rgb(255, 255, 255); transform-origin: 118.911px 321.06px 0px;" id="elybiqgj5zdtm" class="animable"></path><path d="M110.8,296.8a1.51,1.51,0,1,1-2.09-.45A1.52,1.52,0,0,1,110.8,296.8Z" style="fill: rgb(255, 255, 255); transform-origin: 109.531px 297.62px 0px;" id="elk454puj3hi" class="animable"></path><path d="M128.82,285.16a1.51,1.51,0,1,1-2.09-.45A1.52,1.52,0,0,1,128.82,285.16Z" style="fill: rgb(255, 255, 255); transform-origin: 127.551px 285.98px 0px;" id="elf9rezj3orei" class="animable"></path><path d="M124.67,299.35a1.51,1.51,0,1,1-2.08-.45A1.5,1.5,0,0,1,124.67,299.35Z" style="fill: rgb(255, 255, 255); transform-origin: 123.403px 300.17px 0px;" id="elyc2xoof2si" class="animable"></path><path d="M138.58,323.1a1.51,1.51,0,1,1-2.09-.45A1.52,1.52,0,0,1,138.58,323.1Z" style="fill: rgb(255, 255, 255); transform-origin: 137.311px 323.92px 0px;" id="elglf03dbqh7m" class="animable"></path><path d="M150.31,323.44a1.51,1.51,0,1,1-2.09-.45A1.52,1.52,0,0,1,150.31,323.44Z" style="fill: rgb(255, 255, 255); transform-origin: 149.041px 324.26px 0px;" id="elwhosux85rsi" class="animable"></path><path d="M167.43,371.92a3,3,0,1,1,4.09-1.23A3,3,0,0,1,167.43,371.92Z" style="fill: rgb(255, 255, 255); transform-origin: 168.868px 369.287px 0px;" id="elrkmuwmsthd" class="animable"></path><path d="M91.86,273.18a1.51,1.51,0,1,1,2-.61A1.51,1.51,0,0,1,91.86,273.18Z" style="fill: rgb(255, 255, 255); transform-origin: 92.5421px 271.833px 0px;" id="eldx3vf7o501r" class="animable"></path><path d="M187,354.66a1.51,1.51,0,1,1,2.05-.61A1.51,1.51,0,0,1,187,354.66Z" style="fill: rgb(255, 255, 255); transform-origin: 187.721px 353.333px 0px;" id="elwmhuoqrzg2" class="animable"></path><path d="M83.45,246.71a1.52,1.52,0,1,1,2-.62A1.52,1.52,0,0,1,83.45,246.71Z" style="fill: rgb(255, 255, 255); transform-origin: 84.1237px 245.348px 0px;" id="eltnlfdsqr6jh" class="animable"></path><path d="M73.29,265.6a1.51,1.51,0,1,1,2-.62A1.51,1.51,0,0,1,73.29,265.6Z" style="fill: rgb(255, 255, 255); transform-origin: 73.9678px 264.251px 0px;" id="eldqfkkkt36as" class="animable"></path><path d="M70.07,251.17a1.51,1.51,0,1,1,2.05-.61A1.5,1.5,0,0,1,70.07,251.17Z" style="fill: rgb(255, 255, 255); transform-origin: 70.791px 249.845px 0px;" id="elt75l2fk93sj" class="animable"></path><path d="M154.15,348.23a1.51,1.51,0,1,1,2-.61A1.51,1.51,0,0,1,154.15,348.23Z" style="fill: rgb(255, 255, 255); transform-origin: 154.832px 346.883px 0px;" id="elpnr53qjdgvg" class="animable"></path><path d="M169.51,361a1.51,1.51,0,1,1,2-.61A1.51,1.51,0,0,1,169.51,361Z" style="fill: rgb(255, 255, 255); transform-origin: 170.192px 359.653px 0px;" id="elypn2iis3i9n" class="animable"></path><path d="M159.07,366.4a1.51,1.51,0,1,1,2.05-.61A1.5,1.5,0,0,1,159.07,366.4Z" style="fill: rgb(255, 255, 255); transform-origin: 159.791px 365.075px 0px;" id="el4jart85mbnj" class="animable"></path><path d="M251.17,392.87a3,3,0,1,1,1.9-3.82A3,3,0,0,1,251.17,392.87Z" style="fill: rgb(255, 255, 255); transform-origin: 250.231px 390.021px 0px;" id="elj0e9ljz38nk" class="animable"></path><path d="M85.37,314.69a3,3,0,1,1,1.91-3.83A3,3,0,0,1,85.37,314.69Z" style="fill: rgb(255, 255, 255); transform-origin: 84.443px 311.837px 0px;" id="elu9hvl4jicv" class="animable"></path><path d="M318.58,391.15a1.51,1.51,0,1,1,.95-1.92A1.52,1.52,0,0,1,318.58,391.15Z" style="fill: rgb(255, 255, 255); transform-origin: 318.1px 389.718px 0px;" id="elrhwc71o4zcp" class="animable"></path><path d="M343.16,392.09a1.51,1.51,0,1,1,.95-1.91A1.5,1.5,0,0,1,343.16,392.09Z" style="fill: rgb(255, 255, 255); transform-origin: 342.679px 390.659px 0px;" id="elqf1zrgtuodi" class="animable"></path><path d="M117.24,363.93a1.51,1.51,0,1,1,1-1.91A1.51,1.51,0,0,1,117.24,363.93Z" style="fill: rgb(255, 255, 255); transform-origin: 116.803px 362.485px 0px;" id="eltd5phxtz4t" class="animable"></path><path d="M293.53,379.14a1.51,1.51,0,1,1,1-1.91A1.5,1.5,0,0,1,293.53,379.14Z" style="fill: rgb(255, 255, 255); transform-origin: 293.094px 377.695px 0px;" id="elfr8eriyqj54" class="animable"></path><path d="M300.34,399.49a1.51,1.51,0,1,1,1-1.92A1.52,1.52,0,0,1,300.34,399.49Z" style="fill: rgb(255, 255, 255); transform-origin: 299.905px 398.044px 0px;" id="elekqlk36jvq" class="animable"></path><path d="M245.54,422.73a1.51,1.51,0,1,1,1-1.92A1.52,1.52,0,0,1,245.54,422.73Z" style="fill: rgb(255, 255, 255); transform-origin: 245.105px 421.284px 0px;" id="elv9ohlwq1uwn" class="animable"></path><path d="M287.62,392a1.51,1.51,0,1,1,1-1.92A1.52,1.52,0,0,1,287.62,392Z" style="fill: rgb(255, 255, 255); transform-origin: 287.185px 390.554px 0px;" id="elzq70rlwzkab" class="animable"></path><path d="M244.66,383.9a1.51,1.51,0,1,1,1-1.91A1.51,1.51,0,0,1,244.66,383.9Z" style="fill: rgb(255, 255, 255); transform-origin: 244.223px 382.455px 0px;" id="el87f4nbbjn8k" class="animable"></path><path d="M241.42,395.18a1.51,1.51,0,1,1,1-1.91A1.51,1.51,0,0,1,241.42,395.18Z" style="fill: rgb(255, 255, 255); transform-origin: 240.983px 393.735px 0px;" id="elqmfbjo7ap4g" class="animable"></path><path d="M340.58,306.94a3,3,0,1,1,.74,4.2A3,3,0,0,1,340.58,306.94Z" style="fill: rgb(255, 255, 255); transform-origin: 343.028px 308.674px 0px;" id="elw3ucjfmagji" class="animable"></path><path d="M358.73,347.86a3,3,0,1,1,.74,4.2A3,3,0,0,1,358.73,347.86Z" style="fill: rgb(255, 255, 255); transform-origin: 361.178px 349.594px 0px;" id="el45vgij0tmwf" class="animable"></path><path d="M387.57,255.48a3,3,0,1,1,.74,4.21A3,3,0,0,1,387.57,255.48Z" style="fill: rgb(255, 255, 255); transform-origin: 390.014px 257.221px 0px;" id="el5o841gnyvuf" class="animable"></path><path d="M354.31,253.6a3,3,0,1,1,.74,4.21A3,3,0,0,1,354.31,253.6Z" style="fill: rgb(255, 255, 255); transform-origin: 356.754px 255.341px 0px;" id="elgjy6tz42jxd" class="animable"></path><path d="M310,351.15a1.51,1.51,0,1,1,.37,2.1A1.51,1.51,0,0,1,310,351.15Z" style="fill: rgb(255, 255, 255); transform-origin: 311.238px 352.014px 0px;" id="elnf9k931z3m" class="animable"></path><path d="M337.24,345.92a1.51,1.51,0,1,1,.37,2.11A1.51,1.51,0,0,1,337.24,345.92Z" style="fill: rgb(255, 255, 255); transform-origin: 338.473px 346.791px 0px;" id="elaquogefptb" class="animable"></path><path d="M352.91,369.4a1.51,1.51,0,1,1,.37,2.1A1.51,1.51,0,0,1,352.91,369.4Z" style="fill: rgb(255, 255, 255); transform-origin: 354.148px 370.264px 0px;" id="el18hcqzxc6q2" class="animable"></path><path d="M192.88,400.94a1.51,1.51,0,1,1,.37,2.1A1.51,1.51,0,0,1,192.88,400.94Z" style="fill: rgb(255, 255, 255); transform-origin: 194.118px 401.804px 0px;" id="elxt8at9fu2c" class="animable"></path><path d="M334.38,332.11a1.51,1.51,0,1,1,.37,2.1A1.5,1.5,0,0,1,334.38,332.11Z" style="fill: rgb(255, 255, 255); transform-origin: 335.616px 332.974px 0px;" id="elhun4laxdz6" class="animable"></path><path d="M420.51,271.13a1.51,1.51,0,1,1,.37,2.1A1.51,1.51,0,0,1,420.51,271.13Z" style="fill: rgb(255, 255, 255); transform-origin: 421.748px 271.994px 0px;" id="elsjjc1t02aic" class="animable"></path><path d="M378.22,315.35a1.51,1.51,0,1,1,.37,2.11A1.51,1.51,0,0,1,378.22,315.35Z" style="fill: rgb(255, 255, 255); transform-origin: 379.453px 316.221px 0px;" id="elgr0kq5i5dpo" class="animable"></path><path d="M393.23,347.1a1.51,1.51,0,1,1,.37,2.1A1.51,1.51,0,0,1,393.23,347.1Z" style="fill: rgb(255, 255, 255); transform-origin: 394.468px 347.964px 0px;" id="el9l4aaapoy75" class="animable"></path><path d="M422.66,305.45a1.51,1.51,0,1,1,.37,2.11A1.52,1.52,0,0,1,422.66,305.45Z" style="fill: rgb(255, 255, 255); transform-origin: 423.895px 306.321px 0px;" id="elw8eohmipmx" class="animable"></path><path d="M377.56,297a1.51,1.51,0,1,1,.37,2.1A1.51,1.51,0,0,1,377.56,297Z" style="fill: rgb(255, 255, 255); transform-origin: 378.798px 297.864px 0px;" id="elknta3xxspa" class="animable"></path><path d="M317.44,130.54a1.51,1.51,0,0,1-3-.59,1.51,1.51,0,1,1,3,.59Z" style="fill: rgb(255, 255, 255); transform-origin: 315.94px 130.245px 0px;" id="el4i45e7vaxn" class="animable"></path><path d="M334.72,185.3a1.52,1.52,0,1,1-1.19-1.78A1.52,1.52,0,0,1,334.72,185.3Z" style="fill: rgb(255, 255, 255); transform-origin: 333.228px 185.01px 0px;" id="elryavcf27me" class="animable"></path><path d="M352.61,174.39a1.51,1.51,0,1,1-1.19-1.78A1.52,1.52,0,0,1,352.61,174.39Z" style="fill: rgb(255, 255, 255); transform-origin: 351.129px 174.092px 0px;" id="elj3ym74frm8" class="animable"></path><path d="M401.31,215a1.51,1.51,0,1,1-1.19-1.78A1.52,1.52,0,0,1,401.31,215Z" style="fill: rgb(255, 255, 255); transform-origin: 399.829px 214.702px 0px;" id="elsdzgnbf498j" class="animable"></path><path d="M235.37,118.46a1.51,1.51,0,1,1-1.19-1.78A1.51,1.51,0,0,1,235.37,118.46Z" style="fill: rgb(255, 255, 255); transform-origin: 233.89px 118.162px 0px;" id="elb8jjuq9tkd" class="animable"></path><path d="M187.21,155.54a1.51,1.51,0,1,1-1.19-1.78A1.51,1.51,0,0,1,187.21,155.54Z" style="fill: rgb(255, 255, 255); transform-origin: 185.73px 155.242px 0px;" id="elhn7p3hazn77" class="animable"></path></g></g></g><g id="freepik--earth-globe--inject-2" style="transform-origin: 267.22px 242.23px 0px;" class="animable"><g id="elkstio14mni"><circle cx="267.22" cy="242.23" r="96.18" style="fill: rgb(255, 255, 255); transform-origin: 267.22px 242.23px 0px; transform: rotate(-45deg);" class="animable"></circle></g><g style="clip-path: url(&quot;#freepik--clip-path--inject-2&quot;); transform-origin: 267.22px 242.23px 0px;" id="el0dywqh0okga" class="animable"><g id="el100fqd5dqzv"><circle cx="267.22" cy="242.23" r="96.18" style="fill: rgb(198, 255, 0); transform-origin: 267.22px 242.23px 0px; transform: rotate(-45deg);" class="animable"></circle></g><g id="elgi0hfqvwrp5"><circle cx="267.22" cy="242.23" r="96.18" style="fill: rgb(255, 255, 255); opacity: 0.7; transform-origin: 267.22px 242.23px 0px; transform: rotate(-45deg);" class="animable"></circle></g><polygon points="251.7 201.61 255.24 204.5 261.77 205.23 264.25 209.55 260.87 212.04 261.09 212.92 268.39 213.93 271.33 212.5 272.28 209.68 270.79 205.58 266.42 205.02 262.99 201.63 253.14 199.84 251.7 201.61" style="fill: rgb(198, 255, 0); transform-origin: 261.99px 206.885px 0px;" id="elxqogsfi7sqn" class="animable"></polygon><path d="M334.36,288.35l-7.8-1.12-9.41-1-6.87,1.7-6.75.27-6.71,3.31-3.93,1.21-2.44.6-4,3.81-4,2.88-6.92-2.29v-6.59l-4.15-.61-4.43,1.1-1.16-1.83-.55-4.1-2.1-1.83-3,1.21-.33,2.44-3.71,1.15-4.32-3.16-2.65-5,1.79-7,6.53-1.16,2.16,1.12,2.66-.66,2.83-2.82,3.1.17,5.69,5.88,1.49-.61-1.7-5-2-2.33-.6-4.32,7.32-5.58-.93-8.47,2.83-3.76L282,240.2l2.1-1,4.27-4.59-.22-1.83-3.49,1.1-1.1-1.61-2.44.61-3.54,1.82,1.05-3.32,7.21-4.14,1.28-2.43,4.31,4.1,2.49,1.5,2.88-1.65-2-2.55-5.47-2.17-6.8-4.67L276,217l-5.53.43-3.32-2h-3.77l-.22,1,1.15,6.54,1.44,2-.24,7.59-5.31-2.45-.1-3.26-5.21-1.06-2.59-1.95L252,218l5.27-6.25-.88-5.42-2.38.82-2-1.61-1.49-3.15-1.61.16v3.76l-2.33,1.05-3-7.48-2-.67-3.43-.56-3.11,2.66,5.48,3.11,1.82,3.54-9.46-4-7-4.61-1.93-5.87-6.2-.34-3.72,4a35.43,35.43,0,0,1-2.88,2.59,38.17,38.17,0,0,1-5.1,2.21l.05,4-5,1.49,1.05,2.33,8.53-.71,5.36,3.61,1.92,7.75-.73,7.48,2.26,7.2-3.51,12.39,2.68,16.5,4.3,8.81,4.64,6.38,3.43-.38-2-3.27-2.44-2.22-2.31-4.6,1.88-.94,5.08,7.21,4,6.54,1.42,5.76,5.48,4,8.9,3.67,12.29.24,4.37,2.45,3.54,2.88,4.59,1.45,5.21.12,4.82-1.43s.32,2.27.6,3.38-1.89,5.64-1.89,5.64l-1.34,5,3,4.43,5.37.79,8.63,5.38,3.43.56.82,3.32.77,1.46a95.79,95.79,0,0,0,41-33.41l-.28-1.63,3.29-12.34L345.72,282Z" style="fill: rgb(198, 255, 0); transform-origin: 275.18px 261.875px 0px;" id="el80nnvg3t9ek" class="animable"></path><path d="M335.69,195.12l-3.48-3.6-4.31-4.11L325.37,181l4.15-.33-.33-2.27-2.94.49,2.17-1.71,2.27-2.21-.55-2.22-3.54-2.88-1.75-4.63a96.25,96.25,0,0,0-116.14.64l6,2.35L212.61,173l-4,1.93,1,6.09-1.61,1.1-1.61,3,1.21,3.93,3.88-.49-.62,4.15,3.77-.93,4.39-9.79-.21-3.71,6.09-2,.89-3L232.1,171l-.27-3.93,4.6-1.37s2.88-2.6,3.55-2.77a28.42,28.42,0,0,1,4,.18l4,1.83,4.65-1.15,3.38-3.43,5.21-.82a5.58,5.58,0,0,0,2.66.28c1.1-.27,4-2.65,4-2.65l7.42,2.4,3.15,1.33.83,3.32,3.43-.38.61-2.27,3.21.62.22,1.82-6.21,3.43,5,3.94,9.07,2.45,4.43,3.6,5-.76.56-2.49,1.66-.88-6.86-3-3.65.44,2.66-1.6-3.6-3.11,3.71-1.15,5.54,1.45,2.42,5,3.16,2.27,3.58,5.93,5.76,2.34,1.81,7.31,5.92,2.06.38,2.49.05,3.05,2.32,3.65.94,1.89,3.93-.27.84-4.21Z" style="fill: rgb(198, 255, 0); transform-origin: 271.04px 174.194px 0px;" id="elicu6hiehakk" class="animable"></path><path d="M333,172.09l.31,1.27-.23,3.82,1.44,2.94,2.65.28,1.05,4.21-2.94-.45,2.31,12.13-1.45,5.53,3.31,5.76,3.54,1.95,3,12,5.19,8.59,4.86,6.32,5.42.07.67-4.87.59-.75a97.71,97.71,0,0,0-2.17-11.78A95.65,95.65,0,0,0,333,172.09Z" style="fill: rgb(198, 255, 0); transform-origin: 347.86px 204.3px 0px;" id="elyfi2mfdu6p" class="animable"></path><polygon points="281.51 183.4 265.3 180.6 258.93 182.41 258.42 187.01 255.05 184.79 250.45 187.11 251.82 194.53 256.52 196.42 258.36 191.49 262.51 193.99 270.86 198.27 273.78 204.37 281.36 210.25 290.28 206.39 289.23 203.12 286.3 199.85 283.66 191.1 284.94 186.78 281.51 183.4" style="fill: rgb(198, 255, 0); transform-origin: 270.365px 195.425px 0px;" id="elsxrcxx4v9xi" class="animable"></polygon><polygon points="294.69 185.3 291.14 185.24 288.87 188.39 292.01 194.43 294.89 193.72 294.69 185.3" style="fill: rgb(198, 255, 0); transform-origin: 291.88px 189.835px 0px;" id="eln2fwtou2dm" class="animable"></polygon><polygon points="316.33 184.4 307.81 182.28 305.6 180.01 304 181.11 306.64 185.16 309.4 190.59 313.06 191.09 313.5 190.04 310.68 187.22 316.99 188 316.33 184.4" style="fill: rgb(198, 255, 0); transform-origin: 310.495px 185.55px 0px;" id="elp7rxv7wv8x" class="animable"></polygon><polygon points="271.49 280.43 270.82 281.53 277.96 281.88 281.39 284.32 285.71 283.72 286.65 280.9 281.34 281.27 271.49 280.43" style="fill: rgb(198, 255, 0); transform-origin: 278.735px 282.375px 0px;" id="elj97wcfxh1sl" class="animable"></polygon><polygon points="292.25 279.75 287.92 282.23 289.03 283.84 294.79 282.41 295.46 280.36 293.52 281.08 292.25 279.75" style="fill: rgb(198, 255, 0); transform-origin: 291.69px 281.795px 0px;" id="el5xez7zfdgzi" class="animable"></polygon><g id="elvreweggxyoo"><g style="opacity: 0.2; transform-origin: 281.91px 238.339px 0px;" class="animable"><polygon points="251.7 201.61 255.24 204.5 261.77 205.23 264.25 209.55 260.87 212.04 261.09 212.92 268.39 213.93 271.33 212.5 272.28 209.68 270.79 205.58 266.42 205.02 262.99 201.63 253.14 199.84 251.7 201.61" style="fill: rgb(255, 255, 255); transform-origin: 261.99px 206.885px 0px;" id="el4z839kt64zg" class="animable"></polygon><path d="M334.36,288.35l-7.8-1.12-9.41-1-6.87,1.7-6.75.27-6.71,3.31-3.93,1.21-2.44.6-4,3.81-4,2.88-6.92-2.29v-6.59l-4.15-.61-4.43,1.1-1.16-1.83-.55-4.1-2.1-1.83-3,1.21-.33,2.44-3.71,1.15-4.32-3.16-2.65-5,1.79-7,6.53-1.16,2.16,1.12,2.66-.66,2.83-2.82,3.1.17,5.69,5.88,1.49-.61-1.7-5-2-2.33-.6-4.32,7.32-5.58-.93-8.47,2.83-3.76L282,240.2l2.1-1,4.27-4.59-.22-1.83-3.49,1.1-1.1-1.61-2.44.61-3.54,1.82,1.05-3.32,7.21-4.14,1.28-2.43,4.31,4.1,2.49,1.5,2.88-1.65-2-2.55-5.47-2.17-6.8-4.67L276,217l-5.53.43-3.32-2h-3.77l-.22,1,1.15,6.54,1.44,2-.24,7.59-5.31-2.45-.1-3.26-5.21-1.06-2.59-1.95L252,218l5.27-6.25-.88-5.42-2.38.82-2-1.61-1.49-3.15-1.61.16v3.76l-2.33,1.05-3-7.48-2-.67-3.43-.56-3.11,2.66,5.48,3.11,1.82,3.54-9.46-4-7-4.61-1.93-5.87-6.2-.34-3.72,4a35.43,35.43,0,0,1-2.88,2.59,38.17,38.17,0,0,1-5.1,2.21l.05,4-5,1.49,1.05,2.33,8.53-.71,5.36,3.61,1.92,7.75-.73,7.48,2.26,7.2-3.51,12.39,2.68,16.5,4.3,8.81,4.64,6.38,3.43-.38-2-3.27-2.44-2.22-2.31-4.6,1.88-.94,5.08,7.21,4,6.54,1.42,5.76,5.48,4,8.9,3.67,12.29.24,4.37,2.45,3.54,2.88,4.59,1.45,5.21.12,4.82-1.43s.32,2.27.6,3.38-1.89,5.64-1.89,5.64l-1.34,5,3,4.43,5.37.79,8.63,5.38,3.43.56.82,3.32.77,1.46a95.79,95.79,0,0,0,41-33.41l-.28-1.63,3.29-12.34L345.72,282Z" style="fill: rgb(255, 255, 255); transform-origin: 275.18px 261.875px 0px;" id="elixrfg0bsyy" class="animable"></path><path d="M335.69,195.12l-3.48-3.6-4.31-4.11L325.37,181l4.15-.33-.33-2.27-2.94.49,2.17-1.71,2.27-2.21-.55-2.22-3.54-2.88-1.75-4.63a96.25,96.25,0,0,0-116.14.64l6,2.35L212.61,173l-4,1.93,1,6.09-1.61,1.1-1.61,3,1.21,3.93,3.88-.49-.62,4.15,3.77-.93,4.39-9.79-.21-3.71,6.09-2,.89-3L232.1,171l-.27-3.93,4.6-1.37s2.88-2.6,3.55-2.77a28.42,28.42,0,0,1,4,.18l4,1.83,4.65-1.15,3.38-3.43,5.21-.82a5.58,5.58,0,0,0,2.66.28c1.1-.27,4-2.65,4-2.65l7.42,2.4,3.15,1.33.83,3.32,3.43-.38.61-2.27,3.21.62.22,1.82-6.21,3.43,5,3.94,9.07,2.45,4.43,3.6,5-.76.56-2.49,1.66-.88-6.86-3-3.65.44,2.66-1.6-3.6-3.11,3.71-1.15,5.54,1.45,2.42,5,3.16,2.27,3.58,5.93,5.76,2.34,1.81,7.31,5.92,2.06.38,2.49.05,3.05,2.32,3.65.94,1.89,3.93-.27.84-4.21Z" style="fill: rgb(255, 255, 255); transform-origin: 271.04px 174.194px 0px;" id="elyg2kw6ajojp" class="animable"></path><path d="M333,172.09l.31,1.27-.23,3.82,1.44,2.94,2.65.28,1.05,4.21-2.94-.45,2.31,12.13-1.45,5.53,3.31,5.76,3.54,1.95,3,12,5.19,8.59,4.86,6.32,5.42.07.67-4.87.59-.75a97.71,97.71,0,0,0-2.17-11.78A95.65,95.65,0,0,0,333,172.09Z" style="fill: rgb(255, 255, 255); transform-origin: 347.86px 204.3px 0px;" id="elwbg4qej00x" class="animable"></path><polygon points="281.51 183.4 265.3 180.6 258.93 182.41 258.42 187.01 255.05 184.79 250.45 187.11 251.82 194.53 256.52 196.42 258.36 191.49 262.51 193.99 270.86 198.27 273.78 204.37 281.36 210.25 290.28 206.39 289.23 203.12 286.3 199.85 283.66 191.1 284.94 186.78 281.51 183.4" style="fill: rgb(255, 255, 255); transform-origin: 270.365px 195.425px 0px;" id="el6e56hqf2m8" class="animable"></polygon><polygon points="294.69 185.3 291.14 185.24 288.87 188.39 292.01 194.43 294.89 193.72 294.69 185.3" style="fill: rgb(255, 255, 255); transform-origin: 291.88px 189.835px 0px;" id="elyouh6tsgev" class="animable"></polygon><polygon points="316.33 184.4 307.81 182.28 305.6 180.01 304 181.11 306.64 185.16 309.4 190.59 313.06 191.09 313.5 190.04 310.68 187.22 316.99 188 316.33 184.4" style="fill: rgb(255, 255, 255); transform-origin: 310.495px 185.55px 0px;" id="elfetw649dftn" class="animable"></polygon><polygon points="271.49 280.43 270.82 281.53 277.96 281.88 281.39 284.32 285.71 283.72 286.65 280.9 281.34 281.27 271.49 280.43" style="fill: rgb(255, 255, 255); transform-origin: 278.735px 282.375px 0px;" id="el0qnbm0jshs9" class="animable"></polygon><polygon points="292.25 279.75 287.92 282.23 289.03 283.84 294.79 282.41 295.46 280.36 293.52 281.08 292.25 279.75" style="fill: rgb(255, 255, 255); transform-origin: 291.69px 281.795px 0px;" id="elrhsbsn46zxi" class="animable"></polygon></g></g></g></g><g id="freepik--Car--inject-2" style="transform-origin: 223.646px 286.953px 0px;" class="animable"><path d="M126.54,321.68a16.67,16.67,0,0,1,4.11-7.37c3.52-3.95,16.8-4.59,16.8-4.59s-7.37-7.51-15.78-6.84-11.21,7.44-10,12.27A9.84,9.84,0,0,0,126.54,321.68Z" style="fill: rgb(38, 50, 56); stroke: rgb(38, 50, 56); stroke-linecap: round; stroke-linejoin: round; transform-origin: 134.426px 312.259px 0px;" id="elfwftz3bxvy" class="animable"></path><g id="elp2xpx86mdri"><ellipse cx="144.67" cy="317.89" rx="13.24" ry="18" style="fill: rgb(38, 50, 56); stroke: rgb(38, 50, 56); stroke-linecap: round; stroke-linejoin: round; transform-origin: 144.67px 317.89px 0px; transform: rotate(-48.27deg);" class="animable"></ellipse></g><path d="M155.7,331.27c-4.09,4.58-13.32,3-20.62-3.5s-9.91-15.51-5.83-20.09,13.31-3,20.62,3.51S159.78,326.69,155.7,331.27Z" style="fill: rgb(38, 50, 56); stroke: rgb(38, 50, 56); stroke-linecap: round; stroke-linejoin: round; transform-origin: 142.476px 319.475px 0px;" id="eldx4vu08lv4" class="animable"></path><path d="M152.67,328.89C150,332.39,143,331.54,137,327s-8.69-11.1-6-14.61,9.69-2.65,15.69,1.92S155.34,325.38,152.67,328.89Z" style="fill: rgb(38, 50, 56); stroke: rgb(38, 50, 56); stroke-linecap: round; stroke-linejoin: round; transform-origin: 141.832px 320.639px 0px;" id="el22yu8il9o1u" class="animable"></path><path d="M153.65,326.28a6.63,6.63,0,0,0,0-1.34l-8.89-2.67a5.2,5.2,0,0,0-1.19-2.45l6.54-2.25a22,22,0,0,0-1.78-1.85l-6.07,2.87a4.67,4.67,0,0,0-3.68-1l-2.16-7.38a10.54,10.54,0,0,0-1.27.05l2.44,7.92a2.72,2.72,0,0,0-.15,2.86l-7.33-6.91a5.7,5.7,0,0,0-.19,1.45l9.16,7.69-6.42-.61c.34.45.69.89,1.08,1.33l5.5-.59a6.42,6.42,0,0,0,2.27,1.25l-2,4c.3.17.59.33.89.48l1.79-4.37a2.36,2.36,0,0,0,2.09-.63l3.33,6.87a8.34,8.34,0,0,0,2.06-.27l-5-7.3c0-.11.06-.22.08-.33Z" style="fill: rgb(255, 255, 255); stroke: rgb(38, 50, 56); stroke-linecap: round; stroke-linejoin: round; stroke-width: 0.5px; transform-origin: 141.802px 320.604px 0px;" id="el93q3zys83gl" class="animable"></path><path d="M142,322.07c-.31.35-1,.23-1.58-.27s-.76-1.19-.44-1.54,1-.23,1.58.27S142.31,321.71,142,322.07Z" style="fill: rgb(255, 255, 255); stroke: rgb(38, 50, 56); stroke-linecap: round; stroke-linejoin: round; transform-origin: 140.988px 321.165px 0px;" id="elf97bsmtffbg" class="animable"></path><path d="M297.43,306.25c-.63,9.2-10.3,16-21.61,15.27s-20-8.86-19.35-18.06,10.3-16,21.61-15.26S298.06,297.05,297.43,306.25Z" style="fill: rgb(38, 50, 56); stroke: rgb(38, 50, 56); stroke-linecap: round; stroke-linejoin: round; transform-origin: 276.949px 304.859px 0px;" id="elfptkezi6fdd" class="animable"></path><g id="el3m0yzm6w8ax"><ellipse cx="274.67" cy="305.83" rx="15.77" ry="19.88" style="fill: rgb(38, 50, 56); stroke: rgb(38, 50, 56); stroke-linecap: round; stroke-linejoin: round; transform-origin: 274.67px 305.83px 0px; transform: rotate(-86.11deg);" class="animable"></ellipse></g><path d="M290,306.36c-.43,6.43-7.65,11.18-16.11,10.6s-15-6.25-14.52-12.68,7.65-11.18,16.11-10.6S290.46,299.93,290,306.36Z" style="fill: rgb(38, 50, 56); stroke: rgb(38, 50, 56); stroke-linecap: round; stroke-linejoin: round; transform-origin: 274.684px 305.32px 0px;" id="el31frlbjn4wh" class="animable"></path><path d="M289.71,308.18l-7-4a3.69,3.69,0,0,0-1-2.05v0l6.31-2.17a11.41,11.41,0,0,0-1.06-1.26L281,301.5a6.38,6.38,0,0,0-3.16-1.19l1.13-6.08q-.54-.14-1.08-.24l-1.38,6.31a5.64,5.64,0,0,0-3.49,1.5l-5.42-7a11.79,11.79,0,0,0-1.16.48l5.75,7.82a3.15,3.15,0,0,0-.21.93,3.23,3.23,0,0,0,.3,1.59l-12.88-1.68c0,.13,0,.25,0,.38s0,.48,0,.72l13.71,2,1,.42a.05.05,0,0,1,0,0l-9.66,6.21c.4.29.82.56,1.26.82l9.91-6.36a7.14,7.14,0,0,0,1.49.26,6.68,6.68,0,0,0,1.91-.14l-2.1,8.67,2.3-.39,1.11-8.72a3.89,3.89,0,0,0,2.4-3.12l6.19,5.47A9.45,9.45,0,0,0,289.71,308.18Z" style="fill: rgb(255, 255, 255); stroke: rgb(38, 50, 56); stroke-linecap: round; stroke-linejoin: round; stroke-width: 0.5px; transform-origin: 274.555px 305.455px 0px;" id="eldtic19gy14" class="animable"></path><path d="M279.88,304.52a2.29,2.29,0,0,1-2.66,1.75c-1.4-.09-2.47-1-2.4-2.09a2.29,2.29,0,0,1,2.66-1.75C278.88,302.52,280,303.46,279.88,304.52Z" style="fill: rgb(255, 255, 255); stroke: rgb(38, 50, 56); stroke-linecap: round; stroke-linejoin: round; transform-origin: 277.353px 304.35px 0px;" id="elfa113dem8gn" class="animable"></path><path d="M190,245.7s-1.7,1.15-4,3.07a24.9,24.9,0,0,0-3.22,2s-7.43,7.67-9.38,12.55a19.71,19.71,0,0,0-1.27,9.33l0,0a8.86,8.86,0,0,0,.59,2.05c1.23,3,4.14,7,6.39,10.22s7.85,4.45,7.85,4.45l17.9-32.89S196.77,245.29,190,245.7Z" style="fill: rgb(38, 50, 56); stroke: rgb(38, 50, 56); stroke-linecap: round; stroke-linejoin: round; transform-origin: 188.44px 267.529px 0px;" id="el3wb9vojlwra" class="animable"></path><path d="M189.64,251.94a4.88,4.88,0,0,0-1.87,5.69,76.72,76.72,0,0,1,2.4,10.19s-.37,2.65,2.23,6.16,15,13.16,16.2,13.42,4.24,1.77,6.53-1.94S199.27,257,197.27,253.6,191.24,250.39,189.64,251.94Z" style="fill: rgb(38, 50, 56); stroke: rgb(255, 255, 255); stroke-linecap: round; stroke-linejoin: round; transform-origin: 201.407px 269.398px 0px;" id="el7gkupe3ubr7" class="animable"></path><path d="M207.19,285.2a57.48,57.48,0,0,1-11.48-9c-5.86-5.91-5.12-4.48-8.64-8.62s-4.49-5.39-6.91-3,.12,4.24,1.36,7.24-.24,6.88.56,11.89,11.48,7.13,16,7.5,10.45-.67,11.69-2.5S207.19,285.2,207.19,285.2Z" style="fill: rgb(38, 50, 56); stroke: rgb(255, 255, 255); stroke-linecap: round; stroke-linejoin: round; transform-origin: 194.585px 277.33px 0px;" id="elfyxlspto29" class="animable"></path><path d="M183.85,286.2s2.64-10,5.25-7.68c2.82,2.51,12.89,9.33,9.64,10.72S188.12,290.71,183.85,286.2Z" style="fill: rgb(255, 255, 255); stroke: rgb(38, 50, 56); stroke-linecap: round; stroke-linejoin: round; transform-origin: 191.614px 284.125px 0px;" id="elsfv863j9us" class="animable"></path><path d="M195.77,274.93l7.33,5c4.57,3.1,6.14,5.55,9.22,6.85s9.79.45,15.73-.77,9.86-1.84,9.18-4.52-7.11-7.86-12.74-11-11.82-3.63-12.37-2.06.34,6.17-6.71,5.68S194.63,273.42,195.77,274.93Z" style="fill: rgb(255, 255, 255); stroke: rgb(38, 50, 56); stroke-linecap: round; stroke-linejoin: round; transform-origin: 216.437px 277.497px 0px;" id="elcctfxha4eib" class="animable"></path><path d="M190.39,255.25s2.49,3.07,2.63,4.36-.37,2.65-.94,5.26-1.47,7.67,2.08,9.71,13.9,4.71,15.64,4.46,5.28-.11,9.95-2.24l1.95-1.26-10.23-13.79-3.18-4.69s3.64-3.2,6.8-4.19,12.13-4.51,12.13-4.51l.12-2.49s-9.57,1.48-15.27,2.55-8.86,2.06-12.87,3.08S192,253.51,190.39,255.25Z" style="fill: rgb(255, 255, 255); stroke: rgb(38, 50, 56); stroke-linecap: round; stroke-linejoin: round; transform-origin: 208.865px 262.463px 0px;" id="elscbl73djyno" class="animable"></path><path d="M199.62,261.59l2.79.38,2.15-1.74-3.86-2.61s-6.89-2.29-9.74-2.89a7.19,7.19,0,0,0-.57.52s2.49,3.07,2.63,4.36a7.85,7.85,0,0,1-.31,2.57A24.31,24.31,0,0,1,199.62,261.59Z" style="fill: rgb(255, 255, 255); stroke: rgb(38, 50, 56); stroke-linecap: round; stroke-linejoin: round; transform-origin: 197.475px 258.455px 0px;" id="ell44wrmxlndc" class="animable"></path><path d="M192.08,264.87s2.64-1.52,7.13.09,22.71,9.58,22.71,9.58l-5.47-4.77s-8.06-4.49-14.4-6.29S192.67,263.11,192.08,264.87Z" style="fill: rgb(38, 50, 56); stroke: rgb(38, 50, 56); stroke-linecap: round; stroke-linejoin: round; transform-origin: 207px 268.594px 0px;" id="ellqj8niz8lza" class="animable"></path><path d="M200.86,271.83l-4.12-4.26a4.71,4.71,0,0,0-3.69,1.51,4.48,4.48,0,0,0-1,3.05,4.8,4.8,0,0,0,2.09,2.45,29.28,29.28,0,0,0,4.72,1.94A7.35,7.35,0,0,1,200.86,271.83Z" style="fill: rgb(38, 50, 56); stroke: rgb(38, 50, 56); stroke-linecap: round; stroke-linejoin: round; transform-origin: 196.452px 272.042px 0px;" id="elaai2vqvihrv" class="animable"></path><path d="M180,252.78s-29.91,8-34.57,9.06-17.29,9.89-22.46,15.28a34.52,34.52,0,0,0-8.18,16.3,26,26,0,0,0,.81,13.63c2.07,5.92,6,11.18,7.91,12.87s4.4,3.9,4.4,3.9-6.25-8.93-1.66-15.5,15.16-3,21.3.66,15.28,15.74,15.28,15.74,58.16-8.34,72.78-7.88,20.25-1.26,20.25-1.26-5-9.71.71-17.71,16.52-9.22,23.74-7.64c11.65,2.54,20.44,13.29,19.57,24,0,0,19.33-6.72,26.33-12.76s7.74-25.85,6.13-32.93-6.71-12.6-16.91-18.83-17.9-8.53-30.23-8.91-36.6,5.89-36.6,5.89-21-7.94-24-6.5S209.46,261.31,209.3,264s16,19.26,16,19.26-20,5.09-30.73,4-18.75-9.37-20.55-12.7-3.27-3.43-3.27-3.43l-3.07.59a14.71,14.71,0,0,1,4.09-10C176.1,257.18,180,252.78,180,252.78Z" style="fill: rgb(198, 255, 0); stroke: rgb(38, 50, 56); stroke-linecap: round; stroke-linejoin: round; transform-origin: 223.646px 282.368px 0px;" id="elodcpz8ssxvl" class="animable"></path><path d="M285.75,282a64.66,64.66,0,0,0-24.34,2.17c-12.75,3.77-19.77,10.19-19.77,10.19s15.16-10.49,32.29-10.73,21.3,2.07,29.46,2.22,11.49-3.34,11.49-3.34-11.71,3.29-29.13-.51" style="fill: rgb(255, 255, 255); transform-origin: 278.26px 288.015px 0px;" id="elhwzxrp91bmc" class="animable"></path><path d="M118.22,297.16s5.24-4.71,16.64-5.5,24,1.5,24,1.5-18.13-1.62-27.71.5S118.22,297.16,118.22,297.16Z" style="fill: rgb(255, 255, 255); transform-origin: 138.54px 294.327px 0px;" id="el6i9c2ifkxjm" class="animable"></path><path d="M226.18,313.57c9.09-.7,19.68-.73,28.66-.56a19.24,19.24,0,0,1-.61-10c-5.28,1.65-11.68,3.5-19.21,5.41-24.89,6.32-48.32,2.89-71.43-.48a82.3,82.3,0,0,0-18.55-.35c.9.44,1.74.9,2.51,1.36,4.67,2.77,11,10.41,13.86,13.92C181.54,315.51,208.12,315,226.18,313.57Z" style="fill: rgb(38, 50, 56); transform-origin: 199.94px 312.94px 0px;" id="eleb4iveqvian" class="animable"></path><path d="M118.25,312.84a29.78,29.78,0,0,0,5.26,7.08c1.94,1.68,4.4,3.9,4.4,3.9S123.2,317.08,125,311C122.32,311.66,120,312.3,118.25,312.84Z" style="fill: rgb(38, 50, 56); transform-origin: 123.08px 317.41px 0px;" id="elxen74nd62vp" class="animable"></path><path d="M289.77,277.51s-9.48-3.7-26.73.37c-9.27,2.19-18.17,10.31-27,13.73-6.61,2.57-11.38,4.52-18.84,5.6,0,0,12.86.42,31.91-8.72s27.4-10.27,40.13-7.58C299.52,283.08,289.77,277.51,289.77,277.51Z" style="fill: rgb(38, 50, 56); transform-origin: 255.575px 286.592px 0px;" id="elwxxdm6epadd" class="animable"></path><path d="M249,294s13.44-10,25.91-9.35S294,289.17,294,289.17A58.89,58.89,0,0,0,249,294Z" style="fill: rgb(38, 50, 56); transform-origin: 271.5px 289.31px 0px;" id="elxt2tapol6b" class="animable"></path><path d="M118.52,304.08s5.37-8,27.62-6.25,48.1,7.77,55.8,8.43a150.62,150.62,0,0,0,18.44-.07s-19.54,3.58-37.8,1.3-42.91-9.71-62-.56C120.63,306.93,116.62,308.1,118.52,304.08Z" style="fill: rgb(38, 50, 56); transform-origin: 169.194px 302.915px 0px;" id="elbv9a0p8uqn8" class="animable"></path><path d="M190,245.7s-7.25,2.41-9.45,3.82-11.7,12.17-13.13,15.85a29.45,29.45,0,0,0-1.48,8.71l7.1-1.6s-3.39-8.15,10.82-20.54c7.69-6.7,10.25-3.87,10-5.41S190,245.7,190,245.7Z" style="fill: rgb(38, 50, 56); stroke: rgb(38, 50, 56); stroke-linecap: round; stroke-linejoin: round; transform-origin: 179.908px 259.808px 0px;" id="eloy5w02jqgc" class="animable"></path><path d="M318.64,276.89s-5.67,4.73-10.42,5.19-20-.54-22.33-1.06,3.63-7.5,9.2-7.94S308.31,273.31,318.64,276.89Z" style="fill: rgb(255, 255, 255); stroke: rgb(38, 50, 56); stroke-linecap: round; stroke-linejoin: round; transform-origin: 302.006px 277.579px 0px;" id="eltfeh4s0n8f" class="animable"></path><path d="M293.76,241.93s4.12,7.7,6.4,8.7,19.67,5.62,19.44,4.41-5.77-6.24-5.77-6.24S301.18,241.4,293.76,241.93Z" style="fill: rgb(255, 255, 255); stroke: rgb(38, 50, 56); stroke-linecap: round; stroke-linejoin: round; transform-origin: 306.681px 248.572px 0px;" id="elqcwjm9ejwo" class="animable"></path><path d="M117.89,284.67s4.14,1.56,15-1,25.43-10.2,33-9.55" style="fill: none; stroke: rgb(38, 50, 56); stroke-linecap: round; stroke-linejoin: round; transform-origin: 141.89px 279.611px 0px;" id="elizvtygipgmg" class="animable"></path><path d="M125.26,285.11l.1-.17c1-1.66,9.08-14.85,27-24.59l-8.55,1.95s-13.14,6.25-22.06,15.92c0,0-3.32,4.58-3.89,6.45C117.89,284.67,119.75,285.24,125.26,285.11Z" style="fill: rgb(38, 50, 56); stroke: rgb(38, 50, 56); stroke-linecap: round; stroke-linejoin: round; transform-origin: 135.11px 272.74px 0px;" id="elprrp4rllyqb" class="animable"></path><path d="M247.51,276.76s36.14-3.07,40.62-5a13.3,13.3,0,0,0,8.07-11.37c.39-5.55-7-9.82-7-9.82l.59,1.13-6.69-1.3.55,1.29s-18.64-2.21-23.14-2.78-10.5-1-10.5-1,11.8,4.67,11.42,8.37-8.42,13.51-14.43,16S242.88,276.8,247.51,276.76Z" style="fill: rgb(38, 50, 56); stroke: rgb(38, 50, 56); stroke-linecap: round; stroke-linejoin: round; transform-origin: 269.715px 262.335px 0px;" id="el3difqk71lak" class="animable"></path><path d="M248.6,246.72s13.79,6.17,16.71,7.22,3,6.34-1.42,12.31-28.57,16.26-28.57,16.26L232.48,284l-16.9-15s-4.34-3.26-2.82-7.34,11.36-18.34,12.58-19.12,1.45-2.79,6.39-1.34S248.6,246.72,248.6,246.72Z" style="fill: rgb(255, 255, 255); stroke: rgb(38, 50, 56); stroke-linecap: round; stroke-linejoin: round; transform-origin: 239.906px 262.344px 0px;" id="elfvgeow2dvao" class="animable"></path><path d="M213.53,265.48l49.5-2.83a47.35,47.35,0,0,1-7.07,7.92c-4,3.39-23.48,12.16-23.48,12.16Z" style="fill: rgb(198, 255, 0); transform-origin: 238.28px 272.69px 0px;" id="elz9pi0dfdh7a" class="animable"></path><g id="elfmztfxpohfo"><path d="M213.53,265.48l49.5-2.83a47.35,47.35,0,0,1-7.07,7.92c-4,3.39-23.48,12.16-23.48,12.16Z" style="fill: rgb(255, 255, 255); opacity: 0.5; transform-origin: 238.28px 272.69px 0px;" class="animable"></path></g><polygon points="214.38 263.79 256.63 263.08 213.53 265.48 214.38 263.79" style="fill: rgb(38, 50, 56); transform-origin: 235.08px 264.28px 0px;" id="elrehrr16zaac" class="animable"></polygon><polygon points="218.01 268.42 258.7 263.53 216.59 269.17 218.01 268.42" style="fill: rgb(38, 50, 56); transform-origin: 237.645px 266.35px 0px;" id="elts0w3xyaooc" class="animable"></polygon><path d="M265.31,253.94c-.6-.21-1.67-.65-3-1.21,1.29,2.07,2.79,6.42-1.6,12.26-4.22,5.6-19.69,13-30.2,17.26l2,1.74,2.84-1.48s24.11-10.3,28.57-16.26S268.24,255,265.31,253.94Z" style="fill: rgb(38, 50, 56); stroke: rgb(38, 50, 56); stroke-linecap: round; stroke-linejoin: round; transform-origin: 248.958px 268.36px 0px;" id="elc4tc5ywk5hi" class="animable"></path><path d="M235.32,282.51l-16.38-12.62s-6.08-4.9-4.24-8.49,12.9-18.63,14.72-19.28c1.21-.44,4.8,0,7.25.48-5.3-1.67-10.66-3-12.09-2.38-3.05,1.44-15.12,21.09-15.28,23.78s16,19.26,16,19.26l2.77,2.71Z" style="fill: rgb(38, 50, 56); stroke: rgb(38, 50, 56); stroke-linecap: round; stroke-linejoin: round; transform-origin: 222.984px 263.018px 0px;" id="el0e1bfokczwn6" class="animable"></path><path d="M283.12,250.39s7.27,11.54-6.35,23" style="fill: none; stroke: rgb(255, 255, 255); stroke-linecap: round; stroke-linejoin: round; transform-origin: 280.914px 261.89px 0px;" id="el7dzdv0yy7lt" class="animable"></path><path d="M289.22,250.56s6.8,11.44-5.28,21.91" style="fill: none; stroke: rgb(255, 255, 255); stroke-linecap: round; stroke-linejoin: round; transform-origin: 287.534px 261.515px 0px;" id="eljmj0ikuu3fl" class="animable"></path><path d="M127.68,284.65s11.94-13.65,25.08-19.91c0,0,8.6-2.93,18.79-5.52" style="fill: none; stroke: rgb(38, 50, 56); stroke-linecap: round; stroke-linejoin: round; transform-origin: 149.615px 271.935px 0px;" id="elo61se3h0cp" class="animable"></path><path d="M167,273.83s4,12,3.94,14.63-3.14,5.28-1.67,8.42S187.64,317,187.64,317l1.89,1.77" style="fill: none; stroke: rgb(38, 50, 56); stroke-linecap: round; stroke-linejoin: round; transform-origin: 178.265px 296.3px 0px;" id="eloklw6egvdtk" class="animable"></path><path d="M231.38,284.55a7.25,7.25,0,0,1,4.47,2.31c1.55,2,4.31,19,4.53,22.55a26.12,26.12,0,0,1-.2,4.9" style="fill: none; stroke: rgb(38, 50, 56); stroke-linecap: round; stroke-linejoin: round; transform-origin: 235.899px 299.43px 0px;" id="eltqevdlbotud" class="animable"></path><path d="M158.23,275.39s-3,9.29-5.35,11.61S144.45,293,142,297.23a17.44,17.44,0,0,0-2.31,8.29" style="fill: none; stroke: rgb(38, 50, 56); stroke-linecap: round; stroke-linejoin: round; transform-origin: 148.96px 290.455px 0px;" id="elqbk9ot0oh9" class="animable"></path><path d="M288.13,271.75c12.73-5.66,6-20.94,6-20.94l19.58,3.77s8.29,11.43-3.3,19.69" style="fill: none; stroke: rgb(38, 50, 56); stroke-linecap: round; stroke-linejoin: round; transform-origin: 302.356px 262.54px 0px;" id="el9in1439wik" class="animable"></path><path d="M332.61,276s-1.56,5.63-8.36,9.45-11.09,5.21-12,6.34-2.07,5.69,2.16,9.1,11.92-5.2,14.34-11A62.45,62.45,0,0,0,332.61,276Z" style="fill: rgb(38, 50, 56); stroke: rgb(38, 50, 56); stroke-linecap: round; stroke-linejoin: round; transform-origin: 321.997px 288.832px 0px;" id="elk66eynqzoa" class="animable"></path><path d="M303.58,295s-1.08,8.72-.55,9.34,8-2.41,8-2.41-2.85-5.93-2.33-8.3Z" style="fill: rgb(38, 50, 56); stroke: rgb(38, 50, 56); stroke-linecap: round; stroke-linejoin: round; transform-origin: 306.957px 299.027px 0px;" id="el3c61dbxu3q7" class="animable"></path><path d="M303,304.34s-1.08,5.73-.1,5.78,18.36-2.79,26-14.23" style="fill: none; stroke: rgb(38, 50, 56); stroke-linecap: round; stroke-linejoin: round; transform-origin: 315.694px 303.005px 0px;" id="el7mnoye6ihrx" class="animable"></path><path d="M223.27,280.8l-4.09,2.91A26.14,26.14,0,0,0,214.6,285c-1.17.61-3.88,4.33-4.21,5.82a2.39,2.39,0,0,0,2.14,2.88c1.35.12,8.7-5.87,9.41-6.75a8.08,8.08,0,0,0,1.1-2.69l2.32-1.91Z" style="fill: rgb(198, 255, 0); stroke: rgb(38, 50, 56); stroke-linecap: round; stroke-linejoin: round; transform-origin: 217.849px 287.251px 0px;" id="elpfn0lti54rs" class="animable"></path><path d="M172.64,272.06s-1.39-2.34.71-8.69,12.6-14.6,12.6-14.6" style="fill: none; stroke: rgb(255, 255, 255); stroke-linecap: round; stroke-linejoin: round; transform-origin: 179.069px 260.415px 0px;" id="elw4u6cc7d3k" class="animable"></path><path d="M204,249s-2.29-4.91-6.26-6-7.73,1.68-9.06,3.91-1,7.56.91,8.4a58.13,58.13,0,0,0,5.88,1.92s4.11,2.36,7.25,2.42S207.3,255.79,204,249Z" style="fill: rgb(255, 255, 255); stroke: rgb(38, 50, 56); stroke-linecap: round; stroke-linejoin: round; transform-origin: 196.877px 251.203px 0px;" id="ela9kt1ztvji" class="animable"></path><path d="M205.75,254.3A18.42,18.42,0,0,0,204,249a13.85,13.85,0,0,0-4.24-5.05c-1.13,2.55-3.62,7.81-5.55,9.44,0,0,6.26,4.09,8.88,3.62A3.4,3.4,0,0,0,205.75,254.3Z" style="fill: rgb(38, 50, 56); stroke: rgb(38, 50, 56); stroke-linecap: round; stroke-linejoin: round; transform-origin: 199.98px 250.499px 0px;" id="el1wamr8o7s21" class="animable"></path></g><defs>     <filter id="active" height="200%">         <feMorphology in="SourceAlpha" result="DILATED" operator="dilate" radius="2"></feMorphology>                <feFlood flood-color="#32DFEC" flood-opacity="1" result="PINK"></feFlood>        <feComposite in="PINK" in2="DILATED" operator="in" result="OUTLINE"></feComposite>        <feMerge>            <feMergeNode in="OUTLINE"></feMergeNode>            <feMergeNode in="SourceGraphic"></feMergeNode>        </feMerge>    </filter>    <filter id="hover" height="200%">        <feMorphology in="SourceAlpha" result="DILATED" operator="dilate" radius="2"></feMorphology>                <feFlood flood-color="#ff0000" flood-opacity="0.5" result="PINK"></feFlood>        <feComposite in="PINK" in2="DILATED" operator="in" result="OUTLINE"></feComposite>        <feMerge>            <feMergeNode in="OUTLINE"></feMergeNode>            <feMergeNode in="SourceGraphic"></feMergeNode>        </feMerge>            <feColorMatrix type="matrix" values="0   0   0   0   0                0   1   0   0   0                0   0   0   0   0                0   0   0   1   0 "></feColorMatrix>    </filter></defs><defs><clipPath id="freepik--clip-path--inject-2"><circle cx="267.22" cy="242.23" r="96.18" transform="translate(-93.01 259.9) rotate(-45)" style="fill:#fff"></circle></clipPath></defs></svg>