<svg class="animated" id="freepik_stories-success-factors" xmlns="http://www.w3.org/2000/svg" viewBox="0 0 500 500" version="1.1" xmlns:xlink="http://www.w3.org/1999/xlink" xmlns:svgjs="http://svgjs.com/svgjs">
    <style>svg#freepik_stories-success-factors:not(.animated) .animable {opacity: 0;}svg#freepik_stories-success-factors.animated #freepik--Floor--inject-49 {animation: 1s 1 forwards cubic-bezier(.36,-0.01,.5,1.38) zoomIn;animation-delay: 0s;}svg#freepik_stories-success-factors.animated #freepik--Shadows--inject-49 {animation: 1s 1 forwards cubic-bezier(.36,-0.01,.5,1.38) lightSpeedLeft;animation-delay: 0s;}svg#freepik_stories-success-factors.animated #freepik--Graphics--inject-49 {animation: 1s 1 forwards cubic-bezier(.36,-0.01,.5,1.38) lightSpeedLeft;animation-delay: 0s;}svg#freepik_stories-success-factors.animated #freepik--Trophy--inject-49 {animation: 1s 1 forwards cubic-bezier(.36,-0.01,.5,1.38) slideRight;animation-delay: 0s;}svg#freepik_stories-success-factors.animated #freepik--speech-bubble--inject-49 {animation: 1s 1 forwards cubic-bezier(.36,-0.01,.5,1.38) slideRight;animation-delay: 0s;}svg#freepik_stories-success-factors.animated #freepik--Factors--inject-49 {animation: 1s 1 forwards cubic-bezier(.36,-0.01,.5,1.38) slideDown;animation-delay: 0s;}svg#freepik_stories-success-factors.animated #freepik--Character--inject-49 {animation: 1s 1 forwards cubic-bezier(.36,-0.01,.5,1.38) zoomIn;animation-delay: 0s;}            @keyframes zoomIn {                0% {                    opacity: 0;                    transform: scale(0.5);                }                100% {                    opacity: 1;                    transform: scale(1);                }            }                    @keyframes lightSpeedLeft {              from {                transform: translate3d(-50%, 0, 0) skewX(20deg);                opacity: 0;              }              60% {                transform: skewX(-10deg);                opacity: 1;              }              80% {                transform: skewX(2deg);              }              to {                opacity: 1;                transform: translate3d(0, 0, 0);              }            }                    @keyframes slideRight {                0% {                    opacity: 0;                    transform: translateX(30px);                }                100% {                    opacity: 1;                    transform: translateX(0);                }            }                    @keyframes slideDown {                0% {                    opacity: 0;                    transform: translateY(-30px);                }                100% {                    opacity: 1;                    transform: translateY(0);                }            }        </style>
    <g id="freepik--Floor--inject-49" class="animable" style="transform-origin: 250px 354.062px;">
        <path id="freepik--floor--inject-49" d="M81.08,451.54c-93.29-53.86-93.29-141.19,0-195s244.55-53.86,337.84,0,93.29,141.19,0,195.05S174.37,505.4,81.08,451.54Z" style="fill: rgb(250, 250, 250); transform-origin: 250px 354.062px;" class="animable"></path>
    </g>
    <g id="freepik--Shadows--inject-49" class="animable" style="transform-origin: 255.98px 408.53px;">
        <polygon id="freepik--Shadow--inject-49" points="279.36 369.49 285.44 444.96 263.66 457.54 132.94 457.54 111.16 444.96 117.33 369.44 139.03 356.92 257.58 356.92 279.36 369.49" style="fill: rgb(230, 230, 230); transform-origin: 198.3px 407.23px;" class="animable"></polygon>
        <ellipse id="freepik--shadow--inject-49" cx="326.18" cy="417.06" rx="74.62" ry="43.08" style="fill: rgb(230, 230, 230); transform-origin: 326.18px 417.06px;" class="animable"></ellipse>
    </g>
    <g id="freepik--Graphics--inject-49" class="animable" style="transform-origin: 251.391px 132.519px;">
        <g id="freepik--Gears--inject-49" class="animable" style="transform-origin: 444.939px 211.64px;">
            <path id="freepik--Gear--inject-49" d="M454.27,220.09l0-4.29a1.24,1.24,0,0,0-1-1.25l-4.14-.42a2.07,2.07,0,0,1-1.44-1.4c-.18-.46-.37-.91-.58-1.35a2.13,2.13,0,0,1-.14-2l2.77-3.4c.31-.38.1-1.13-.48-1.69l-2.71-2.62c-.57-.55-1.34-.76-1.71-.47l-3.5,2.77a2,2,0,0,1-1.8,0,16.22,16.22,0,0,0-1.83-.73,1.92,1.92,0,0,1-1.23-1.52l-.42-3.62a1.28,1.28,0,0,0-1.12-1.21l-4.78,0A1.2,1.2,0,0,0,429,198l-.43,3.91a1.66,1.66,0,0,1-1,1.33,15.17,15.17,0,0,0-2.39,1,2,2,0,0,1-1.87-.43l-2.68-2.08c-.61-.47-1.38-.58-1.72-.24l-3.51,3.45c-.35.34-.2,1.13.32,1.76l2,2.45a2,2,0,0,1,.5,1.94,15.16,15.16,0,0,0-.93,2.19,1.65,1.65,0,0,1-1.23,1.06l-4.31.48a1.22,1.22,0,0,0-.94,1.26l0,4.28a1.24,1.24,0,0,0,1,1.26l4.15.42a2.1,2.1,0,0,1,1.44,1.4q.25.69.57,1.35a2.13,2.13,0,0,1,.14,2l-2.77,3.4c-.31.38-.09,1.13.48,1.69l2.71,2.62c.57.55,1.34.76,1.72.47l3.49-2.77a2,2,0,0,1,1.8,0,16.22,16.22,0,0,0,1.83.73,1.92,1.92,0,0,1,1.23,1.52l.42,3.62a1.29,1.29,0,0,0,1.13,1.21l4.77,0a1.2,1.2,0,0,0,1.1-1.09l.43-3.9a1.65,1.65,0,0,1,1-1.33,15.69,15.69,0,0,0,2.4-1,2,2,0,0,1,1.86.43l2.69,2.08c.6.47,1.37.58,1.71.24l3.52-3.45c.34-.34.19-1.13-.33-1.76l-2-2.45a2.06,2.06,0,0,1-.5-1.94,14.12,14.12,0,0,0,.93-2.19,1.65,1.65,0,0,1,1.23-1.06l4.31-.48A1.22,1.22,0,0,0,454.27,220.09Zm-21.67,7.12a9.15,9.15,0,1,1,9.34-9.2A9.24,9.24,0,0,1,432.6,227.21Z" style="fill: rgb(240, 240, 240); transform-origin: 432.541px 218.085px;" class="animable"></path>
            <path id="freepik--gear--inject-49" d="M479.07,198.91v-2.75a.81.81,0,0,0-.67-.81l-2.66-.27a1.35,1.35,0,0,1-.92-.9c-.11-.29-.24-.58-.38-.87a1.36,1.36,0,0,1-.08-1.26l1.78-2.18c.19-.25.06-.73-.31-1.09l-1.74-1.68c-.37-.36-.86-.49-1.1-.3l-2.25,1.77a1.28,1.28,0,0,1-1.16,0,9.85,9.85,0,0,0-1.17-.47,1.24,1.24,0,0,1-.79-1l-.27-2.32a.83.83,0,0,0-.72-.78l-3.07,0a.77.77,0,0,0-.71.69l-.27,2.51a1.06,1.06,0,0,1-.63.85,10.41,10.41,0,0,0-1.54.64,1.3,1.3,0,0,1-1.19-.28l-1.73-1.34c-.39-.3-.88-.37-1.1-.15l-2.26,2.22c-.22.21-.12.72.21,1.12l1.31,1.57a1.3,1.3,0,0,1,.31,1.25,9.75,9.75,0,0,0-.59,1.41,1.06,1.06,0,0,1-.79.68l-2.77.31a.78.78,0,0,0-.6.8v2.76a.79.79,0,0,0,.66.8l2.66.27a1.34,1.34,0,0,1,.93.9,8.41,8.41,0,0,0,.37.87,1.37,1.37,0,0,1,.09,1.26l-1.78,2.19c-.2.24-.06.73.31,1.08l1.73,1.68c.37.36.87.5,1.11.31l2.24-1.78a1.25,1.25,0,0,1,1.16,0,11.84,11.84,0,0,0,1.17.46,1.25,1.25,0,0,1,.79,1l.27,2.32a.83.83,0,0,0,.72.78h3.07a.78.78,0,0,0,.71-.7l.27-2.51a1.06,1.06,0,0,1,.63-.85,9.94,9.94,0,0,0,1.54-.63,1.28,1.28,0,0,1,1.2.28l1.72,1.34c.39.3.89.37,1.11.15l2.25-2.22c.22-.22.13-.72-.21-1.13l-1.3-1.57a1.31,1.31,0,0,1-.32-1.25,11.06,11.06,0,0,0,.6-1.41,1,1,0,0,1,.78-.67l2.77-.32A.76.76,0,0,0,479.07,198.91Zm-13.92,4.57a5.88,5.88,0,1,1,6-5.91A5.94,5.94,0,0,1,465.15,203.48Z" style="fill: rgb(245, 245, 245); transform-origin: 465.14px 197.59px;" class="animable"></path>
        </g>
        <g id="freepik--gears--inject-49" class="animable" style="transform-origin: 130.904px 52.1637px;">
            <path id="freepik--gear--inject-49" d="M134.45,37.15l-3.6,2.32a1.25,1.25,0,0,0-.49,1.55l1.88,3.72a2.06,2.06,0,0,1-.4,2c-.29.4-.57.8-.83,1.22-.41.68-1.09,1.23-1.58,1.18l-4.36-.5c-.48-.05-1,.54-1.16,1.32l-.74,3.69c-.16.79.08,1.55.53,1.7l4.21,1.45a1.94,1.94,0,0,1,.94,1.54,18.28,18.28,0,0,0,.38,1.93,2,2,0,0,1-.62,1.86l-2.82,2.3a1.28,1.28,0,0,0-.41,1.6l2.6,4a1.18,1.18,0,0,0,1.5.34L133,68.59a1.65,1.65,0,0,1,1.65.12,17.13,17.13,0,0,0,2.12,1.48,2,2,0,0,1,.64,1.8l-.3,3.39c-.07.76.26,1.47.73,1.57l4.8,1.09c.47.11,1.05-.44,1.3-1.22l1-3a2.06,2.06,0,0,1,1.37-1.47,14.49,14.49,0,0,0,2.34-.4,1.65,1.65,0,0,1,1.55.46l2.74,3.37a1.2,1.2,0,0,0,1.56.11l3.6-2.32a1.24,1.24,0,0,0,.5-1.55l-1.88-3.72a2.05,2.05,0,0,1,.39-2,13.81,13.81,0,0,0,.83-1.22c.42-.68,1.1-1.23,1.58-1.18l4.36.5c.49,0,1-.54,1.17-1.32l.74-3.69c.16-.78-.08-1.55-.53-1.7L161,56.25a2,2,0,0,1-.94-1.54,14.31,14.31,0,0,0-.38-1.93,1.93,1.93,0,0,1,.63-1.86l2.82-2.3a1.29,1.29,0,0,0,.41-1.6L161,43a1.19,1.19,0,0,0-1.51-.34l-3.51,1.75a1.65,1.65,0,0,1-1.65-.12,18,18,0,0,0-2.13-1.48,2,2,0,0,1-.64-1.8l.31-3.39c.07-.76-.26-1.47-.73-1.57L146.28,35c-.47-.11-1.05.44-1.3,1.22l-1,3a2.06,2.06,0,0,1-1.37,1.47,14.31,14.31,0,0,0-2.34.4,1.67,1.67,0,0,1-1.56-.46L136,37.26A1.21,1.21,0,0,0,134.45,37.15Zm17.7,14.39a9.15,9.15,0,1,1-12.79-2.9A9.25,9.25,0,0,1,152.15,51.54Z" style="fill: rgb(240, 240, 240); transform-origin: 144.48px 56.52px;" class="animable"></path>
            <path id="freepik--gear--inject-49" d="M103.24,27.71l-2.32,1.5a.8.8,0,0,0-.32,1l1.21,2.39a1.33,1.33,0,0,1-.25,1.26,8.23,8.23,0,0,0-.53.78c-.27.44-.71.79-1,.76l-2.8-.32c-.31,0-.64.34-.75.85L96,38.29c-.1.5.05,1,.34,1.09l2.71.93a1.25,1.25,0,0,1,.6,1,9,9,0,0,0,.24,1.24,1.22,1.22,0,0,1-.4,1.19l-1.81,1.48a.83.83,0,0,0-.26,1l1.67,2.57a.76.76,0,0,0,1,.22l2.26-1.12a1.07,1.07,0,0,1,1.06.07,10.38,10.38,0,0,0,1.36,1,1.31,1.31,0,0,1,.42,1.16l-.2,2.17c0,.49.17,1,.47,1l3.08.7c.31.07.68-.28.84-.78l.62-1.95c.16-.5.55-.91.88-.94a9.61,9.61,0,0,0,1.5-.26,1.07,1.07,0,0,1,1,.3l1.76,2.16a.78.78,0,0,0,1,.08l2.31-1.5a.79.79,0,0,0,.32-1l-1.21-2.39a1.34,1.34,0,0,1,.26-1.26c.19-.25.37-.52.53-.78.27-.44.7-.79,1-.76l2.8.32c.32,0,.65-.34.75-.85l.48-2.37c.1-.5,0-1-.34-1.09L120.29,40a1.25,1.25,0,0,1-.6-1,10.89,10.89,0,0,0-.25-1.24,1.26,1.26,0,0,1,.4-1.19l1.81-1.48a.83.83,0,0,0,.27-1l-1.67-2.57a.77.77,0,0,0-1-.22L117,32.38a1.05,1.05,0,0,1-1-.07,10.48,10.48,0,0,0-1.37-1,1.31,1.31,0,0,1-.41-1.16l.19-2.17c.05-.49-.16-1-.46-1l-3.09-.7c-.3-.06-.67.29-.83.79l-.62,1.95c-.16.5-.55.91-.88.94a9.71,9.71,0,0,0-1.51.25,1,1,0,0,1-1-.29l-1.76-2.16A.76.76,0,0,0,103.24,27.71ZM114.6,37a5.88,5.88,0,1,1-8.21-1.86A5.93,5.93,0,0,1,114.6,37Z" style="fill: rgb(245, 245, 245); transform-origin: 109.693px 40.1361px;" class="animable"></path>
        </g>
        <g id="freepik--Stars--inject-49" class="animable" style="transform-origin: 360.729px 76.1124px;">
            <path d="M414.65,26l7,5.58L430.21,29a1.12,1.12,0,0,1,1.38,1.47l-3.14,8.38,5.13,7.34a1.13,1.13,0,0,1-1,1.77l-8.94-.4-5.39,7.14a1.12,1.12,0,0,1-2-.37L413.9,45.7l-8.46-2.92a1.12,1.12,0,0,1-.25-2l7.46-4.94.17-8.94A1.13,1.13,0,0,1,414.65,26Z" style="fill: rgb(245, 245, 245); transform-origin: 419.23px 40.4653px;" id="elqsmyklozaj" class="animable"></path>
            <path d="M453.64,47.27,453,52.19l3.71,3.29a.62.62,0,0,1-.3,1.08l-4.87.95-2,4.54a.62.62,0,0,1-1.12.05l-2.4-4.34-4.94-.48a.62.62,0,0,1-.39-1.05l3.38-3.62-1.06-4.85a.62.62,0,0,1,.87-.7l4.49,2.1,4.28-2.51A.63.63,0,0,1,453.64,47.27Z" style="fill: rgb(240, 240, 240); transform-origin: 448.719px 54.4802px;" id="elbw26g5gcc16" class="animable"></path>
            <path d="M277.59,111.31l-.61,4.93,3.71,3.29a.63.63,0,0,1-.3,1.08l-4.87.94-2,4.55a.63.63,0,0,1-1.12.05l-2.4-4.34-4.94-.48a.63.63,0,0,1-.4-1l3.39-3.63L267,111.81a.63.63,0,0,1,.88-.7l4.49,2.1,4.28-2.51A.63.63,0,0,1,277.59,111.31Z" style="fill: rgb(240, 240, 240); transform-origin: 272.713px 118.542px;" id="elwqekwrnvfya" class="animable"></path>
        </g>
        <g id="freepik--stars--inject-49" class="animable" style="transform-origin: 50.9332px 187.002px;">
            <path d="M55.13,187.16l-10-.12-5.76,8.16a1.26,1.26,0,0,1-2.23-.35l-3-9.54-9.54-3a1.26,1.26,0,0,1-.36-2.23l8.16-5.77-.14-10a1.26,1.26,0,0,1,2-1l8,6,9.46-3.21a1.26,1.26,0,0,1,1.6,1.59l-3.2,9.46,6,8A1.26,1.26,0,0,1,55.13,187.16Z" style="fill: rgb(240, 240, 240); transform-origin: 40.0395px 179.401px;" id="elboaaxiwj8lw" class="animable"></path>
            <path d="M62.67,166.58l1.17-5.41-3.8-4a.7.7,0,0,1,.44-1.17L66,155.4l2.66-4.85a.7.7,0,0,1,1.25,0l2.24,5.06,5.44,1a.7.7,0,0,1,.33,1.21l-4.12,3.69.7,5.49a.7.7,0,0,1-1,.7L68.66,165l-5,2.37A.7.7,0,0,1,62.67,166.58Z" style="fill: rgb(245, 245, 245); transform-origin: 69.005px 158.967px;" id="elccvvvwz9rm7" class="animable"></path>
            <path d="M34.09,217.92l3.34-4.41-1.74-5.26a.7.7,0,0,1,.89-.88l5.24,1.82,4.46-3.28a.7.7,0,0,1,1.11.58L47.28,212l4.5,3.23a.7.7,0,0,1-.21,1.24l-5.3,1.6-1.68,5.28a.7.7,0,0,1-1.24.19L40.19,219l-5.54,0A.7.7,0,0,1,34.09,217.92Z" style="fill: rgb(245, 245, 245); transform-origin: 43.0247px 214.808px;" id="el9utmi94mn6w" class="animable"></path>
        </g>
    </g>
    <g id="freepik--Trophy--inject-49" class="animable" style="transform-origin: 198.332px 284.985px;">
        <g id="freepik--trophy--inject-49" class="animable" style="transform-origin: 198.332px 284.985px;">
            <polygon points="259.44 365.59 243.01 356.11 153.59 356.11 137.23 365.55 132.57 422.51 132.57 428.48 149.01 437.97 247.6 437.97 264.03 428.48 264.03 422.51 259.44 365.59" style="fill: rgb(55, 71, 79); transform-origin: 198.3px 397.04px;" id="elsnee73aofb" class="animable"></polygon>
            <g id="el5nsc0e6c50s">
                <polygon points="149.01 437.97 149.01 432 132.57 422.51 132.57 428.48 149.01 437.97" style="opacity: 0.1; transform-origin: 140.79px 430.24px;" class="animable"></polygon>
            </g>
            <g id="elh792wcm6ngl">
                <polygon points="247.6 437.97 247.6 432 264.03 422.51 264.03 428.48 247.6 437.97" style="opacity: 0.1; transform-origin: 255.815px 430.24px;" class="animable"></polygon>
            </g>
            <polygon points="259.44 365.59 264.03 422.51 247.6 432 149.01 432 132.57 422.51 137.23 365.55 153.59 356.11 243.01 356.11 259.44 365.59" style="fill: rgb(69, 90, 100); transform-origin: 198.3px 394.055px;" id="eltcv6cptn6n" class="animable"></polygon>
            <path d="M256.61,364.14l2,21.3h0c.09,10.17.07,20.34.11,30.52v.14l-.13.08-15,8.72-.07,0h-.08l-45.14.1-45.13-.1h-.08l-.07,0-15-8.72-.12-.08V416c0-10.18,0-20.35.1-30.52h0l2-21.21-1.74,21.24v0c.09,10.17.07,20.34.11,30.52l-.13-.23,15.06,8.66-.14,0,45.13-.11,45.14.11-.15,0,15.07-8.65-.13.22c0-10.18,0-20.35.11-30.52v0Z" style="fill: rgb(38, 50, 56); transform-origin: 198.31px 394.57px;" id="ellk3s3fge3c" class="animable"></path>
            <polygon points="253.9 333.33 238.85 324.65 157.75 324.65 142.77 333.3 138.12 385.45 138.16 385.47 138.12 415.96 153.17 424.65 243.44 424.65 258.49 415.96 258.49 385.45 253.9 333.33" style="fill: rgb(55, 71, 79); transform-origin: 198.305px 374.65px;" id="elfya1a878igs" class="animable"></polygon>
            <polygon points="253.9 333.33 258.49 385.45 243.44 394.14 153.17 394.14 138.12 385.45 142.77 333.3 157.75 324.65 238.85 324.65 253.9 333.33" style="fill: rgb(69, 90, 100); transform-origin: 198.305px 359.395px;" id="el27itf68sgmxi" class="animable"></polygon>
            <g id="elb4ksdh8m2fp">
                <polygon points="153.17 424.65 153.17 394.14 138.12 385.45 138.12 415.96 153.17 424.65" style="opacity: 0.1; transform-origin: 145.645px 405.05px;" class="animable"></polygon>
            </g>
            <g id="elhtg8oby2gmv">
                <polygon points="243.44 424.65 243.44 394.14 258.49 385.45 258.49 415.96 243.44 424.65" style="opacity: 0.1; transform-origin: 250.965px 405.05px;" class="animable"></polygon>
            </g>
            <rect x="172.96" y="398.85" width="49.63" height="19.03" style="fill: rgb(38, 50, 56); transform-origin: 197.775px 408.365px;" id="elw29mlbo8utl" class="animable"></rect>
            <rect x="174.02" y="399.68" width="49.63" height="19.03" style="fill: rgb(250, 250, 250); transform-origin: 198.835px 409.195px;" id="el55g1mb6nfuf" class="animable"></rect>
            <path d="M219.32,407.05v-.52a2.4,2.4,0,0,0-4.79,0v1.29a2.26,2.26,0,0,0,2.4,2.4.6.6,0,0,1,.65.64v1a.65.65,0,1,1-1.3,0v-.52h-1.75v.52a2.4,2.4,0,0,0,4.79,0v-1a2.25,2.25,0,0,0-2.39-2.39.6.6,0,0,1-.65-.65v-1.29a.65.65,0,0,1,1.3,0v.52Zm-25.84-2.92a2.25,2.25,0,0,0-2.4,2.4v5.33a2.4,2.4,0,0,0,4.79,0v-.52h-1.74v.52a.65.65,0,1,1-1.3,0v-5.33a.65.65,0,0,1,1.3,0v.52h1.74v-.52A2.25,2.25,0,0,0,193.48,404.13Zm-12.74,0a2.25,2.25,0,0,0-2.4,2.4v1.29a2.25,2.25,0,0,0,2.4,2.4.59.59,0,0,1,.64.64v1a.65.65,0,1,1-1.29,0v-.52h-1.75v.52a2.4,2.4,0,0,0,4.79,0v-1a2.25,2.25,0,0,0-2.39-2.39.6.6,0,0,1-.65-.65v-1.29a.65.65,0,1,1,1.29,0v.52h1.75v-.52A2.25,2.25,0,0,0,180.74,404.13Zm6.91,7.73a.65.65,0,1,1-1.29,0v-7.52h-1.75v7.52a2.4,2.4,0,0,0,4.79,0v-7.52h-1.75Zm23.26-7.73a2.25,2.25,0,0,0-2.4,2.4v1.29a2.25,2.25,0,0,0,2.4,2.4.59.59,0,0,1,.64.64v1a.65.65,0,1,1-1.29,0v-.52h-1.75v.52a2.4,2.4,0,0,0,4.79,0v-1a2.25,2.25,0,0,0-2.39-2.39.6.6,0,0,1-.65-.65v-1.29a.65.65,0,1,1,1.29,0v.52h1.75v-.52A2.25,2.25,0,0,0,210.91,404.13Zm-7.62,9.92h4V412.3H205v-2.52H207V408H205v-1.94h2.27v-1.75h-4Zm-3.78-9.92a2.25,2.25,0,0,0-2.39,2.4v5.33a2.4,2.4,0,0,0,4.79,0v-.52h-1.75v.52a.65.65,0,1,1-1.3,0v-5.33a.65.65,0,0,1,1.3,0v.52h1.75v-.52A2.26,2.26,0,0,0,199.51,404.13Z" style="fill: rgb(198, 255, 0); transform-origin: 198.83px 409.115px;" id="elkaico4gicfg" class="animable"></path>
            <g id="elxmcqvph9iip">
                <path d="M219.32,407.05v-.52a2.4,2.4,0,0,0-4.79,0v1.29a2.26,2.26,0,0,0,2.4,2.4.6.6,0,0,1,.65.64v1a.65.65,0,1,1-1.3,0v-.52h-1.75v.52a2.4,2.4,0,0,0,4.79,0v-1a2.25,2.25,0,0,0-2.39-2.39.6.6,0,0,1-.65-.65v-1.29a.65.65,0,0,1,1.3,0v.52Zm-25.84-2.92a2.25,2.25,0,0,0-2.4,2.4v5.33a2.4,2.4,0,0,0,4.79,0v-.52h-1.74v.52a.65.65,0,1,1-1.3,0v-5.33a.65.65,0,0,1,1.3,0v.52h1.74v-.52A2.25,2.25,0,0,0,193.48,404.13Zm-12.74,0a2.25,2.25,0,0,0-2.4,2.4v1.29a2.25,2.25,0,0,0,2.4,2.4.59.59,0,0,1,.64.64v1a.65.65,0,1,1-1.29,0v-.52h-1.75v.52a2.4,2.4,0,0,0,4.79,0v-1a2.25,2.25,0,0,0-2.39-2.39.6.6,0,0,1-.65-.65v-1.29a.65.65,0,1,1,1.29,0v.52h1.75v-.52A2.25,2.25,0,0,0,180.74,404.13Zm6.91,7.73a.65.65,0,1,1-1.29,0v-7.52h-1.75v7.52a2.4,2.4,0,0,0,4.79,0v-7.52h-1.75Zm23.26-7.73a2.25,2.25,0,0,0-2.4,2.4v1.29a2.25,2.25,0,0,0,2.4,2.4.59.59,0,0,1,.64.64v1a.65.65,0,1,1-1.29,0v-.52h-1.75v.52a2.4,2.4,0,0,0,4.79,0v-1a2.25,2.25,0,0,0-2.39-2.39.6.6,0,0,1-.65-.65v-1.29a.65.65,0,1,1,1.29,0v.52h1.75v-.52A2.25,2.25,0,0,0,210.91,404.13Zm-7.62,9.92h4V412.3H205v-2.52H207V408H205v-1.94h2.27v-1.75h-4Zm-3.78-9.92a2.25,2.25,0,0,0-2.39,2.4v5.33a2.4,2.4,0,0,0,4.79,0v-.52h-1.75v.52a.65.65,0,1,1-1.3,0v-5.33a.65.65,0,0,1,1.3,0v.52h1.75v-.52A2.26,2.26,0,0,0,199.51,404.13Z" style="fill: rgb(255, 255, 255); opacity: 0.4; transform-origin: 198.83px 409.115px;" class="animable"></path>
            </g>
            <g id="el33cyntbcb4x">
                <g style="opacity: 0.4; transform-origin: 197.425px 409.19px;" class="animable">
                    <path d="M180.74,414.25a2.24,2.24,0,0,0,2.39-2.39v-.34l-4.3,1.87A2.3,2.3,0,0,0,180.74,414.25Z" style="fill: rgb(255, 255, 255); transform-origin: 180.983px 412.888px;" id="elykftn7aak8i" class="animable"></path>
                    <path d="M184.61,410.88v1a2.4,2.4,0,0,0,4.79,0V408.8l-1.75.76v2.3a.65.65,0,1,1-1.29,0v-1.74Z" style="fill: rgb(255, 255, 255); transform-origin: 187.005px 411.463px;" id="elo2pechdkhb" class="animable"></path>
                    <path d="M199.51,405.88a.6.6,0,0,1,.65.65v.52h1.75v-.52a2.22,2.22,0,0,0-1.86-2.35l-2.62,1.14a2.58,2.58,0,0,0-.31,1.21v5.33a3.08,3.08,0,0,0,.06.61l1.68-.73v-5.21A.6.6,0,0,1,199.51,405.88Z" style="fill: rgb(255, 255, 255); transform-origin: 199.518px 408.325px;" id="elsxuwtuvnzu" class="animable"></path>
                    <polygon points="205.04 408.03 205.04 406.09 207.31 406.09 207.31 404.34 203.29 404.34 203.29 409.81 206.96 408.23 206.96 408.03 205.04 408.03" style="fill: rgb(255, 255, 255); transform-origin: 205.3px 407.075px;" id="elgbayw7nks3q" class="animable"></polygon>
                    <path d="M194.13,407.05h1.74v-.52a3,3,0,0,0,0-.52l-1.7.74Z" style="fill: rgb(255, 255, 255); transform-origin: 195.006px 406.53px;" id="el5bubjk25t3q" class="animable"></path>
                    <path d="M195.87,411.86v-.52h-1.74v.52a.65.65,0,1,1-1.3,0v-4.55l-1.75.76v3.79a2.21,2.21,0,0,0,2,2.36l2.34-1A2.45,2.45,0,0,0,195.87,411.86Z" style="fill: rgb(255, 255, 255); transform-origin: 193.472px 410.765px;" id="elq13157fxf3l" class="animable"></path>
                    <path d="M215.83,404.37l.19-.08Z" style="fill: rgb(255, 255, 255); transform-origin: 215.925px 404.33px;" id="elnsimu69kuaa" class="animable"></path>
                    <path d="M210.91,404.13a2.25,2.25,0,0,0-2.4,2.4v1l1.75-.76v-.26a.6.6,0,0,1,.65-.65.58.58,0,0,1,.59.37l1.63-.7A2.22,2.22,0,0,0,210.91,404.13Z" style="fill: rgb(255, 255, 255); transform-origin: 210.817px 405.827px;" id="elr9uzksqnpjl" class="animable"></path>
                </g>
            </g>
            <g id="elrfbqqj1oc6">
                <path d="M180.74,404.13a2.25,2.25,0,0,0-2.4,2.4v1.29a2.64,2.64,0,0,0,0,.28l1.73-.75v-.82a.65.65,0,1,1,1.29,0v.26l1.71-.75A2.22,2.22,0,0,0,180.74,404.13Zm3.87.21v1.05l1.75-.76v-.29Z" style="fill: rgb(198, 255, 0); opacity: 0.8; transform-origin: 182.347px 406.112px;" class="animable"></path>
            </g>
            <g id="elcnddp8a1wz9">
                <path d="M210.91,412.51a.63.63,0,0,1-.41-.14l-1.69.73a2.43,2.43,0,0,0,4.49-1.24v-.7l-1.77.76A.59.59,0,0,1,210.91,412.51Zm-3.6,1.54v-.29l-.67.29Zm11.12-5.12L215.9,410a2.82,2.82,0,0,0,1,.19.6.6,0,0,1,.65.64v1a.65.65,0,1,1-1.3,0v-.52h-1.75v.52a2.4,2.4,0,0,0,4.79,0v-1A2.3,2.3,0,0,0,218.43,408.93Z" style="fill: rgb(198, 255, 0); opacity: 0.8; transform-origin: 212.966px 411.586px;" class="animable"></path>
            </g>
            <g id="eljruqcr2sxzk">
                <ellipse cx="198.3" cy="361.45" rx="49.45" ry="28.55" style="opacity: 0.1; transform-origin: 198.3px 361.45px;" class="animable"></ellipse>
            </g>
            <path d="M301,197.62a11.9,11.9,0,0,1,2.07,9.08,16,16,0,0,1-3.45,7.65,15.06,15.06,0,0,1-6.75,4.82,13.62,13.62,0,0,1-4.14.74,14.21,14.21,0,0,1-2.07-.11c-.66-.09-1.27-.19-1.9-.33a17.06,17.06,0,0,1-7.14-3.24,15.26,15.26,0,0,1-4.62-6.37,21.64,21.64,0,0,1-1.35-7.45,20.12,20.12,0,0,1,.31-3.77,21.85,21.85,0,0,1,1-3.67c3.67-9.57,14.06-15.77,24.51-14.82a22,22,0,0,1,14.08,6.75c.45.49.88,1,1.32,1.5l1.18,1.59c.67,1.06,1.35,2.12,1.93,3.25a30.65,30.65,0,0,1,2.75,7.18,27.77,27.77,0,0,1-.78,15.27,45,45,0,0,1-7,12.88,83.77,83.77,0,0,1-9.6,10.44c-3.43,3.21-7,6.19-10.67,9s-7.48,5.48-11.13,8.17-7.3,5.46-10.84,8.31-7,5.8-10.23,8.94a95.74,95.74,0,0,0-9,10.05,1.51,1.51,0,0,1-2.41-1.83l0,0c11.24-15,26.77-25.78,40.84-37.09,6.91-5.8,13.46-12.14,18.41-19.35A39.39,39.39,0,0,0,312,213.84a22.33,22.33,0,0,0,.31-11.85,24,24,0,0,0-2.18-5.6c-.47-.91-1-1.77-1.59-2.65l-.85-1.18-.94-1.09a17.44,17.44,0,0,0-10-5.36A19.55,19.55,0,0,0,285,187.83a17,17,0,0,0-8.36,8.62,13.76,13.76,0,0,0-.54,1.44,10.51,10.51,0,0,0-.4,1.45,17.16,17.16,0,0,0-.27,3.06,14.63,14.63,0,0,0,1.15,6,10.22,10.22,0,0,0,3.59,4.44,12.64,12.64,0,0,0,5.42,2c.49.08,1,.12,1.5.16a12.29,12.29,0,0,0,1.36,0,8.48,8.48,0,0,0,2.55-.66,9.37,9.37,0,0,0,4-3.41,9.9,9.9,0,0,0,1.7-4.92,5.07,5.07,0,0,0-1.29-3.86,3.58,3.58,0,0,1,5-5.1,2.5,2.5,0,0,1,.34.39Z" style="fill: rgb(198, 255, 0); transform-origin: 283.105px 232.066px;" id="elvr3rqzq65l" class="animable"></path>
            <g id="elbv45yze0y04">
                <path d="M301,197.62a11.9,11.9,0,0,1,2.07,9.08,16,16,0,0,1-3.45,7.65,15.06,15.06,0,0,1-6.75,4.82,13.62,13.62,0,0,1-4.14.74,14.21,14.21,0,0,1-2.07-.11c-.66-.09-1.27-.19-1.9-.33a17.06,17.06,0,0,1-7.14-3.24,15.26,15.26,0,0,1-4.62-6.37,21.64,21.64,0,0,1-1.35-7.45,20.12,20.12,0,0,1,.31-3.77,21.85,21.85,0,0,1,1-3.67c3.67-9.57,14.06-15.77,24.51-14.82a22,22,0,0,1,14.08,6.75c.45.49.88,1,1.32,1.5l1.18,1.59c.67,1.06,1.35,2.12,1.93,3.25a30.65,30.65,0,0,1,2.75,7.18,27.77,27.77,0,0,1-.78,15.27,45,45,0,0,1-7,12.88,83.77,83.77,0,0,1-9.6,10.44c-3.43,3.21-7,6.19-10.67,9s-7.48,5.48-11.13,8.17-7.3,5.46-10.84,8.31-7,5.8-10.23,8.94a95.74,95.74,0,0,0-9,10.05,1.51,1.51,0,0,1-2.41-1.83l0,0c11.24-15,26.77-25.78,40.84-37.09,6.91-5.8,13.46-12.14,18.41-19.35A39.39,39.39,0,0,0,312,213.84a22.33,22.33,0,0,0,.31-11.85,24,24,0,0,0-2.18-5.6c-.47-.91-1-1.77-1.59-2.65l-.85-1.18-.94-1.09a17.44,17.44,0,0,0-10-5.36A19.55,19.55,0,0,0,285,187.83a17,17,0,0,0-8.36,8.62,13.76,13.76,0,0,0-.54,1.44,10.51,10.51,0,0,0-.4,1.45,17.16,17.16,0,0,0-.27,3.06,14.63,14.63,0,0,0,1.15,6,10.22,10.22,0,0,0,3.59,4.44,12.64,12.64,0,0,0,5.42,2c.49.08,1,.12,1.5.16a12.29,12.29,0,0,0,1.36,0,8.48,8.48,0,0,0,2.55-.66,9.37,9.37,0,0,0,4-3.41,9.9,9.9,0,0,0,1.7-4.92,5.07,5.07,0,0,0-1.29-3.86,3.58,3.58,0,0,1,5-5.1,2.5,2.5,0,0,1,.34.39Z" style="fill: rgb(255, 255, 255); opacity: 0.7; transform-origin: 283.105px 232.066px;" class="animable"></path>
            </g>
            <path d="M101.15,202.12A5,5,0,0,0,99.86,206a10,10,0,0,0,1.69,4.92,9.42,9.42,0,0,0,4,3.41,8.62,8.62,0,0,0,2.56.66,12.29,12.29,0,0,0,1.36,0c.47,0,1-.08,1.49-.16a12.68,12.68,0,0,0,5.43-2,10.2,10.2,0,0,0,3.58-4.44,14.8,14.8,0,0,0,1.16-6,16.28,16.28,0,0,0-.28-3.06,9.21,9.21,0,0,0-.39-1.45,13.76,13.76,0,0,0-.54-1.44,17.06,17.06,0,0,0-8.37-8.62,19.51,19.51,0,0,0-11.74-1.72,17.47,17.47,0,0,0-10,5.36L89,192.56l-.85,1.18c-.55.88-1.12,1.74-1.59,2.65a24.47,24.47,0,0,0-2.19,5.6,22.33,22.33,0,0,0,.32,11.85,39.61,39.61,0,0,0,5.63,11.38c5,7.21,11.5,13.55,18.42,19.35,14.07,11.31,29.6,22.12,40.84,37.09h0a1.51,1.51,0,0,1-2.4,1.84,96.86,96.86,0,0,0-9-10.05c-3.25-3.14-6.71-6.08-10.24-8.94s-7.16-5.61-10.83-8.31-7.47-5.33-11.13-8.17-7.25-5.82-10.67-9a83,83,0,0,1-9.6-10.44,44.81,44.81,0,0,1-7-12.88,27.87,27.87,0,0,1-.78-15.27,31.1,31.1,0,0,1,2.75-7.18c.59-1.13,1.26-2.19,1.94-3.25l1.18-1.59c.44-.5.86-1,1.32-1.5a22,22,0,0,1,14.08-6.75c10.45-1,20.84,5.25,24.5,14.82a21,21,0,0,1,1,3.67,22,22,0,0,1,.31,3.77,21.42,21.42,0,0,1-1.36,7.45,15.26,15.26,0,0,1-4.62,6.37,17,17,0,0,1-7.13,3.24c-.64.14-1.24.24-1.9.33a14.42,14.42,0,0,1-2.08.11,13.73,13.73,0,0,1-4.14-.74A15.17,15.17,0,0,1,97,214.35a16,16,0,0,1-3.44-7.65,11.9,11.9,0,0,1,2.07-9.08l.14-.2a3.58,3.58,0,0,1,5.73,4.3A4.47,4.47,0,0,1,101.15,202.12Z" style="fill: rgb(198, 255, 0); transform-origin: 113.554px 232.079px;" id="elvae0k57dtqf" class="animable"></path>
            <g id="el0qefavyd5gim">
                <path d="M101.15,202.12A5,5,0,0,0,99.86,206a10,10,0,0,0,1.69,4.92,9.42,9.42,0,0,0,4,3.41,8.62,8.62,0,0,0,2.56.66,12.29,12.29,0,0,0,1.36,0c.47,0,1-.08,1.49-.16a12.68,12.68,0,0,0,5.43-2,10.2,10.2,0,0,0,3.58-4.44,14.8,14.8,0,0,0,1.16-6,16.28,16.28,0,0,0-.28-3.06,9.21,9.21,0,0,0-.39-1.45,13.76,13.76,0,0,0-.54-1.44,17.06,17.06,0,0,0-8.37-8.62,19.51,19.51,0,0,0-11.74-1.72,17.47,17.47,0,0,0-10,5.36L89,192.56l-.85,1.18c-.55.88-1.12,1.74-1.59,2.65a24.47,24.47,0,0,0-2.19,5.6,22.33,22.33,0,0,0,.32,11.85,39.61,39.61,0,0,0,5.63,11.38c5,7.21,11.5,13.55,18.42,19.35,14.07,11.31,29.6,22.12,40.84,37.09h0a1.51,1.51,0,0,1-2.4,1.84,96.86,96.86,0,0,0-9-10.05c-3.25-3.14-6.71-6.08-10.24-8.94s-7.16-5.61-10.83-8.31-7.47-5.33-11.13-8.17-7.25-5.82-10.67-9a83,83,0,0,1-9.6-10.44,44.81,44.81,0,0,1-7-12.88,27.87,27.87,0,0,1-.78-15.27,31.1,31.1,0,0,1,2.75-7.18c.59-1.13,1.26-2.19,1.94-3.25l1.18-1.59c.44-.5.86-1,1.32-1.5a22,22,0,0,1,14.08-6.75c10.45-1,20.84,5.25,24.5,14.82a21,21,0,0,1,1,3.67,22,22,0,0,1,.31,3.77,21.42,21.42,0,0,1-1.36,7.45,15.26,15.26,0,0,1-4.62,6.37,17,17,0,0,1-7.13,3.24c-.64.14-1.24.24-1.9.33a14.42,14.42,0,0,1-2.08.11,13.73,13.73,0,0,1-4.14-.74A15.17,15.17,0,0,1,97,214.35a16,16,0,0,1-3.44-7.65,11.9,11.9,0,0,1,2.07-9.08l.14-.2a3.58,3.58,0,0,1,5.73,4.3A4.47,4.47,0,0,1,101.15,202.12Z" style="fill: rgb(255, 255, 255); opacity: 0.7; transform-origin: 113.554px 232.079px;" class="animable"></path>
            </g>
            <path d="M237.33,349.76c0-5.76-3.8-11.53-11.42-15.93-15.25-8.82-40-8.82-55.2,0-7.16,4.13-11,9.45-11.4,14.85,0,.11,0,.2,0,.3,0,.26,0,.52,0,.78v7.48c0,.26,0,.52,0,.78,0,.1,0,.19,0,.3.45,5.4,4.24,10.72,11.4,14.85,15.23,8.8,39.95,8.8,55.2,0,7.62-4.4,11.42-10.17,11.42-15.93Z" style="fill: rgb(198, 255, 0); transform-origin: 198.32px 353.493px;" id="elaaw523z2go" class="animable"></path>
            <g id="elpmlt70cz6u">
                <path d="M237.33,349.76c0-5.76-3.8-11.53-11.42-15.93-15.25-8.82-40-8.82-55.2,0-7.16,4.13-11,9.45-11.4,14.85,0,.11,0,.2,0,.3,0,.26,0,.52,0,.78v7.48c0,.26,0,.52,0,.78,0,.1,0,.19,0,.3.45,5.4,4.24,10.72,11.4,14.85,15.23,8.8,39.95,8.8,55.2,0,7.62-4.4,11.42-10.17,11.42-15.93Z" style="fill: rgb(255, 255, 255); opacity: 0.4; transform-origin: 198.32px 353.493px;" class="animable"></path>
            </g>
            <g id="elnhgnb00hgm">
                <path d="M203.36,379.56c8.24-.62,16.21-2.73,22.55-6.39a29.3,29.3,0,0,0,6.35-4.86V338.69a29.3,29.3,0,0,0-6.35-4.86c-6.34-3.66-14.31-5.78-22.55-6.4Z" style="fill: rgb(255, 255, 255); opacity: 0.4; transform-origin: 217.81px 353.495px;" class="animable"></path>
            </g>
            <path d="M176.22,331.19a41.19,41.19,0,0,0-5.51,2.64c-7.16,4.13-11,9.45-11.4,14.85,0,.11,0,.2,0,.3,0,.26,0,.52,0,.78v7.48c0,.26,0,.52,0,.78,0,.1,0,.19,0,.3.45,5.4,4.24,10.72,11.4,14.85a41.15,41.15,0,0,0,5.51,2.63Z" style="fill: rgb(198, 255, 0); transform-origin: 167.765px 353.495px;" id="eljk35wlsmu2k" class="animable"></path>
            <path d="M162.05,357.08a17.48,17.48,0,0,1-1.05-1.74c-.09-.16-.16-.32-.24-.48a15.42,15.42,0,0,1-.65-1.52c-.05-.16-.12-.32-.17-.48a15.25,15.25,0,0,1-.48-1.94v0a13.23,13.23,0,0,1-.17-2c0-.2,0-.39,0-.59a12.85,12.85,0,0,1,.12-1.38c0-.24.07-.47.11-.71q.14-.66.33-1.32c.07-.21.12-.43.2-.65a15.36,15.36,0,0,1,.78-1.84c.09-.19.22-.38.32-.57a14.38,14.38,0,0,1,.79-1.29c.17-.26.36-.51.55-.76s.26-.38.4-.56l.66-.76.36-.41c8.36-9.61,20.65-12.8,34.39-12.8s26.06,3.21,34.41,12.84l.3.32.69.81c.16.19.28.39.43.59s.35.47.51.7a15.71,15.71,0,0,1,.84,1.4c.09.15.2.31.28.47a16,16,0,0,1,.79,1.88c.07.19.11.39.17.58a14.32,14.32,0,0,1,.35,1.4c0,.22.08.43.11.65a12.14,12.14,0,0,1,.12,1.47c0,.17,0,.34,0,.51a13.52,13.52,0,0,1-.67,4c0,.14-.1.28-.15.42a15.54,15.54,0,0,1-.67,1.6l-.21.42a19.85,19.85,0,0,1-1.11,1.83l-.05.07a20.11,20.11,0,0,1-1.57,2l-.12.12c-.52.56-1.09,1.11-1.7,1.66l-.42.37c-.56.47-1.15.94-1.78,1.39l-.46.34c-.8.55-1.62,1.1-2.52,1.61-15.23,8.8-40,8.8-55.18,0-.89-.51-1.72-1.05-2.51-1.6-.18-.12-.34-.25-.51-.38-.61-.43-1.18-.88-1.72-1.34l-.47-.41a22.41,22.41,0,0,1-1.63-1.59l-.18-.19a20.69,20.69,0,0,1-1.55-1.92A1.4,1.4,0,0,0,162.05,357.08Z" style="fill: rgb(198, 255, 0); transform-origin: 198.295px 348.305px;" id="el16ynttnkx6i" class="animable"></path>
            <g id="elk7g3xv4ji6m">
                <g style="opacity: 0.8; transform-origin: 198.295px 348.305px;" class="animable">
                    <path d="M162.05,357.08a17.48,17.48,0,0,1-1.05-1.74c-.09-.16-.16-.32-.24-.48a15.42,15.42,0,0,1-.65-1.52c-.05-.16-.12-.32-.17-.48a15.25,15.25,0,0,1-.48-1.94v0a13.23,13.23,0,0,1-.17-2c0-.2,0-.39,0-.59a12.85,12.85,0,0,1,.12-1.38c0-.24.07-.47.11-.71q.14-.66.33-1.32c.07-.21.12-.43.2-.65a15.36,15.36,0,0,1,.78-1.84c.09-.19.22-.38.32-.57a14.38,14.38,0,0,1,.79-1.29c.17-.26.36-.51.55-.76s.26-.38.4-.56l.66-.76.36-.41c8.36-9.61,20.65-12.8,34.39-12.8s26.06,3.21,34.41,12.84l.3.32.69.81c.16.19.28.39.43.59s.35.47.51.7a15.71,15.71,0,0,1,.84,1.4c.09.15.2.31.28.47a16,16,0,0,1,.79,1.88c.07.19.11.39.17.58a14.32,14.32,0,0,1,.35,1.4c0,.22.08.43.11.65a12.14,12.14,0,0,1,.12,1.47c0,.17,0,.34,0,.51a13.52,13.52,0,0,1-.67,4c0,.14-.1.28-.15.42a15.54,15.54,0,0,1-.67,1.6l-.21.42a19.85,19.85,0,0,1-1.11,1.83l-.05.07a20.11,20.11,0,0,1-1.57,2l-.12.12c-.52.56-1.09,1.11-1.7,1.66l-.42.37c-.56.47-1.15.94-1.78,1.39l-.46.34c-.8.55-1.62,1.1-2.52,1.61-15.23,8.8-40,8.8-55.18,0-.89-.51-1.72-1.05-2.51-1.6-.18-.12-.34-.25-.51-.38-.61-.43-1.18-.88-1.72-1.34l-.47-.41a22.41,22.41,0,0,1-1.63-1.59l-.18-.19a20.69,20.69,0,0,1-1.55-1.92A1.4,1.4,0,0,0,162.05,357.08Z" style="fill: rgb(255, 255, 255); transform-origin: 198.295px 348.305px;" id="elqlys4rkzec" class="animable"></path>
                </g>
            </g>
            <g id="elzsalfnfjyw">
                <path d="M215.73,339V327.5a58.84,58.84,0,0,0-14.83-2.2v19.42l2.44,26.34c8.25-.61,16.23-2.73,22.56-6.39.9-.51,1.72-1.06,2.52-1.61l.46-.34c.63-.45,1.22-.92,1.78-1.39l.42-.37c.42-.37.8-.75,1.18-1.12Z" style="fill: rgb(255, 255, 255); opacity: 0.3; transform-origin: 216.58px 348.18px;" class="animable"></path>
            </g>
            <g id="elhwn9dky533g">
                <path d="M187,342.79V326.12c-9.08,1.49-17.07,5.07-23.05,11.94l-.36.41-.66.76c-.14.18-.26.37-.4.56s-.38.5-.55.76a14.38,14.38,0,0,0-.79,1.29c-.1.19-.23.38-.32.57a15.36,15.36,0,0,0-.78,1.84c-.08.22-.13.44-.2.65a12.66,12.66,0,0,0-.32,1.32c0,.24-.09.47-.12.71a12.85,12.85,0,0,0-.12,1.38c0,.2,0,.39,0,.59a13.23,13.23,0,0,0,.17,2v0a15.25,15.25,0,0,0,.48,1.94c.05.16.12.32.17.48a15.42,15.42,0,0,0,.65,1.52c.08.16.15.32.24.48a17.48,17.48,0,0,0,1.05,1.74,1.4,1.4,0,0,1,.1.16,20.69,20.69,0,0,0,1.55,1.92l.18.19a22.41,22.41,0,0,0,1.63,1.59l.47.41c.54.46,1.11.91,1.72,1.34l.51.38c.79.55,1.62,1.09,2.51,1.6a41.15,41.15,0,0,0,5.51,2.63Z" style="fill: rgb(198, 255, 0); opacity: 0.15; transform-origin: 173.165px 346.7px;" class="animable"></path>
            </g>
            <path d="M220.05,328.18c0-3.22-2.11-6.43-6.36-8.88-8.5-4.92-22.27-4.92-30.76,0-4,2.3-6.11,5.26-6.35,8.27a1,1,0,0,0,0,.17c0,.15,0,.29,0,.44v6.47c0,.14,0,.29,0,.43a1,1,0,0,0,0,.17c.24,3,2.36,6,6.35,8.28,8.49,4.9,22.26,4.9,30.76,0,4.25-2.46,6.36-5.67,6.36-8.88Z" style="fill: rgb(198, 255, 0); transform-origin: 198.313px 331.407px;" id="el863u90ff1k" class="animable"></path>
            <g id="elj1iczbjx9eo">
                <path d="M220.05,328.18c0-3.22-2.11-6.43-6.36-8.88-8.5-4.92-22.27-4.92-30.76,0-4,2.3-6.11,5.26-6.35,8.27a1,1,0,0,0,0,.17c0,.15,0,.29,0,.44v6.47c0,.14,0,.29,0,.43a1,1,0,0,0,0,.17c.24,3,2.36,6,6.35,8.28,8.49,4.9,22.26,4.9,30.76,0,4.25-2.46,6.36-5.67,6.36-8.88Z" style="fill: rgb(255, 255, 255); opacity: 0.4; transform-origin: 198.313px 331.407px;" class="animable"></path>
            </g>
            <g id="eljr297vjrjbi">
                <path d="M201.12,347.09a30,30,0,0,0,12.57-3.56,16.41,16.41,0,0,0,3.54-2.68V322a16.45,16.45,0,0,0-3.54-2.7,30,30,0,0,0-12.57-3.57Z" style="fill: rgb(255, 255, 255); opacity: 0.4; transform-origin: 209.175px 331.41px;" class="animable"></path>
            </g>
            <path d="M186,317.83a22.87,22.87,0,0,0-3.07,1.47c-4,2.3-6.11,5.26-6.35,8.27a1,1,0,0,0,0,.17c0,.15,0,.29,0,.44v6.47c0,.14,0,.29,0,.43a1,1,0,0,0,0,.17c.24,3,2.36,6,6.35,8.28A24.19,24.19,0,0,0,186,345Z" style="fill: rgb(198, 255, 0); transform-origin: 181.288px 331.415px;" id="el6mzqrr4ft0u" class="animable"></path>
            <path d="M220,327.57v0c-.47-8.27-21.73-22.93-21.73-22.93s-21.26,14.66-21.73,22.93v0a6,6,0,0,0,0,1,1,1,0,0,0,0,.17c.24,3,2.36,6,6.35,8.28,8.49,4.9,22.26,4.9,30.76,0,4-2.31,6.1-5.27,6.35-8.28v-.17A7.22,7.22,0,0,0,220,327.57Z" style="fill: rgb(198, 255, 0); transform-origin: 198.268px 322.668px;" id="elomeevwk9wec" class="animable"></path>
            <g id="elq4zuq4dcz">
                <path d="M220,327.57v0c-.47-8.27-21.73-22.93-21.73-22.93s-21.26,14.66-21.73,22.93v0a6,6,0,0,0,0,1,1,1,0,0,0,0,.17c.24,3,2.36,6,6.35,8.28,8.49,4.9,22.26,4.9,30.76,0,4-2.31,6.1-5.27,6.35-8.28v-.17A7.22,7.22,0,0,0,220,327.57Z" style="fill: rgb(255, 255, 255); opacity: 0.8; transform-origin: 198.268px 322.668px;" class="animable"></path>
            </g>
            <g id="elkh0j0ra1q4i">
                <path d="M213.69,337.06a16.74,16.74,0,0,0,3.19-2.37c0-10.25-18.57-30.07-18.57-30.07s2.81,28.22,2.81,36A30.14,30.14,0,0,0,213.69,337.06Z" style="fill: rgb(255, 255, 255); opacity: 0.3; transform-origin: 207.595px 322.62px;" class="animable"></path>
            </g>
            <g id="elfqi7bzzht6q">
                <path d="M176.58,327.55v0a6,6,0,0,0,0,1,1,1,0,0,0,0,.17c.24,3,2.36,6,6.35,8.28a23.49,23.49,0,0,0,3.39,1.6c0-6.86,12-34,12-34S177.05,319.28,176.58,327.55Z" style="fill: rgb(198, 255, 0); opacity: 0.15; transform-origin: 187.44px 321.6px;" class="animable"></path>
            </g>
            <path d="M272.9,175.1c0-11-7.28-22-21.85-30.46-29.13-16.82-76.37-16.82-105.5,0C131,153.05,123.7,164.07,123.7,175.1v13.17c0,11,7.29,22,21.85,30.46,29.14,16.82,76.37,16.82,105.5,0,14.57-8.41,21.85-19.44,21.85-30.46Z" style="fill: rgb(198, 255, 0); transform-origin: 198.3px 181.685px;" id="el5rsaalu6b1k" class="animable"></path>
            <g id="el7muwuucu0sf">
                <path d="M272.9,175.1c0-11-7.28-22-21.85-30.46-29.13-16.82-76.37-16.82-105.5,0C131,153.05,123.7,164.07,123.7,175.1v13.17c0,11,7.29,22,21.85,30.46,29.14,16.82,76.37,16.82,105.5,0,14.57-8.41,21.85-19.44,21.85-30.46Z" style="fill: rgb(255, 255, 255); opacity: 0.4; transform-origin: 198.3px 181.685px;" class="animable"></path>
            </g>
            <g id="ellius4rrvp7">
                <path d="M256.22,148v67.47c11.12-7.89,16.68-17.52,16.68-27.15V175.1C272.9,165.47,267.34,155.84,256.22,148Z" style="fill: rgb(255, 255, 255); opacity: 0.4; transform-origin: 264.56px 181.735px;" class="animable"></path>
            </g>
            <g id="elnv5mux5dmyr">
                <path d="M198.3,231.34c14.86,0,29.7-2.56,42.42-7.65v-84C228,134.58,213.16,132,198.3,132Z" style="fill: rgb(255, 255, 255); opacity: 0.4; transform-origin: 219.51px 181.67px;" class="animable"></path>
            </g>
            <path d="M149.92,142.33c-1.49.73-3,1.5-4.37,2.31C131,153.05,123.7,164.07,123.7,175.1v13.17c0,11,7.29,22,21.85,30.46,1.41.81,2.88,1.58,4.37,2.31Z" style="fill: rgb(198, 255, 0); transform-origin: 136.81px 181.685px;" id="elhadh005sv99" class="animable"></path>
            <ellipse cx="198.3" cy="175.1" rx="74.6" ry="43.07" style="fill: rgb(198, 255, 0); transform-origin: 198.3px 175.1px;" id="eloe9eh7dtac" class="animable"></ellipse>
            <g id="elwt6wfhz3l58">
                <ellipse cx="198.3" cy="175.1" rx="74.6" ry="43.07" style="fill: rgb(255, 255, 255); opacity: 0.55; transform-origin: 198.3px 175.1px;" class="animable"></ellipse>
            </g>
            <path d="M265.27,175.09a18.82,18.82,0,0,1-1.24,6.6c-2.38-6.29-8.16-12.26-16.8-17.26-12.94-7.47-30.31-11.6-48.92-11.6s-36,4.13-48.94,11.6c-8.65,5-14.41,10.95-16.79,17.26a18.82,18.82,0,0,1-1.24-6.6c0-8.66,6.41-17.12,18-23.83,12.94-7.47,30.33-11.6,48.94-11.6s36,4.13,48.92,11.6C258.85,158,265.27,166.43,265.27,175.09Z" style="fill: rgb(198, 255, 0); transform-origin: 198.305px 160.675px;" id="elt5nmmdf3bd" class="animable"></path>
            <g id="elr7lga82x15">
                <path d="M167.27,143.83a80.3,80.3,0,0,0-17.9,7.43c-11.62,6.71-18,15.17-18,23.83a18.82,18.82,0,0,0,1.24,6.6c2.38-6.31,8.14-12.26,16.79-17.26a80.3,80.3,0,0,1,17.9-7.43Z" style="opacity: 0.1; transform-origin: 149.335px 162.76px;" class="animable"></path>
            </g>
            <g id="el807wxw7dox3">
                <path d="M200.23,152.86c15.87.24,30.75,3.49,42.63,9.27V149c-11.88-5.78-26.76-9-42.63-9.27Z" style="fill: rgb(255, 255, 255); opacity: 0.2; transform-origin: 221.545px 150.93px;" class="animable"></path>
            </g>
            <path d="M123.7,188.27c0,11,7.29,22,21.85,30.46,29.14,16.82,76.37,16.82,105.5,0,14.57-8.41,21.85-19.44,21.85-30.46,0,69.24-35.21,126.56-74.6,126.56s-74.6-57.32-74.6-126.56Z" style="fill: rgb(198, 255, 0); transform-origin: 198.3px 251.55px;" id="elsoa3jwz186k" class="animable"></path>
            <g id="elcfiw3d8dzkv">
                <path d="M123.7,188.27c0,11,7.29,22,21.85,30.46,29.14,16.82,76.37,16.82,105.5,0,14.57-8.41,21.85-19.44,21.85-30.46,0,69.24-35.21,126.56-74.6,126.56s-74.6-57.32-74.6-126.56Z" style="fill: rgb(255, 255, 255); opacity: 0.8; transform-origin: 198.3px 251.55px;" class="animable"></path>
            </g>
            <g id="el9fvrdmle54h">
                <path d="M198.3,314.83c17.47,0,34.12-11.29,47.23-29.89-17.73,23.16-52.23,19.8-66.59-9.95-4.28-8.87-10.21-28.23-11.67-47.55a88.64,88.64,0,0,1-21.72-8.71c-14.56-8.41-21.85-19.44-21.85-30.46h0C123.7,257.51,158.91,314.83,198.3,314.83Z" style="fill: rgb(198, 255, 0); opacity: 0.1; transform-origin: 184.615px 251.55px;" class="animable"></path>
            </g>
            <g id="elsoiat5itr0d">
                <path d="M146.72,256.39a219.15,219.15,0,0,1-5.9-40.67c-11.4-7.94-17.12-17.69-17.12-27.45h0c0,67.89,33.86,124.29,72.31,126.46C174.16,312.87,153.87,284.73,146.72,256.39Z" style="fill: rgb(198, 255, 0); opacity: 0.15; transform-origin: 159.855px 251.5px;" class="animable"></path>
            </g>
            <g id="eldejzj6reklt">
                <path d="M251.05,218.73c-16.62,9.6-39.14,13.71-60.82,12.35,3.62,43.26,15.43,58.23,35.89,47.93,17.07-8.61,25.23-36.55,29.07-62.89C253.88,217,252.51,217.89,251.05,218.73Z" style="fill: rgb(255, 255, 255); opacity: 0.3; transform-origin: 222.71px 249.127px;" class="animable"></path>
            </g>
            <path d="M264,181.69c-2.4,6.28-8.16,12.26-16.8,17.25-12.94,7.47-30.31,11.58-48.92,11.58s-36-4.11-48.94-11.58c-8.65-5-14.41-11-16.79-17.25,2.38-6.31,8.14-12.26,16.79-17.26,12.94-7.47,30.33-11.6,48.94-11.6s36,4.13,48.92,11.6C255.87,169.43,261.65,175.4,264,181.69Z" style="fill: rgb(198, 255, 0); transform-origin: 198.275px 181.675px;" id="ely0qh3y5pnpk" class="animable"></path>
            <g id="el8dcbeafba2e">
                <path d="M264,181.69c-2.4,6.28-8.16,12.26-16.8,17.25-12.94,7.47-30.31,11.58-48.92,11.58s-36-4.11-48.94-11.58c-8.65-5-14.41-11-16.79-17.25,2.38-6.31,8.14-12.26,16.79-17.26,12.94-7.47,30.33-11.6,48.94-11.6s36,4.13,48.92,11.6C255.87,169.43,261.65,175.4,264,181.69Z" style="fill: rgb(255, 255, 255); opacity: 0.8; transform-origin: 198.275px 181.675px;" class="animable"></path>
            </g>
            <g id="elrf0pd07051b">
                <path d="M230.56,206a78.86,78.86,0,0,0,16.67-7.07c8.64-5,14.4-11,16.8-17.25-2.38-6.29-8.16-12.26-16.8-17.26a76.52,76.52,0,0,0-13.23-6A235.74,235.74,0,0,1,230.56,206Z" style="fill: rgb(198, 255, 0); opacity: 0.1; transform-origin: 247.295px 182.21px;" class="animable"></path>
            </g>
            <g id="elkand3bwc5zp">
                <path d="M252.16,167.64A220.92,220.92,0,0,1,248.71,198c7.81-4.81,13.07-10.43,15.32-16.34C262.14,176.69,258.07,171.9,252.16,167.64Z" style="fill: rgb(198, 255, 0); opacity: 0.15; transform-origin: 256.37px 182.82px;" class="animable"></path>
            </g>
        </g>
    </g>
    <g id="freepik--speech-bubble--inject-49" class="animable" style="transform-origin: 222.55px 71.27px;">
        <g id="freepik--speech-bubble--inject-49" class="animable" style="transform-origin: 222.55px 71.27px;">
            <g id="freepik--speech-bubble--inject-49" class="animable" style="transform-origin: 222.55px 71.27px;">
                <path d="M222.56,20.6a43.8,43.8,0,1,0,43.79,43.8A43.85,43.85,0,0,0,222.56,20.6Zm28.68,70.63L248,94.33A39.27,39.27,0,0,1,192.62,39l3.11-3.26a39.27,39.27,0,0,1,55.51,55.51Z" style="fill: rgb(69, 90, 100); transform-origin: 222.55px 64.4px;" id="eltgjlbwi0i5" class="animable"></path>
                <path d="M220.19,120.26l-5.61-14.47h16l-5.61,14.47A2.54,2.54,0,0,1,220.19,120.26Z" style="fill: rgb(69, 90, 100); transform-origin: 222.58px 113.865px;" id="el7gdzlo5sfuu" class="animable"></path>
            </g>
            <path d="M194,57.76a1.38,1.38,0,0,1-.3-1.07,1.43,1.43,0,0,1,.57-1l11.61-9.15c.28-.21.58-.42.88-.62a1.82,1.82,0,0,1,1-.29H212a1.47,1.47,0,0,1,1.44,1.44V81.68A1.47,1.47,0,0,1,212,83.13h-4.34a1.45,1.45,0,0,1-1.44-1.45V55.25l-7.6,5.94a1.32,1.32,0,0,1-1.05.29,1.62,1.62,0,0,1-1-.56Z" style="fill: rgb(198, 255, 0); transform-origin: 203.563px 64.38px;" id="elnymlzlpqpcd" class="animable"></path>
            <path d="M243.37,74.46l-.8,5.46a1.57,1.57,0,0,1-.46.8,1.23,1.23,0,0,1-.88.32H237a1.13,1.13,0,0,1-.83-.34,1.16,1.16,0,0,1-.35-.83v-.11l.81-5.3h-5.41l-.8,5.46a1.5,1.5,0,0,1-.46.8,1.21,1.21,0,0,1-.88.32h-4.23a1.13,1.13,0,0,1-.83-.34,1.16,1.16,0,0,1-.35-.83v-.11l.81-5.3h-3.59A1.47,1.47,0,0,1,219.45,73V69.64a1.47,1.47,0,0,1,1.44-1.44h4.5l1.12-7.33h-4.23a1.35,1.35,0,0,1-1-.43,1.38,1.38,0,0,1-.43-1V56.05a1.45,1.45,0,0,1,1.44-1.44h5.14l.86-5.41a1.77,1.77,0,0,1,.42-.77,1.1,1.1,0,0,1,.86-.35h4.28a1.1,1.1,0,0,1,.83.35,1.12,1.12,0,0,1,.35.82v.16l-.8,5.2h5.35l.85-5.41a1.91,1.91,0,0,1,.43-.77,1.1,1.1,0,0,1,.86-.35H246a1.1,1.1,0,0,1,.83.35,1.12,1.12,0,0,1,.35.82v.16l-.81,5.2H250a1.45,1.45,0,0,1,1.45,1.44v3.37a1.41,1.41,0,0,1-.43,1,1.39,1.39,0,0,1-1,.43H245.4l-1.07,7.33h4.23A1.45,1.45,0,0,1,250,69.64V73a1.45,1.45,0,0,1-1.44,1.44ZM232.18,68.2h5.35l1.13-7.33h-5.41Z" style="fill: rgb(198, 255, 0); transform-origin: 235.45px 64.56px;" id="el40kru2orlgh" class="animable"></path>
            <g id="eldn6ocjjvopw">
                <g style="opacity: 0.4; transform-origin: 222.568px 64.38px;" class="animable">
                    <path d="M194,57.76a1.38,1.38,0,0,1-.3-1.07,1.43,1.43,0,0,1,.57-1l11.61-9.15c.28-.21.58-.42.88-.62a1.82,1.82,0,0,1,1-.29H212a1.47,1.47,0,0,1,1.44,1.44V81.68A1.47,1.47,0,0,1,212,83.13h-4.34a1.45,1.45,0,0,1-1.44-1.45V55.25l-7.6,5.94a1.32,1.32,0,0,1-1.05.29,1.62,1.62,0,0,1-1-.56Z" style="fill: rgb(255, 255, 255); transform-origin: 203.563px 64.38px;" id="elffdnfcdddge" class="animable"></path>
                    <path d="M243.37,74.46l-.8,5.46a1.57,1.57,0,0,1-.46.8,1.23,1.23,0,0,1-.88.32H237a1.13,1.13,0,0,1-.83-.34,1.16,1.16,0,0,1-.35-.83v-.11l.81-5.3h-5.41l-.8,5.46a1.5,1.5,0,0,1-.46.8,1.21,1.21,0,0,1-.88.32h-4.23a1.13,1.13,0,0,1-.83-.34,1.16,1.16,0,0,1-.35-.83v-.11l.81-5.3h-3.59A1.47,1.47,0,0,1,219.45,73V69.64a1.47,1.47,0,0,1,1.44-1.44h4.5l1.12-7.33h-4.23a1.35,1.35,0,0,1-1-.43,1.38,1.38,0,0,1-.43-1V56.05a1.45,1.45,0,0,1,1.44-1.44h5.14l.86-5.41a1.77,1.77,0,0,1,.42-.77,1.1,1.1,0,0,1,.86-.35h4.28a1.1,1.1,0,0,1,.83.35,1.12,1.12,0,0,1,.35.82v.16l-.8,5.2h5.35l.85-5.41a1.91,1.91,0,0,1,.43-.77,1.1,1.1,0,0,1,.86-.35H246a1.1,1.1,0,0,1,.83.35,1.12,1.12,0,0,1,.35.82v.16l-.81,5.2H250a1.45,1.45,0,0,1,1.45,1.44v3.37a1.41,1.41,0,0,1-.43,1,1.39,1.39,0,0,1-1,.43H245.4l-1.07,7.33h4.23A1.45,1.45,0,0,1,250,69.64V73a1.45,1.45,0,0,1-1.44,1.44ZM232.18,68.2h5.35l1.13-7.33h-5.41Z" style="fill: rgb(255, 255, 255); transform-origin: 235.45px 64.56px;" id="el491yqldcj3y" class="animable"></path>
                </g>
            </g>
        </g>
    </g>
    <g id="freepik--Factors--inject-49" class="animable" style="transform-origin: 252.265px 218.951px;">
        <g id="freepik--Bubble--inject-49" class="animable" style="transform-origin: 88.915px 93.2109px;">
            <path d="M150.81,126a2.41,2.41,0,1,1-2.41-2.4A2.41,2.41,0,0,1,150.81,126Z" style="fill: rgb(69, 90, 100); transform-origin: 148.4px 126.01px;" id="eljxdp7pk0tkc" class="animable"></path>
            <polygon points="148 126.26 123.45 93.71 64.19 93.71 64.19 92.71 123.95 92.71 124.1 92.91 148.8 125.65 148 126.26" style="fill: rgb(69, 90, 100); transform-origin: 106.495px 109.485px;" id="el0hl6804zjs8p" class="animable"></polygon>
            <ellipse cx="64.19" cy="93.21" rx="35.69" ry="35.95" style="fill: rgb(255, 255, 255); transform-origin: 64.19px 93.21px;" id="elxql29p5bneo" class="animable"></ellipse>
            <path d="M64.19,130.12a36.91,36.91,0,1,1,36.65-36.91A36.82,36.82,0,0,1,64.19,130.12Zm0-71.91a35,35,0,1,0,34.73,35A34.9,34.9,0,0,0,64.19,58.21Z" style="fill: rgb(198, 255, 0); transform-origin: 63.9301px 93.2109px;" id="elfv5bl29gs16" class="animable"></path>
            <g id="freepik--Idea--inject-49" class="animable" style="transform-origin: 64.212px 93.1457px;">
                <path d="M59.52,115.25a.88.88,0,0,0,.89.88H68a.87.87,0,0,0,.88-.88v-3.39H59.52ZM71,92.36c-.38.07-1,.59-1.57,1.69a2.27,2.27,0,0,0,1.8-.59c.11-.12.44-.51.17-.89C71.28,92.35,71.15,92.34,71,92.36ZM57.4,92.25h-.08c-.1,0-.2,0-.33.21-.28.37,0,.77.15.89a2.26,2.26,0,0,0,1.8.62C58.35,92.86,57.77,92.33,57.4,92.25Zm6.8-13.1A13.53,13.53,0,0,0,50.67,92.67c0,10.71,8.79,12.51,8.85,16.81v.87h9.34v-.87c.07-4.3,8.86-6.1,8.86-16.81A13.52,13.52,0,0,0,64.2,79.15Zm7.89,15.08a3.5,3.5,0,0,1-3.15.9,20.87,20.87,0,0,0-.86,2.63,31,31,0,0,0-1.2,7.25.56.56,0,0,1-.56.57h0a.57.57,0,0,1-.57-.55A31.42,31.42,0,0,1,67,97.47a20.35,20.35,0,0,1,.85-2.63,8,8,0,0,1-1.44-.71,9.49,9.49,0,0,1-2.19-1.88A9.28,9.28,0,0,1,62,94.09a6.85,6.85,0,0,1-1.45.7,20.17,20.17,0,0,1,.82,2.64A29.3,29.3,0,0,1,62.45,105a.56.56,0,1,1-1.12,0,29.28,29.28,0,0,0-1.07-7.28,17.7,17.7,0,0,0-.81-2.63,3.54,3.54,0,0,1-3.14-1,1.82,1.82,0,0,1-.23-2.33,1.54,1.54,0,0,1,1.55-.63c.88.18,1.74,1.1,2.47,2.6a6.72,6.72,0,0,0,1.32-.62,8.9,8.9,0,0,0,2.11-1.79,4.2,4.2,0,0,1-.8-3.17,1.58,1.58,0,0,1,3,0,4.19,4.19,0,0,1-.85,3.16A8.53,8.53,0,0,0,67,93.17a6.43,6.43,0,0,0,1.29.64c.77-1.48,1.63-2.39,2.53-2.55a1.5,1.5,0,0,1,1.52.64A1.82,1.82,0,0,1,72.09,94.23Zm-7.84-6a.37.37,0,0,0-.44.3,2.86,2.86,0,0,0,.42,1.85,2.76,2.76,0,0,0,.45-1.84A.38.38,0,0,0,64.25,88.19Z" style="fill: rgb(198, 255, 0); transform-origin: 64.195px 97.64px;" id="elselltxmo5i" class="animable"></path>
                <g id="freepik--idea--inject-49" class="animable" style="transform-origin: 64.212px 81.8031px;">
                    <path d="M64.37,75.92a.64.64,0,0,1-.2,0,.78.78,0,0,1-.79-.78v-4.1a.79.79,0,1,1,1.57,0v4.1A.77.77,0,0,1,64.37,75.92Z" style="fill: rgb(198, 255, 0); transform-origin: 64.165px 73.0446px;" id="elxpc4fpjulnk" class="animable"></path>
                    <path d="M55.64,78.28a.78.78,0,0,1-.89-.36l-2.06-3.54A.8.8,0,0,1,53,73.3a.78.78,0,0,1,1.07.29l2.06,3.54a.77.77,0,0,1-.29,1.07A.71.71,0,0,1,55.64,78.28Z" style="fill: rgb(198, 255, 0); transform-origin: 54.4158px 75.7524px;" id="elgxzcp9a3fh6" class="animable"></path>
                    <path d="M49.25,84.69a.84.84,0,0,1-.6-.07L45.1,82.57a.77.77,0,0,1-.29-1.07.78.78,0,0,1,1.07-.29l3.55,2a.79.79,0,0,1,.29,1.08A.8.8,0,0,1,49.25,84.69Z" style="fill: rgb(198, 255, 0); transform-origin: 47.2634px 82.9106px;" id="eluyqaw4ycd" class="animable"></path>
                    <path d="M46.92,93.44l-.2,0h-4.1a.79.79,0,1,1,0-1.57h4.09a.79.79,0,0,1,.21,1.55Z" style="fill: rgb(198, 255, 0); transform-origin: 44.6179px 92.655px;" id="elwtd8p623k1e" class="animable"></path>
                    <path d="M86,93.37a.71.71,0,0,1-.21,0H81.68a.79.79,0,1,1,0-1.57h4.1A.79.79,0,0,1,86,93.37Z" style="fill: rgb(198, 255, 0); transform-origin: 83.742px 92.5851px;" id="elfkm7jhpcmsw" class="animable"></path>
                    <path d="M79.53,84.64a.79.79,0,0,1-.61-1.44l3.55-2a.78.78,0,0,1,1.07.28.79.79,0,0,1-.28,1.08l-3.55,2A.71.71,0,0,1,79.53,84.64Z" style="fill: rgb(198, 255, 0); transform-origin: 81.0936px 82.8791px;" id="el0bbmnlvz8499" class="animable"></path>
                    <path d="M73.12,78.25a.84.84,0,0,1-.6-.07.79.79,0,0,1-.29-1.08l2-3.55a.79.79,0,0,1,1.07-.29.78.78,0,0,1,.29,1.07l-2,3.56A.8.8,0,0,1,73.12,78.25Z" style="fill: rgb(198, 255, 0); transform-origin: 73.9097px 75.7174px;" id="el7ftkr1vt93r" class="animable"></path>
                </g>
                <g id="el4x9oxpsovem">
                    <g style="opacity: 0.5; transform-origin: 64.212px 93.1457px;" class="animable">
                        <path d="M59.52,115.25a.88.88,0,0,0,.89.88H68a.87.87,0,0,0,.88-.88v-3.39H59.52ZM71,92.36c-.38.07-1,.59-1.57,1.69a2.27,2.27,0,0,0,1.8-.59c.11-.12.44-.51.17-.89C71.28,92.35,71.15,92.34,71,92.36ZM57.4,92.25h-.08c-.1,0-.2,0-.33.21-.28.37,0,.77.15.89a2.26,2.26,0,0,0,1.8.62C58.35,92.86,57.77,92.33,57.4,92.25Zm6.8-13.1A13.53,13.53,0,0,0,50.67,92.67c0,10.71,8.79,12.51,8.85,16.81v.87h9.34v-.87c.07-4.3,8.86-6.1,8.86-16.81A13.52,13.52,0,0,0,64.2,79.15Zm7.89,15.08a3.5,3.5,0,0,1-3.15.9,20.87,20.87,0,0,0-.86,2.63,31,31,0,0,0-1.2,7.25.56.56,0,0,1-.56.57h0a.57.57,0,0,1-.57-.55A31.42,31.42,0,0,1,67,97.47a20.35,20.35,0,0,1,.85-2.63,8,8,0,0,1-1.44-.71,9.49,9.49,0,0,1-2.19-1.88A9.28,9.28,0,0,1,62,94.09a6.85,6.85,0,0,1-1.45.7,20.17,20.17,0,0,1,.82,2.64A29.3,29.3,0,0,1,62.45,105a.56.56,0,1,1-1.12,0,29.28,29.28,0,0,0-1.07-7.28,17.7,17.7,0,0,0-.81-2.63,3.54,3.54,0,0,1-3.14-1,1.82,1.82,0,0,1-.23-2.33,1.54,1.54,0,0,1,1.55-.63c.88.18,1.74,1.1,2.47,2.6a6.72,6.72,0,0,0,1.32-.62,8.9,8.9,0,0,0,2.11-1.79,4.2,4.2,0,0,1-.8-3.17,1.58,1.58,0,0,1,3,0,4.19,4.19,0,0,1-.85,3.16A8.53,8.53,0,0,0,67,93.17a6.43,6.43,0,0,0,1.29.64c.77-1.48,1.63-2.39,2.53-2.55a1.5,1.5,0,0,1,1.52.64A1.82,1.82,0,0,1,72.09,94.23Zm-7.84-6a.37.37,0,0,0-.44.3,2.86,2.86,0,0,0,.42,1.85,2.76,2.76,0,0,0,.45-1.84A.38.38,0,0,0,64.25,88.19Z" style="fill: rgb(255, 255, 255); transform-origin: 64.195px 97.64px;" id="el3yj8yf88wh4" class="animable"></path>
                        <g id="freepik--idea--inject-49" class="animable" style="transform-origin: 64.212px 81.8031px;">
                            <path d="M64.37,75.92a.64.64,0,0,1-.2,0,.78.78,0,0,1-.79-.78v-4.1a.79.79,0,1,1,1.57,0v4.1A.77.77,0,0,1,64.37,75.92Z" style="fill: rgb(255, 255, 255); transform-origin: 64.165px 73.0446px;" id="ell979nckve" class="animable"></path>
                            <path d="M55.64,78.28a.78.78,0,0,1-.89-.36l-2.06-3.54A.8.8,0,0,1,53,73.3a.78.78,0,0,1,1.07.29l2.06,3.54a.77.77,0,0,1-.29,1.07A.71.71,0,0,1,55.64,78.28Z" style="fill: rgb(255, 255, 255); transform-origin: 54.4158px 75.7524px;" id="el2zre8oa08or" class="animable"></path>
                            <path d="M49.25,84.69a.84.84,0,0,1-.6-.07L45.1,82.57a.77.77,0,0,1-.29-1.07.78.78,0,0,1,1.07-.29l3.55,2a.79.79,0,0,1,.29,1.08A.8.8,0,0,1,49.25,84.69Z" style="fill: rgb(255, 255, 255); transform-origin: 47.2634px 82.9106px;" id="elj6w9pl4dcik" class="animable"></path>
                            <path d="M46.92,93.44l-.2,0h-4.1a.79.79,0,1,1,0-1.57h4.09a.79.79,0,0,1,.21,1.55Z" style="fill: rgb(255, 255, 255); transform-origin: 44.6179px 92.655px;" id="elok0y1ohvrdn" class="animable"></path>
                            <path d="M86,93.37a.71.71,0,0,1-.21,0H81.68a.79.79,0,1,1,0-1.57h4.1A.79.79,0,0,1,86,93.37Z" style="fill: rgb(255, 255, 255); transform-origin: 83.742px 92.5851px;" id="el7nrsbe7yoz2" class="animable"></path>
                            <path d="M79.53,84.64a.79.79,0,0,1-.61-1.44l3.55-2a.78.78,0,0,1,1.07.28.79.79,0,0,1-.28,1.08l-3.55,2A.71.71,0,0,1,79.53,84.64Z" style="fill: rgb(255, 255, 255); transform-origin: 81.0936px 82.8791px;" id="eln75t853oqjp" class="animable"></path>
                            <path d="M73.12,78.25a.84.84,0,0,1-.6-.07.79.79,0,0,1-.29-1.08l2-3.55a.79.79,0,0,1,1.07-.29.78.78,0,0,1,.29,1.07l-2,3.56A.8.8,0,0,1,73.12,78.25Z" style="fill: rgb(255, 255, 255); transform-origin: 73.9097px 75.7174px;" id="elhotsutpe1yq" class="animable"></path>
                        </g>
                    </g>
                </g>
            </g>
        </g>
        <g id="freepik--bubble--inject-49" class="animable" style="transform-origin: 427.975px 329.055px;">
            <polygon points="440.08 344.92 405.81 279.27 381.19 279.39 381.18 278.39 406.41 278.27 406.55 278.54 440.96 344.45 440.08 344.92" style="fill: rgb(69, 90, 100); transform-origin: 411.07px 311.595px;" id="elo3yn0ih3w48" class="animable"></polygon>
            <path d="M383.6,278.92a2.41,2.41,0,1,1-2.41-2.41A2.41,2.41,0,0,1,383.6,278.92Z" style="fill: rgb(69, 90, 100); transform-origin: 381.19px 278.92px;" id="elkvzyo4a887t" class="animable"></path>
            <ellipse cx="440.52" cy="344.68" rx="35.69" ry="35.95" style="fill: rgb(255, 255, 255); transform-origin: 440.52px 344.68px;" id="elgck0rnua3w6" class="animable"></ellipse>
            <path d="M440.52,381.6a36.92,36.92,0,1,1,36.65-36.92A36.83,36.83,0,0,1,440.52,381.6Zm0-71.91a35,35,0,1,0,34.73,35A34.9,34.9,0,0,0,440.52,309.69Z" style="fill: rgb(198, 255, 0); transform-origin: 440.25px 344.681px;" id="elpxao3f4k1qi" class="animable"></path>
            <g id="freepik--gear--inject-49" class="animable" style="transform-origin: 440.521px 344.69px;">
                <path id="freepik--gear--inject-49" d="M462.22,346.71l0-4.29a1.24,1.24,0,0,0-1-1.25l-4.14-.42a2.07,2.07,0,0,1-1.44-1.4c-.18-.46-.37-.91-.58-1.35a2.13,2.13,0,0,1-.14-2l2.77-3.4c.31-.38.1-1.13-.48-1.69l-2.71-2.62c-.57-.55-1.34-.76-1.71-.47l-3.5,2.77a2,2,0,0,1-1.8,0,16.22,16.22,0,0,0-1.83-.73,1.92,1.92,0,0,1-1.23-1.52l-.42-3.62a1.28,1.28,0,0,0-1.12-1.21l-4.78,0a1.2,1.2,0,0,0-1.1,1.08l-.43,3.91a1.66,1.66,0,0,1-1,1.33,15.17,15.17,0,0,0-2.39,1,2,2,0,0,1-1.87-.43l-2.68-2.09c-.61-.47-1.38-.57-1.72-.23l-3.51,3.45c-.35.34-.2,1.13.32,1.76l2,2.45a2,2,0,0,1,.5,1.94,15.16,15.16,0,0,0-.93,2.19,1.65,1.65,0,0,1-1.23,1.06l-4.31.48a1.22,1.22,0,0,0-.94,1.26l0,4.28a1.24,1.24,0,0,0,1,1.26l4.15.42a2.1,2.1,0,0,1,1.44,1.4q.26.69.57,1.35a2.13,2.13,0,0,1,.14,2l-2.77,3.4c-.31.38-.09,1.13.48,1.69l2.71,2.62c.57.55,1.34.76,1.72.47l3.49-2.77a2,2,0,0,1,1.8,0,16.22,16.22,0,0,0,1.83.73,1.92,1.92,0,0,1,1.23,1.52l.42,3.62a1.29,1.29,0,0,0,1.13,1.21l4.77,0a1.18,1.18,0,0,0,1.1-1.08l.43-3.9a1.65,1.65,0,0,1,1-1.33,15.73,15.73,0,0,0,2.4-1,2,2,0,0,1,1.86.44l2.69,2.08c.6.47,1.37.58,1.71.24l3.52-3.45c.34-.34.19-1.13-.33-1.76l-2-2.45a2.06,2.06,0,0,1-.5-1.94,14.12,14.12,0,0,0,.93-2.19,1.65,1.65,0,0,1,1.23-1.06l4.31-.48A1.22,1.22,0,0,0,462.22,346.71Zm-21.67,7.12a9.15,9.15,0,1,1,9.34-9.2A9.24,9.24,0,0,1,440.55,353.83Z" style="fill: rgb(198, 255, 0); transform-origin: 440.521px 344.69px;" class="animable"></path>
                <g id="freepik--gear--inject-49">
                    <g style="opacity: 0.5; transform-origin: 440.521px 344.69px;" class="animable">
                        <path d="M462.22,346.71l0-4.29a1.24,1.24,0,0,0-1-1.25l-4.14-.42a2.07,2.07,0,0,1-1.44-1.4c-.18-.46-.37-.91-.58-1.35a2.13,2.13,0,0,1-.14-2l2.77-3.4c.31-.38.1-1.13-.48-1.69l-2.71-2.62c-.57-.55-1.34-.76-1.71-.47l-3.5,2.77a2,2,0,0,1-1.8,0,16.22,16.22,0,0,0-1.83-.73,1.92,1.92,0,0,1-1.23-1.52l-.42-3.62a1.28,1.28,0,0,0-1.12-1.21l-4.78,0a1.2,1.2,0,0,0-1.1,1.08l-.43,3.91a1.66,1.66,0,0,1-1,1.33,15.17,15.17,0,0,0-2.39,1,2,2,0,0,1-1.87-.43l-2.68-2.09c-.61-.47-1.38-.57-1.72-.23l-3.51,3.45c-.35.34-.2,1.13.32,1.76l2,2.45a2,2,0,0,1,.5,1.94,15.16,15.16,0,0,0-.93,2.19,1.65,1.65,0,0,1-1.23,1.06l-4.31.48a1.22,1.22,0,0,0-.94,1.26l0,4.28a1.24,1.24,0,0,0,1,1.26l4.15.42a2.1,2.1,0,0,1,1.44,1.4q.26.69.57,1.35a2.13,2.13,0,0,1,.14,2l-2.77,3.4c-.31.38-.09,1.13.48,1.69l2.71,2.62c.57.55,1.34.76,1.72.47l3.49-2.77a2,2,0,0,1,1.8,0,16.22,16.22,0,0,0,1.83.73,1.92,1.92,0,0,1,1.23,1.52l.42,3.62a1.29,1.29,0,0,0,1.13,1.21l4.77,0a1.18,1.18,0,0,0,1.1-1.08l.43-3.9a1.65,1.65,0,0,1,1-1.33,15.73,15.73,0,0,0,2.4-1,2,2,0,0,1,1.86.44l2.69,2.08c.6.47,1.37.58,1.71.24l3.52-3.45c.34-.34.19-1.13-.33-1.76l-2-2.45a2.06,2.06,0,0,1-.5-1.94,14.12,14.12,0,0,0,.93-2.19,1.65,1.65,0,0,1,1.23-1.06l4.31-.48A1.22,1.22,0,0,0,462.22,346.71Zm-21.67,7.12a9.15,9.15,0,1,1,9.34-9.2A9.24,9.24,0,0,1,440.55,353.83Z" style="fill: rgb(255, 255, 255); transform-origin: 440.521px 344.69px;" id="elv2gbos7lzpj" class="animable"></path>
                    </g>
                </g>
            </g>
        </g>
        <g id="freepik--bubble--inject-49" class="animable" style="transform-origin: 428.035px 135.145px;">
            <polygon points="405.44 189.96 376.92 189.96 376.92 188.96 404.84 188.96 444.48 115.1 445.36 115.57 405.44 189.96" style="fill: rgb(69, 90, 100); transform-origin: 411.14px 152.53px;" id="elf0b8lmfz61d" class="animable"></polygon>
            <path d="M379.32,189.46a2.41,2.41,0,1,1-2.4-2.41A2.4,2.4,0,0,1,379.32,189.46Z" style="fill: rgb(69, 90, 100); transform-origin: 376.91px 189.46px;" id="elj2uz1iw6ec8" class="animable"></path>
            <ellipse cx="444.92" cy="115.33" rx="35.69" ry="35.95" style="fill: rgb(255, 255, 255); transform-origin: 444.92px 115.33px;" id="el8yddvuntu07" class="animable"></ellipse>
            <path d="M444.92,152.24a36.91,36.91,0,1,1,36.65-36.91A36.82,36.82,0,0,1,444.92,152.24Zm0-71.9a35,35,0,1,0,34.73,35A34.9,34.9,0,0,0,444.92,80.34Z" style="fill: rgb(198, 255, 0); transform-origin: 444.66px 115.331px;" id="el5bf9iszg9d7" class="animable"></path>
            <g id="freepik--Study--inject-49" class="animable" style="transform-origin: 444.92px 115.333px;">
                <path id="freepik--study--inject-49" d="M442.38,110.37a2.57,2.57,0,0,1,.26-2,2.67,2.67,0,0,1,3.6-1l14.16,8.18,10.21-5.89L444.92,94.85l-25.69,14.83,25.69,14.83,10.21-5.89L443.6,112A2.6,2.6,0,0,1,442.38,110.37Zm-15.62,6.12V125c0,2.68,1.77,5.37,5.32,7.41,6,3.49,15.29,4,22.27,1.55l.71-4a3.6,3.6,0,0,1,.07-4.75v-4.07L444.92,127Zm33.64,8.67a3.59,3.59,0,0,1,.08,4.75l.07.42a7.52,7.52,0,0,0,2.54-5.35v-8.49L460.4,118Zm-.64,2.42a2,2,0,0,0-.94-1.69v-9.4l-13.37-7.72a1.05,1.05,0,1,0-1.05,1.82l12.31,7.11v8.19a2,2,0,0,0,.06,3.41l-.95,5.47c0,1.4,3.9,1.39,3.9,0l-1-5.47A2,2,0,0,0,459.76,127.58Z" style="fill: rgb(198, 255, 0); transform-origin: 444.92px 115.333px;" class="animable"></path>
                <g id="freepik--study--inject-49">
                    <g style="opacity: 0.5; transform-origin: 444.92px 115.333px;" class="animable">
                        <path d="M442.38,110.37a2.57,2.57,0,0,1,.26-2,2.67,2.67,0,0,1,3.6-1l14.16,8.18,10.21-5.89L444.92,94.85l-25.69,14.83,25.69,14.83,10.21-5.89L443.6,112A2.6,2.6,0,0,1,442.38,110.37Zm-15.62,6.12V125c0,2.68,1.77,5.37,5.32,7.41,6,3.49,15.29,4,22.27,1.55l.71-4a3.6,3.6,0,0,1,.07-4.75v-4.07L444.92,127Zm33.64,8.67a3.59,3.59,0,0,1,.08,4.75l.07.42a7.52,7.52,0,0,0,2.54-5.35v-8.49L460.4,118Zm-.64,2.42a2,2,0,0,0-.94-1.69v-9.4l-13.37-7.72a1.05,1.05,0,1,0-1.05,1.82l12.31,7.11v8.19a2,2,0,0,0,.06,3.41l-.95,5.47c0,1.4,3.9,1.39,3.9,0l-1-5.47A2,2,0,0,0,459.76,127.58Z" style="fill: rgb(255, 255, 255); transform-origin: 444.92px 115.333px;" id="elq6jggol5yyd" class="animable"></path>
                    </g>
                </g>
            </g>
        </g>
        <g id="freepik--bubble--inject-49" class="animable" style="transform-origin: 83.345px 337.361px;">
            <polygon points="118.31 337.86 60.13 337.86 60.13 336.86 117.81 336.86 140.91 304.98 141.72 305.57 118.31 337.86" style="fill: rgb(69, 90, 100); transform-origin: 100.925px 321.42px;" id="elwb418z69aok" class="animable"></polygon>
            <path d="M143.73,305.28a2.41,2.41,0,1,1-2.41-2.41A2.41,2.41,0,0,1,143.73,305.28Z" style="fill: rgb(69, 90, 100); transform-origin: 141.32px 305.28px;" id="el9zx2q0zivz9" class="animable"></path>
            <ellipse cx="60.13" cy="337.36" rx="35.69" ry="35.95" style="fill: rgb(255, 255, 255); transform-origin: 60.13px 337.36px;" id="eljwv5aroo2m" class="animable"></ellipse>
            <path d="M60.13,374.27a36.91,36.91,0,1,1,36.65-36.91A36.82,36.82,0,0,1,60.13,374.27Zm0-71.91a35,35,0,1,0,34.73,35A34.9,34.9,0,0,0,60.13,302.36Z" style="fill: rgb(198, 255, 0); transform-origin: 59.8701px 337.361px;" id="elue6yfeiqztf" class="animable"></path>
            <g id="freepik--Team--inject-49" class="animable" style="transform-origin: 60.1322px 337.365px;">
                <path id="freepik--team-icon--inject-49" d="M60.13,336.08a7,7,0,1,0-7-7A7,7,0,0,0,60.13,336.08Zm12.16,8.83a7.21,7.21,0,0,0-7.05-5.71H55A7.21,7.21,0,0,0,48,344.91l-1.25,5.86A1.87,1.87,0,0,0,48.54,353H71.72a1.88,1.88,0,0,0,1.83-2.26ZM76,331.77a5,5,0,1,0-5-5A5,5,0,0,0,76,331.77Zm8.75,5.69a5.21,5.21,0,0,0-5.08-4.09H72.3a5.14,5.14,0,0,0-4.71,3,10.18,10.18,0,0,1,7.63,6.9h8.91c1.4,0,1.6-.36,1.31-1.74ZM49.33,326.73a5,5,0,1,0-5,5A5,5,0,0,0,49.33,326.73ZM34.82,341.57c-.28,1.38-.09,1.74,1.32,1.74h8.91a10.17,10.17,0,0,1,7.62-6.9,5.12,5.12,0,0,0-4.71-3H40.62a5.21,5.21,0,0,0-5.07,4.09Z" style="fill: rgb(198, 255, 0); transform-origin: 60.1322px 337.365px;" class="animable"></path>
                <g id="freepik--team-icon--inject-49">
                    <g style="opacity: 0.5; transform-origin: 60.1322px 337.365px;" class="animable">
                        <path d="M60.13,336.08a7,7,0,1,0-7-7A7,7,0,0,0,60.13,336.08Zm12.16,8.83a7.21,7.21,0,0,0-7.05-5.71H55A7.21,7.21,0,0,0,48,344.91l-1.25,5.86A1.87,1.87,0,0,0,48.54,353H71.72a1.88,1.88,0,0,0,1.83-2.26ZM76,331.77a5,5,0,1,0-5-5A5,5,0,0,0,76,331.77Zm8.75,5.69a5.21,5.21,0,0,0-5.08-4.09H72.3a5.14,5.14,0,0,0-4.71,3,10.18,10.18,0,0,1,7.63,6.9h8.91c1.4,0,1.6-.36,1.31-1.74ZM49.33,326.73a5,5,0,1,0-5,5A5,5,0,0,0,49.33,326.73ZM34.82,341.57c-.28,1.38-.09,1.74,1.32,1.74h8.91a10.17,10.17,0,0,1,7.62-6.9,5.12,5.12,0,0,0-4.71-3H40.62a5.21,5.21,0,0,0-5.07,4.09Z" style="fill: rgb(255, 255, 255); transform-origin: 60.1322px 337.365px;" id="elpnanzidkodf" class="animable"></path>
                    </g>
                </g>
            </g>
        </g>
    </g>
    <g id="freepik--Character--inject-49" class="animable" style="transform-origin: 325.707px 235.363px;">
        <g id="freepik--character--inject-49" class="animable" style="transform-origin: 325.707px 235.363px;">
            <g id="freepik--Bottom--inject-49" class="animable" style="transform-origin: 334.028px 330.108px;">
                <path d="M355.67,381.77c.21-4.94,3.05-59.56,3.05-59.56l-25,18c3.9,28.5,5.54,41.61,5.82,46.36h0a4.24,4.24,0,0,0-.09,1.22c.25,5.64,7.06,8.45,12.44,12a98,98,0,0,0,14.47,8.28c3.86,1.68,11.58,1.57,12.44-.78-6.54-4.39-14.1-9.18-19.36-14.27C356.91,390.63,355.43,387.71,355.67,381.77Z" style="fill: rgb(177, 102, 104); transform-origin: 356.26px 365.71px;" id="ell8fe6h3xuy" class="animable"></path>
                <path d="M386.4,413.09c.3,0,.89,3.39-.71,4.9-1.84,1.74-7.34,4.69-14.78,4s-11.54-2.89-14.6-5.31-7.35-5.83-10.73-6.46c-3.14-.59-6.57-1.9-7.61-2.84s-1.06-5.3-1.06-5.3Z" style="fill: rgb(38, 50, 56); transform-origin: 361.834px 412.086px;" id="eldffny87sflj" class="animable"></path>
                <path d="M339.42,385.21s-.81,0-1,1c-.18,1.2-.39,4.72-.81,6.7-.57,2.76-1,8.42-.54,10.63s5.62,3.58,8.91,4.72a41.52,41.52,0,0,1,10.76,6.38c3.59,2.79,11,5.46,15.85,5.36,7.38-.16,12.07-2.36,13.44-5.11,1.7-3.4,1.05-5.74-7.57-9.43a100,100,0,0,1-9.61-5.3,28.23,28.23,0,0,1-11.15-12.85,3.31,3.31,0,0,0-1.29-1.75,2.65,2.65,0,0,0-1.65-.09c-1.41.25-5.47.91-6.73,1.58s-2.7,1.29-2.62,2.77a4.88,4.88,0,0,0,.38,1.49c.11.3.2.7-.05.89s-.57,0-.8-.2a22,22,0,0,1-2.39-2.7A8.39,8.39,0,0,0,341.2,388a14.8,14.8,0,0,1-1.49-.91S339.47,385.9,339.42,385.21Z" style="fill: rgb(69, 90, 100); transform-origin: 361.829px 402.606px;" id="el1u1h35ecoqfi" class="animable"></path>
                <path d="M378.74,405.46c-10.64,1.13-15.09,8.13-13.74,13.2a25,25,0,0,0,7.63,1.35c7.38-.16,12.37-2.37,13.74-5.12C388,411.69,386.41,408.11,378.74,405.46Z" style="fill: rgb(250, 250, 250); transform-origin: 375.857px 412.735px;" id="el7ynfhm075i2" class="animable"></path>
                <path d="M364.25,407a.51.51,0,0,1-.33-.1.55.55,0,0,1-.1-.75,12.4,12.4,0,0,1,9.49-4.21.54.54,0,0,1,.49.57.52.52,0,0,1-.56.49,11.5,11.5,0,0,0-8.59,3.8A.49.49,0,0,1,364.25,407Z" style="fill: rgb(240, 240, 240); transform-origin: 368.758px 404.47px;" id="elr73ikdt9xa" class="animable"></path>
                <path d="M360,404.41a.53.53,0,0,1-.43-.85,12.34,12.34,0,0,1,9.49-4.22.54.54,0,0,1,.49.57.52.52,0,0,1-.56.49,11.5,11.5,0,0,0-8.59,3.8A.55.55,0,0,1,360,404.41Z" style="fill: rgb(240, 240, 240); transform-origin: 364.507px 401.874px;" id="elzekfo8tp2j" class="animable"></path>
                <path d="M355.7,401.08a.51.51,0,0,1-.33-.1.54.54,0,0,1-.1-.75,12.4,12.4,0,0,1,9.49-4.21.53.53,0,0,1,.49.57.52.52,0,0,1-.56.49,11.49,11.49,0,0,0-8.59,3.79A.49.49,0,0,1,355.7,401.08Z" style="fill: rgb(240, 240, 240); transform-origin: 360.207px 398.55px;" id="ellhpma70q4ej" class="animable"></path>
                <path d="M351.5,397.75a.48.48,0,0,1-.32-.11.53.53,0,0,1-.12-.74c1.95-2.7,6.5-4.59,10.38-4.3a.54.54,0,0,1,.49.57.53.53,0,0,1-.56.49c-3.5-.26-7.74,1.48-9.47,3.87A.5.5,0,0,1,351.5,397.75Z" style="fill: rgb(240, 240, 240); transform-origin: 356.445px 395.16px;" id="el9cpn7hvbus5" class="animable"></path>
                <path d="M312.83,343.09l-24.67-5c-.84,14.93-.45,39.3-.43,53.1,0,2.64-1.74,20.45-1.06,25.94,1,8.25,12.08,7.86,13.05,3s2.06-25.53,2.27-27.68a12.56,12.56,0,0,1,.22-1.92C304.94,378,312.67,343.8,312.83,343.09Z" style="fill: rgb(177, 102, 104); transform-origin: 299.671px 380.843px;" id="elm2qlci4nheo" class="animable"></path>
                <path d="M303.58,423.82c-.17,4.79-.91,8-2.74,10.84s-5.45,3.83-9.16,3.09-8.49-2.82-9.68-6.93-1.06-6.95-.37-11.41Z" style="fill: rgb(38, 50, 56); transform-origin: 292.344px 428.698px;" id="elpl65l36q2j" class="animable"></path>
                <path d="M287.73,389.66c-1.52.14-1.68,6.39-2.34,12.86-.72,6.92-3,9.83-3.62,15.51-.75,6.49-.27,9.37,2.43,13.22s11.91,7.47,16.21,1.76c3.51-4.65,3.49-9.71,2.95-16.16a146.16,146.16,0,0,1-.87-16.43c.14-4.85,1-9.35-.29-9.86-.08.71-.15,1.62-.24,2.32-.06.54-.13,3.16-1,3.21a8.6,8.6,0,0,1-.07-1.83,2,2,0,0,0-.47-1.55,5.81,5.81,0,0,0-2.38-.82c-1.5-.22-3-.42-4.53-.51-.75,0-1.51-.05-2.27,0a6.52,6.52,0,0,0-1.92.29,1.32,1.32,0,0,0-.8.67,1.86,1.86,0,0,0-.05.74,5.06,5.06,0,0,1-.15,1.34c0,.19-.19.42-.41.38s-.25-.22-.26-.38c0-.78.07-1.35.08-2.26,0-.42,0-.82,0-1.24S287.71,390.08,287.73,389.66Z" style="fill: rgb(69, 90, 100); transform-origin: 292.538px 412.819px;" id="el45pn2vcttuc" class="animable"></path>
                <path d="M281.47,421.79c-.13,4,.22,6.76,2.33,9.77,2.69,3.85,12.64,7.47,16.94,1.77,2.14-2.84,2.63-6.15,2.83-9.52C300.75,419.56,285.59,418,281.47,421.79Z" style="fill: rgb(250, 250, 250); transform-origin: 292.508px 427.965px;" id="elcv17f36bi97" class="animable"></path>
                <path d="M299.45,416.87a.39.39,0,0,1-.18,0,25,25,0,0,0-13.13-.88.57.57,0,0,1-.68-.36.49.49,0,0,1,.4-.6,25.87,25.87,0,0,1,13.86.93.48.48,0,0,1,.29.66A.57.57,0,0,1,299.45,416.87Z" style="fill: rgb(240, 240, 240); transform-origin: 292.75px 415.685px;" id="elodtzjcfx6oo" class="animable"></path>
                <path d="M286.36,411.12a.54.54,0,0,1-.49-.32.48.48,0,0,1,.33-.64c6.74-2.19,13.55.7,13.84.82a.47.47,0,0,1,.26.67.6.6,0,0,1-.75.22c-.07,0-6.69-2.83-13-.78A.45.45,0,0,1,286.36,411.12Z" style="fill: rgb(240, 240, 240); transform-origin: 293.097px 410.633px;" id="elo076p3y0l18" class="animable"></path>
                <path d="M286.6,406.57a.56.56,0,0,1-.48-.32.47.47,0,0,1,.31-.64,19.49,19.49,0,0,1,14.12.78.47.47,0,0,1,.21.68.59.59,0,0,1-.76.18,18.6,18.6,0,0,0-13.15-.72A.77.77,0,0,1,286.6,406.57Z" style="fill: rgb(240, 240, 240); transform-origin: 293.457px 405.982px;" id="elij4v9uqivu9" class="animable"></path>
                <path d="M286.9,401.45a.55.55,0,0,1-.48-.31.47.47,0,0,1,.3-.64c6.94-2.48,13.93.77,14.23.91a.47.47,0,0,1,.22.68.6.6,0,0,1-.76.2c-.07,0-6.82-3.18-13.26-.88A.55.55,0,0,1,286.9,401.45Z" style="fill: rgb(235, 235, 235); transform-origin: 293.81px 400.961px;" id="eloopjyhevhjf" class="animable"></path>
                <path d="M294.78,228c-1.53,28.16-3.91,80.15-3.91,80.15-.34,3.28-3.34,17.77-3.64,29.59-.5,19,.26,36.56.26,36.56s10.89,4.65,18.45,1.65c0,0,10-42.93,12.49-55.29,3-14.73,9.4-44.05,9.4-44.05l5,38.91s-1.58,13.86,0,25.31c1.07,7.8,5.1,33.75,5.1,33.75s10,2.15,18.27-.47c0,0,3.85-55.14,4.33-62.33s1.88-44.19.11-89.55Z" style="fill: rgb(55, 71, 79); transform-origin: 324.285px 299.594px;" id="elj3pqsbmrqwb" class="animable"></path>
                <path d="M356.62,369c-4,3-15,2.81-19.61.39l1.4,8.16c3.29,1.91,13,2.28,17.83-1.05Z" style="fill: rgb(38, 50, 56); transform-origin: 346.815px 373.999px;" id="eleysfm6hzc3" class="animable"></path>
                <path d="M307.18,371.09c-5.72,2.52-16.52,1-19.9-2.13v8c2.66,2.66,12.94,3.95,18.38,1.91Z" style="fill: rgb(38, 50, 56); transform-origin: 297.23px 374.416px;" id="el9qzjkvsimks" class="animable"></path>
                <path d="M327.83,276.56l4.2-25.22a22.61,22.61,0,0,0,14.12-6s-.66,5.81-11.9,9.53l-3.85,20.93,2.47,39.71Z" style="fill: rgb(38, 50, 56); transform-origin: 336.99px 280.425px;" id="eld1frhb9edgl" class="animable"></path>
            </g>
            <g id="freepik--Top--inject-49" class="animable" style="transform-origin: 324.577px 154.325px;">
                <path d="M364.77,46.27c0-2.53-.2-4.76-.22-7.9s.58-5.35,2.18-5.61,2.36,1.93,2.82,6.1c.73,6.66,1.27,11.45,1.91,11.57,1.81-2.4,2.39-3,4.38-1.86,1.34.77,1.17,2.88,1.17,2.88a2.06,2.06,0,0,1,2.77-.34A2.8,2.8,0,0,1,381,53.82s1-.92,2.24.29a4.66,4.66,0,0,1,1.44,3.66l-1.3-.51a2.93,2.93,0,0,1-.8,1.09c-.58.52-1,2-1.39,3.29s-.67,2.75-1.86,3a1.71,1.71,0,0,1-2.26-1.12,5.42,5.42,0,0,1,.06-1.56s-.64,1.83-2.32,1.57-1.67-1.76-1.73-2.73c-1,.39-2,.67-2.53-.08s-.54-4-.54-4l-2.7-.52s-2.41-.27-2.45-2.06C364.79,51,364.78,49.11,364.77,46.27Z" style="fill: rgb(177, 102, 104); transform-origin: 374.619px 48.7473px;" id="eltpybc7s4sp" class="animable"></path>
                <path d="M384.69,57.77c-.47,2.53-2.71,11.37-3.39,12.61-.82,1.48-1.14,3.06-1,7.62.08,2.47,3.17,32.55,3.17,32.55l-19-5.15,2.16-27.72c-.74-5.13-1.93-7.39-3.65-9.56-2.26-2.87-2.66-4.61-2.46-6.14.42-3.17,1.5-7.69,2-8.46.76-1.23,3-1.85,3-1.85a6.73,6.73,0,0,1,2.75-.25l4.64,3.3s0,1.5-1.1,2a3,3,0,0,1-1.82.25s-.11,3,.57,3.63,1.2.79,2.3-.15c.18,1.11.38,2.81,1.7,3S377.14,62,377.14,62s.28,3,1.26,3,3.4-9.4,3.4-9.4Z" style="fill: rgb(177, 102, 104); transform-origin: 372.582px 80.9624px;" id="elkrj53z4x5bl" class="animable"></path>
                <path d="M365.13,91.38l.35-5.81s2.76,1.57,8,1.2a23,23,0,0,0,7.72-1.61l.69,6.35S373.31,96.09,365.13,91.38Z" style="fill: rgb(250, 250, 250); transform-origin: 373.51px 89.3338px;" id="elgz69tbvdak8" class="animable"></path>
                <path d="M365.05,58.34a19,19,0,0,1,5.17,3.23,21.15,21.15,0,0,1,4.64,6.18,13.27,13.27,0,0,0-3.13-6.08,1.8,1.8,0,0,0,1-.38c0,1.4.23,2.72,2,2.73a2.23,2.23,0,0,0,2-.93,1.91,1.91,0,0,0,1.06,1.85,1.78,1.78,0,0,0,2.28-.48,4.23,4.23,0,0,0,.25-.47.19.19,0,0,0,0-.08s0,0-.05,0l-.2.18a2,2,0,0,1-1.75.6,1.59,1.59,0,0,1-.81-1.17,6.72,6.72,0,0,1,0-2.28.15.15,0,0,0,0-.09c0-.06-.15,0-.2.05-.3.34-.51.75-.79,1.11A1.84,1.84,0,0,1,375,63c-1.25,0-1.55-1.55-1.52-2.56,0-.33.05-.66.05-1,0,0,0-.11-.07-.11l0,0a1.8,1.8,0,0,0-.41.5,2.93,2.93,0,0,1-.46.54,1.51,1.51,0,0,1-.78.43c-.67.11-.94-.5-1.17-1a5.2,5.2,0,0,1-.39-2.67v-.09l.24,0c2.41.33,3.26-2,2.49-2.65s-4.05-3.09-4.88-3.22a6.26,6.26,0,0,0-2.56.43l2.44-.11s4.69,3,4.64,3.59a1.73,1.73,0,0,1-1.82,1.45,15.21,15.21,0,0,1-3.54-.68C367.14,56.87,365.05,58.34,365.05,58.34Zm1.48-.87a1.92,1.92,0,0,0,.83-.86s.56.15,2.42.41a10.14,10.14,0,0,0-.47,1.19,2,2,0,0,1-.37.61.42.42,0,0,1-.15.12A17.68,17.68,0,0,0,366.53,57.47Z" style="fill: rgb(154, 74, 77); transform-origin: 372.687px 59.4572px;" id="eljlf7m0c90p" class="animable"></path>
                <path d="M344,141.35a80.24,80.24,0,0,1,7.71-8c3.29-3.09,10.73-18.2,10.73-18.2L364.76,89c2.54,2.64,13,2.33,17,.11,0,0,1.32,7.46,2.6,22.19.61,6.87.71,8-3.92,18.31-3.07,6.84-5.4,11-9.79,20.15-3.85,8.07-10.39,21.16-11.6,26.86-.33,1.53-.32,3.6-2.42,3.64-3.22.06-6.13-10.61-8.38-15.16C344,156.48,343.49,145.31,344,141.35Z" style="fill: rgb(198, 255, 0); transform-origin: 364.249px 134.63px;" id="elhbfn75qztsd" class="animable"></path>
                <g id="el30j17v2nskf">
                    <path d="M344,141.35a80.24,80.24,0,0,1,7.71-8c3.29-3.09,10.73-18.2,10.73-18.2L364.76,89c2.54,2.64,13,2.33,17,.11,0,0,1.32,7.46,2.6,22.19.61,6.87.71,8-3.92,18.31-3.07,6.84-5.4,11-9.79,20.15-3.85,8.07-10.39,21.16-11.6,26.86-.33,1.53-.32,3.6-2.42,3.64-3.22.06-6.13-10.61-8.38-15.16C344,156.48,343.49,145.31,344,141.35Z" style="opacity: 0.2; transform-origin: 364.249px 134.63px;" class="animable"></path>
                </g>
                <path id="freepik--Chest--inject-49" d="M314.82,142.22c-10.28,2.3-13.37,3.29-18.23,4.42,0,0-9.06,25.5-4.7,43.28,1,4.09,3.29,17.24,3.28,24.75,0,7.17-.08,9.51-.84,19.69,0,0,13.76,9.6,42.53,6.67,22.59-2.3,24.16-10.25,24.16-10.25s-1.24-31.09-1.78-47.7c-.54-16.84-2.88-30.6-8.06-38.48a7.88,7.88,0,0,0-8.13-3.31c-4.47.86-9,1.25-9,1.25Z" style="fill: rgb(198, 255, 0); transform-origin: 325.862px 191.356px;" class="animable"></path>
                <path d="M266.4,198.88c-1.71,5.62-1.46,8,.38,13.61q1.73,5.26,3.4,10.55c1.48,4.68,4,12.49,4.52,14.33a15.84,15.84,0,0,1,.7,5.82,35.23,35.23,0,0,0-.37,6.07,25.16,25.16,0,0,0,1.26,7.11c.52,1.59.8,3.31,1.43,4.85a17.75,17.75,0,0,0,2,3c.75,1.1.95,2.46,1.89,3.45,1.66,1.75,3.48,2.1,5.1,3,.66,1.09,1.73,3.36,2.48,4.38,1.9,2.61,2.64-1.42,2.66-2.81a21.4,21.4,0,0,0-.56-4.42,98,98,0,0,1-1.85-11c-.07-.66-.69-3.4.4-3.33a1.35,1.35,0,0,1,.87.58,32.28,32.28,0,0,1,1.73,2.88,18.26,18.26,0,0,0,1.65,2.07,5.92,5.92,0,0,0,1.69,1.47c.69.34,3.27.7,3.46-.49a1.1,1.1,0,0,0-.1-.56c-.45-1.27-1-2.49-1.48-3.75a33,33,0,0,1-1.27-3.83c-.87-4.09-1.73-7.45-4-10.91-4-6.21-7.34-35.49-7.34-35.49l8-22.84s6.67-9.18,7-20.7S296.36,147,296.36,147c-9.7,1.6-14.39,4.38-17.31,12.44S268.14,193.17,266.4,198.88Z" style="fill: rgb(177, 102, 104); transform-origin: 282.659px 211.455px;" id="el6328gocc546" class="animable"></path>
                <path d="M287.82,223.36l1.23,6.23s-2.5-.68-8.73,1.56a24.43,24.43,0,0,0-6.62,3.32l-2-6.29Z" style="fill: rgb(250, 250, 250); transform-origin: 280.375px 228.915px;" id="elllozb3ieyaq" class="animable"></path>
                <path d="M264.7,202.77c.4-2.11,3.33-14.37,8.16-29.43s5.87-16.22,9.52-20.63,9.49-5.16,14.25-6.09c0,0,3.85,3.1,4,13.32a41,41,0,0,1-6.13,22.22l-9.12,23.21,2.82,19.68a23.56,23.56,0,0,0-15.76,6.1l-5.55-16C264.06,206.25,264.31,204.89,264.7,202.77Z" style="fill: rgb(198, 255, 0); transform-origin: 282.55px 188.885px;" id="eljnq8jva9pkh" class="animable"></path>
                <g id="elxim5jgz7dff">
                    <path d="M264.7,202.77c.4-2.11,3.33-14.37,8.16-29.43s5.87-16.22,9.52-20.63,9.49-5.16,14.25-6.09c0,0,3.85,3.1,4,13.32a41,41,0,0,1-6.13,22.22l-9.12,23.21,2.82,19.68a23.56,23.56,0,0,0-15.76,6.1l-5.55-16C264.06,206.25,264.31,204.89,264.7,202.77Z" style="opacity: 0.2; transform-origin: 282.55px 188.885px;" class="animable"></path>
                </g>
                <path d="M334.2,141.48s6.92,6,4.77,11.8-12,7-19.76,1.67S312,143.26,312,143.26l2.87-.95a9.42,9.42,0,0,0,1.66,3.86c1.24,1.43,15.56,7.09,15.9,8.82,0,0,2.11-4.23,2.73-5.81s-2.63-7.92-2.63-7.92Z" style="fill: rgb(250, 250, 250); transform-origin: 325.688px 149.809px;" id="el6f5hc6e779k" class="animable"></path>
                <path d="M344.8,105.81c2-5.67-.9-12.78-4-16-4.5-4.64-11.1-6.29-20.76-5-7.34,1-14.37,4.61-15.19,12.29-5.79,2.21-4.39,11.9-2.6,16.08,3.64,8.5,10.1,15.65,10.53,20.1Z" style="fill: rgb(38, 50, 56); transform-origin: 323.074px 108.833px;" id="elv3liz00wmq9" class="animable"></path>
                <path d="M346.32,126.32c-.85,4.29-3.06,7.56-6.9,8.46a32.88,32.88,0,0,1-6.15.49v7.48c2.86,3.47,1.46,7.88-.85,12.24-4-4.83-15.49-6.74-20.18-12.54l-.39-17.3s-2.18,2.89-6.29.62a8.58,8.58,0,0,1-3.45-10.29c1.64-4.25,5.66-2.84,7-1.68s2.86,3.4,3.83,3a3.64,3.64,0,0,0,2.23-2.65,21.91,21.91,0,0,0,.68-8.05,8.92,8.92,0,0,0,2.6-2.37c1.54-2,1.51-4.22,1.43-6.25,8.22-3.26,19-3,22.72-.54,2.27,3.39,3,11.62,3.65,16.34A39.14,39.14,0,0,1,346.32,126.32Z" style="fill: rgb(177, 102, 104); transform-origin: 324.194px 125.027px;" id="el3qzri8np3cu" class="animable"></path>
                <path d="M333.27,135.27c-4.32.07-13.13-1.29-15.61-3.52s-3.84-7.08-3.84-7.08.58,5.19,2.57,7.8,6.81,4,9.6,4.45,7.28.69,7.28.69Z" style="fill: rgb(154, 74, 77); transform-origin: 323.545px 131.14px;" id="elereqpom1k87" class="animable"></path>
                <path d="M328.82,111.69a1.81,1.81,0,0,1-1.63,2,1.83,1.83,0,0,1-1.92-1.72,1.8,1.8,0,0,1,1.63-2A1.82,1.82,0,0,1,328.82,111.69Z" style="fill: rgb(38, 50, 56); transform-origin: 327.044px 111.83px;" id="ell0ro65efs7o" class="animable"></path>
                <path d="M342.61,106.92l-4.13-1.48a2.11,2.11,0,0,1,2.73-1.37A2.31,2.31,0,0,1,342.61,106.92Z" style="fill: rgb(38, 50, 56); transform-origin: 340.597px 105.433px;" id="elj0oyxjv024p" class="animable"></path>
                <path d="M326.58,107.06l-3.33,2.86a2.11,2.11,0,0,1,.16-3.06A2.3,2.3,0,0,1,326.58,107.06Z" style="fill: rgb(38, 50, 56); transform-origin: 324.624px 108.12px;" id="eld4htpywdpnj" class="animable"></path>
                <path d="M342.38,109.84a1.79,1.79,0,1,1-1.92-1.72A1.83,1.83,0,0,1,342.38,109.84Z" style="fill: rgb(38, 50, 56); transform-origin: 340.591px 109.906px;" id="el614rkr51x6r" class="animable"></path>
                <polygon points="332.76 107.33 334.99 120.01 341.69 117.43 332.76 107.33" style="fill: rgb(154, 74, 77); transform-origin: 337.225px 113.67px;" id="el55776dfc34h" class="animable"></polygon>
                <path d="M328.12,122.42a3.71,3.71,0,0,0,7.24,1.61Z" style="fill: rgb(154, 74, 77); transform-origin: 331.707px 124.625px;" id="el1rib8g8yk8o" class="animable"></path>
                <path d="M329.05,124.28a3.58,3.58,0,0,1,4,2.39,3.69,3.69,0,0,1-4.81-2.16A4.12,4.12,0,0,1,329.05,124.28Z" style="fill: rgb(242, 143, 143); transform-origin: 330.645px 125.577px;" id="elqflbvve121" class="animable"></path>
                <path d="M332.42,155c-2.22-1.27-6.62-4.12-8.7-1.32s-3.57,6-5.16,5.58-7.53-4.32-9.64-8.52a17.09,17.09,0,0,1-1.74-6.64,47.75,47.75,0,0,0,3-5c.85-1.78.57-2.64,2-2.77l.1,4.44a38.1,38.1,0,0,0,5.57,4.93C321.71,148.35,329.44,148.92,332.42,155Z" style="fill: rgb(235, 235, 235); transform-origin: 319.8px 147.814px;" id="el5mdxjpvcl2c" class="animable"></path>
                <path d="M332.42,155c1.27-1.21,2.14-3.29,4.28-2.74s5.3,5.32,5.33,4.18-1.54-9.19-3.21-11.54-4.1-6.86-5.55-6.74v4.6s1.64,3.48,1.39,5.4S332.64,153.13,332.42,155Z" style="fill: rgb(235, 235, 235); transform-origin: 337.225px 147.386px;" id="elrjqsqho7mha" class="animable"></path>
            </g>
        </g>
    </g>
    <defs>
        <filter id="active" height="200%">
            <feMorphology in="SourceAlpha" result="DILATED" operator="dilate" radius="2"></feMorphology>
            <feFlood flood-color="#32DFEC" flood-opacity="1" result="PINK"></feFlood>
            <feComposite in="PINK" in2="DILATED" operator="in" result="OUTLINE"></feComposite>
            <feMerge>
                <feMergeNode in="OUTLINE"></feMergeNode>
                <feMergeNode in="SourceGraphic"></feMergeNode>
            </feMerge>
        </filter>
        <filter id="hover" height="200%">
            <feMorphology in="SourceAlpha" result="DILATED" operator="dilate" radius="2"></feMorphology>
            <feFlood flood-color="#ff0000" flood-opacity="0.5" result="PINK"></feFlood>
            <feComposite in="PINK" in2="DILATED" operator="in" result="OUTLINE"></feComposite>
            <feMerge>
                <feMergeNode in="OUTLINE"></feMergeNode>
                <feMergeNode in="SourceGraphic"></feMergeNode>
            </feMerge>
            <feColorMatrix type="matrix" values="0   0   0   0   0                0   1   0   0   0                0   0   0   0   0                0   0   0   1   0 "></feColorMatrix>
        </filter>
    </defs>
</svg>